<svg width="172" height="56" viewBox="0 0 172 56" fill="none" xmlns="http://www.w3.org/2000/svg">
<path d="M11.0329 55.734C10.5889 55.734 10.1557 55.7283 9.71525 55.7184C8.80278 55.7065 7.89245 55.6271 6.99172 55.4808C6.15184 55.3361 5.33822 55.067 4.57769 54.6824C3.82414 54.301 3.13684 53.8008 2.54213 53.2011C1.9388 52.6085 1.4365 51.9211 1.05514 51.1663C0.669579 50.4065 0.402746 49.5922 0.263939 48.7516C0.114039 47.8484 0.0329368 46.935 0.021332 46.0195C0.012094 45.7122 0 44.689 0 44.689V11.0293C0 11.0293 0.0128808 10.0218 0.0214048 9.72584C0.0325164 8.81177 0.113147 7.89988 0.262598 6.99805C0.401662 6.15515 0.668701 5.33844 1.05447 4.57621C1.43443 3.82189 1.93394 3.13401 2.53363 2.53926C3.13265 1.93885 3.82215 1.43612 4.57698 1.04942C5.33575 0.66603 6.14784 0.398855 6.98603 0.256843C7.88972 0.109044 8.8032 0.0291363 9.71883 0.0177912L11.0336 0H160.777L162.108 0.0185052C163.015 0.0292865 163.92 0.108481 164.816 0.255415C165.662 0.399209 166.483 0.668248 167.25 1.05369C168.763 1.83301 169.993 3.06597 170.769 4.57976C171.149 5.33673 171.412 6.14678 171.549 6.9824C171.7 7.89163 171.785 8.81069 171.802 9.73225C171.807 10.1449 171.807 10.5881 171.807 11.0293C171.818 11.5757 171.818 12.0958 171.818 12.6201V43.1152C171.818 43.6446 171.818 44.1611 171.807 44.6819C171.807 45.1558 171.807 45.5898 171.801 46.0366C171.784 46.9417 171.701 47.8443 171.552 48.7373C171.416 49.584 171.151 50.4047 170.765 51.1707C170.381 51.9173 169.882 52.5987 169.285 53.1898C168.69 53.7927 168.002 54.2958 167.246 54.6796C166.481 55.0672 165.662 55.3373 164.816 55.4808C163.915 55.6279 163.005 55.7073 162.092 55.7184C161.665 55.7283 161.219 55.734 160.785 55.734L159.205 55.7369L11.0329 55.734Z" fill="#130046"/>
<path d="M34.8155 28.304C34.8312 27.0878 35.1542 25.8954 35.7546 24.8376C36.355 23.7798 37.2131 22.8911 38.2493 22.2541C37.591 21.314 36.7227 20.5404 35.7132 19.9946C34.7037 19.4489 33.5808 19.146 32.4338 19.1101C29.9869 18.8533 27.6149 20.5743 26.368 20.5743C25.097 20.5743 23.1773 19.1356 21.1101 19.1781C19.7729 19.2213 18.4698 19.6102 17.3276 20.3068C16.1854 21.0033 15.2431 21.9839 14.5926 23.1529C11.7746 28.0319 13.8765 35.2024 16.576 39.1461C17.9266 41.0773 19.505 43.2345 21.5704 43.158C23.5915 43.0742 24.3463 41.8692 26.7859 41.8692C29.2029 41.8692 29.9111 43.158 32.0184 43.1093C34.1871 43.0741 35.5535 41.1696 36.8567 39.2201C37.8271 37.8441 38.5738 36.3233 39.0691 34.7141C37.8092 34.1811 36.734 33.2891 35.9775 32.1493C35.2211 31.0094 34.817 29.6721 34.8155 28.304Z" fill="#FDFDFD"/>
<path d="M30.8326 16.5168C32.0151 15.0973 32.5976 13.2728 32.4566 11.4307C30.65 11.6204 28.9813 12.4838 27.7828 13.8489C27.1968 14.5157 26.7481 15.2916 26.4621 16.132C26.1762 16.9724 26.0587 17.8609 26.1163 18.7468C27.0199 18.7561 27.9139 18.5602 28.7308 18.1739C29.5477 17.7877 30.2664 17.2211 30.8326 16.5168Z" fill="#FDFDFD"/>
<path d="M60.3653 38.2719H53.4682L51.8119 43.1626H48.8906L55.4234 25.0684H58.4585L64.9913 43.1626H62.0201L60.3653 38.2719ZM54.1826 36.0151H59.6496L56.9545 28.0779H56.8791L54.1826 36.0151Z" fill="#FDFDFD"/>
<path d="M79.0995 36.5654C79.0995 40.6649 76.9053 43.2988 73.5941 43.2988C72.7553 43.3426 71.9211 43.1494 71.1871 42.7412C70.453 42.333 69.8487 41.7264 69.4434 40.9907H69.3807V47.5249H66.6729V29.9686H69.294V32.1628H69.3438C69.7677 31.4306 70.3822 30.8271 71.1219 30.4164C71.8616 30.0058 72.6987 29.8033 73.5443 29.8306C76.8924 29.8306 79.0995 32.4772 79.0995 36.5654ZM76.3162 36.5654C76.3162 33.8945 74.9359 32.1386 72.83 32.1386C70.761 32.1386 69.3694 33.9315 69.3694 36.5654C69.3694 39.2234 70.761 41.0036 72.83 41.0036C74.936 41.0036 76.3162 39.2604 76.3162 36.5654Z" fill="#FDFDFD"/>
<path d="M93.619 36.5654C93.619 40.6649 91.4248 43.2987 88.1136 43.2987C87.2749 43.3426 86.4407 43.1494 85.7066 42.7412C84.9725 42.333 84.3682 41.7264 83.9629 40.9907H83.9003V47.5249H81.1924V29.9686H83.8134V32.1628H83.8632C84.2872 31.4306 84.9017 30.8271 85.6414 30.4164C86.381 30.0058 87.2182 29.8033 88.0638 29.8306C91.412 29.8306 93.619 32.4772 93.619 36.5654ZM90.8357 36.5654C90.8357 33.8945 89.4555 32.1386 87.3495 32.1386C85.2805 32.1386 83.8889 33.9315 83.8889 36.5654C83.8889 39.2234 85.2805 41.0035 87.3495 41.0035C89.4555 41.0035 90.8358 39.2604 90.8358 36.5654H90.8357Z" fill="#FDFDFD"/>
<path d="M103.215 38.1191C103.416 39.9134 105.159 41.0916 107.541 41.0916C109.823 41.0916 111.466 39.9134 111.466 38.2955C111.466 36.891 110.475 36.0501 108.13 35.4738L105.785 34.9088C102.463 34.1063 100.92 32.5524 100.92 30.031C100.92 26.909 103.641 24.7646 107.504 24.7646C111.327 24.7646 113.949 26.909 114.037 30.031H111.303C111.14 28.2253 109.647 27.1353 107.466 27.1353C105.284 27.1353 103.792 28.2381 103.792 29.8432C103.792 31.1224 104.745 31.8751 107.077 32.4514L109.071 32.9409C112.783 33.8188 114.326 35.3101 114.326 37.9567C114.326 41.3419 111.629 43.4621 107.34 43.4621C103.328 43.4621 100.618 41.3917 100.443 38.119L103.215 38.1191Z" fill="#FDFDFD"/>
<path d="M120.17 26.8467V29.9686H122.679V32.113H120.17V39.3857C120.17 40.5155 120.672 41.042 121.775 41.042C122.073 41.0368 122.37 41.0159 122.666 40.9793V43.1109C122.17 43.2036 121.666 43.2455 121.162 43.2361C118.491 43.2361 117.449 42.233 117.449 39.6745V32.113H115.531V29.9686H117.449V26.8467H120.17Z" fill="#FDFDFD"/>
<path d="M124.132 36.5656C124.132 32.4149 126.576 29.8066 130.389 29.8066C134.213 29.8066 136.647 32.4148 136.647 36.5656C136.647 40.7278 134.226 43.3246 130.389 43.3246C126.552 43.3246 124.132 40.7278 124.132 36.5656ZM133.888 36.5656C133.888 33.7183 132.583 32.0378 130.389 32.0378C128.194 32.0378 126.891 33.7311 126.891 36.5656C126.891 39.4243 128.194 41.092 130.389 41.092C132.583 41.092 133.887 39.4243 133.887 36.5656H133.888Z" fill="#FDFDFD"/>
<path d="M138.877 29.9685H141.46V32.2139H141.523C141.697 31.5126 142.108 30.8928 142.686 30.4588C143.264 30.0247 143.974 29.8028 144.696 29.8304C145.008 29.8293 145.319 29.8632 145.624 29.9315V32.4643C145.23 32.3439 144.819 32.2886 144.407 32.3007C144.014 32.2847 143.621 32.3541 143.257 32.504C142.893 32.6539 142.566 32.8808 142.298 33.1692C142.03 33.4575 141.827 33.8005 141.704 34.1744C141.581 34.5484 141.541 34.9446 141.585 35.3358V43.1606H138.877L138.877 29.9685Z" fill="#FDFDFD"/>
<path d="M158.111 39.2863C157.747 41.6811 155.415 43.3246 152.431 43.3246C148.593 43.3246 146.211 40.7534 146.211 36.6282C146.211 32.4903 148.606 29.8066 152.317 29.8066C155.967 29.8066 158.262 32.3139 158.262 36.3138V37.2415H148.944V37.4052C148.901 37.8907 148.962 38.3798 149.123 38.84C149.283 39.3002 149.54 39.721 149.876 40.0744C150.211 40.4278 150.618 40.7058 151.07 40.8898C151.521 41.0739 152.006 41.1598 152.493 41.1418C153.133 41.2018 153.775 41.0536 154.324 40.7193C154.873 40.3849 155.299 39.8824 155.54 39.2863L158.111 39.2863ZM148.957 35.349H155.553C155.577 34.9125 155.511 34.4756 155.358 34.0659C155.206 33.6561 154.97 33.2823 154.666 32.9679C154.362 32.6535 153.997 32.4053 153.593 32.2389C153.188 32.0725 152.754 31.9914 152.317 32.0008C151.876 31.9982 151.439 32.0829 151.031 32.2501C150.623 32.4173 150.252 32.6636 149.939 32.9749C149.627 33.2862 149.379 33.6563 149.211 34.0638C149.042 34.4712 148.956 34.9081 148.957 35.349V35.349Z" fill="#FDFDFD"/>
<path d="M59.9197 10.2345C60.4874 10.1937 61.0571 10.2795 61.5877 10.4856C62.1182 10.6917 62.5964 11.0129 62.9878 11.4262C63.3791 11.8395 63.6739 12.3344 63.8508 12.8754C64.0277 13.4164 64.0823 13.9899 64.0107 14.5545C64.0107 17.3321 62.5095 18.9287 59.9197 18.9287H56.7793V10.2345H59.9197ZM58.1297 17.6992H59.7689C60.1746 17.7234 60.5805 17.6569 60.9572 17.5045C61.334 17.3521 61.6719 17.1175 61.9466 16.818C62.2213 16.5185 62.4257 16.1615 62.5449 15.773C62.6642 15.3845 62.6954 14.9743 62.6361 14.5723C62.6911 14.1718 62.6568 13.7641 62.5357 13.3785C62.4145 12.9929 62.2096 12.6388 61.9356 12.3416C61.6616 12.0445 61.3252 11.8116 60.9506 11.6597C60.576 11.5079 60.1725 11.4407 59.7689 11.4631H58.1297V17.6992Z" fill="white"/>
<path d="M65.5351 15.6446C65.4939 15.2134 65.5432 14.7783 65.68 14.3673C65.8167 13.9563 66.0378 13.5784 66.3291 13.2579C66.6205 12.9374 66.9756 12.6813 67.3717 12.506C67.7678 12.3308 68.1962 12.2402 68.6293 12.2402C69.0625 12.2402 69.4909 12.3308 69.887 12.506C70.2831 12.6813 70.6382 12.9374 70.9295 13.2579C71.2209 13.5784 71.442 13.9563 71.5787 14.3673C71.7155 14.7783 71.7648 15.2134 71.7235 15.6446C71.7656 16.0762 71.7168 16.5118 71.5805 16.9235C71.4441 17.3352 71.2231 17.7137 70.9317 18.0349C70.6403 18.3561 70.2849 18.6127 69.8884 18.7884C69.4919 18.964 69.063 19.0547 68.6293 19.0547C68.1957 19.0547 67.7668 18.964 67.3703 18.7884C66.9738 18.6127 66.6184 18.3561 66.327 18.0349C66.0356 17.7137 65.8146 17.3352 65.6782 16.9235C65.5419 16.5118 65.4931 16.0762 65.5351 15.6446ZM70.3917 15.6446C70.3917 14.2223 69.7527 13.3906 68.6315 13.3906C67.5059 13.3906 66.8728 14.2223 66.8728 15.6446C66.8728 17.0782 67.506 17.9035 68.6315 17.9035C69.7528 17.9035 70.3917 17.0725 70.3917 15.6446H70.3917Z" fill="white"/>
<path d="M79.9508 18.9274H78.6076L77.2515 14.0951H77.1491L75.7987 18.9274H74.4682L72.6597 12.3662H73.9731L75.1484 17.3728H75.2452L76.5941 12.3662H77.8364L79.1853 17.3728H79.2878L80.4574 12.3662H81.7523L79.9508 18.9274Z" fill="white"/>
<path d="M83.2769 12.3665H84.5234V13.4088H84.6201C84.7843 13.0345 85.0611 12.7206 85.4121 12.5111C85.7631 12.3016 86.1707 12.2067 86.5781 12.2399C86.8973 12.2159 87.2179 12.264 87.516 12.3807C87.8141 12.4974 88.0822 12.6797 88.3003 12.9141C88.5184 13.1484 88.681 13.4289 88.776 13.7346C88.871 14.0403 88.896 14.3635 88.8491 14.6802V18.9276H87.5542V15.0054C87.5542 13.951 87.0961 13.4266 86.1384 13.4266C85.9217 13.4165 85.7053 13.4534 85.5041 13.5348C85.3029 13.6161 85.1218 13.74 84.973 13.8979C84.8241 14.0558 84.7112 14.2441 84.642 14.4497C84.5727 14.6554 84.5488 14.8735 84.5717 15.0893V18.9277H83.2769L83.2769 12.3665Z" fill="white"/>
<path d="M90.9067 9.80469H92.2016V18.9272H90.9067V9.80469Z" fill="white"/>
<path d="M94.0024 15.6447C93.9612 15.2135 94.0105 14.7784 94.1473 14.3674C94.2841 13.9564 94.5052 13.5785 94.7966 13.2579C95.088 12.9374 95.4431 12.6813 95.8392 12.506C96.2354 12.3308 96.6638 12.2402 97.097 12.2402C97.5301 12.2402 97.9585 12.3308 98.3547 12.506C98.7508 12.6813 99.1059 12.9374 99.3973 13.2579C99.6887 13.5785 99.9098 13.9564 100.047 14.3674C100.183 14.7784 100.233 15.2135 100.192 15.6447C100.233 16.0763 100.185 16.512 100.048 16.9236C99.9119 17.3353 99.6908 17.7139 99.3994 18.035C99.108 18.3562 98.7526 18.6128 98.356 18.7885C97.9595 18.9641 97.5306 19.0548 97.097 19.0548C96.6633 19.0548 96.2344 18.9641 95.8379 18.7885C95.4413 18.6128 95.0859 18.3562 94.7945 18.035C94.5031 17.7139 94.282 17.3353 94.1456 16.9236C94.0092 16.512 93.9604 16.0763 94.0024 15.6447ZM98.8589 15.6447C98.8589 14.2225 98.22 13.3907 97.0987 13.3907C95.9732 13.3907 95.34 14.2225 95.34 15.6447C95.34 17.0783 95.9732 17.9036 97.0987 17.9036C98.22 17.9036 98.8589 17.0726 98.8589 15.6447H98.8589Z" fill="white"/>
<path d="M101.556 17.0726C101.556 15.8915 102.436 15.2106 103.996 15.1139L105.774 15.0114V14.4451C105.774 13.7521 105.316 13.3608 104.431 13.3608C103.708 13.3608 103.207 13.6262 103.063 14.0901H101.809C101.942 12.9631 103.002 12.2402 104.49 12.2402C106.135 12.2402 107.063 13.0591 107.063 14.4451V18.9281H105.816V18.006H105.714C105.506 18.3368 105.214 18.6064 104.868 18.7874C104.522 18.9684 104.133 19.0542 103.743 19.0362C103.468 19.0648 103.189 19.0354 102.926 18.9499C102.663 18.8644 102.42 18.7246 102.214 18.5396C102.008 18.3546 101.843 18.1285 101.73 17.8758C101.616 17.6231 101.557 17.3495 101.556 17.0726ZM105.774 16.5119V15.9634L104.172 16.0658C103.268 16.1263 102.858 16.4336 102.858 17.0121C102.858 17.6026 103.37 17.9462 104.075 17.9462C104.281 17.9671 104.49 17.9463 104.688 17.885C104.886 17.8236 105.07 17.7231 105.228 17.5892C105.387 17.4554 105.517 17.2911 105.611 17.106C105.704 16.9209 105.76 16.7189 105.774 16.5119Z" fill="white"/>
<path d="M108.765 15.6438C108.765 13.5705 109.83 12.2572 111.488 12.2572C111.898 12.2383 112.305 12.3365 112.661 12.5403C113.018 12.7442 113.309 13.0452 113.5 13.4083H113.597V9.80469H114.892V18.9272H113.651V17.8906H113.549C113.342 18.2512 113.041 18.5485 112.678 18.7503C112.315 18.9521 111.903 19.0506 111.488 19.0353C109.819 19.0354 108.765 17.722 108.765 15.6438ZM110.102 15.6438C110.102 17.0354 110.758 17.8728 111.855 17.8728C112.947 17.8728 113.621 17.0233 113.621 15.6495C113.621 14.282 112.94 13.4204 111.855 13.4204C110.765 13.4204 110.102 14.2635 110.102 15.6438H110.102Z" fill="white"/>
<path d="M120.249 15.6446C120.208 15.2134 120.257 14.7783 120.394 14.3673C120.531 13.9563 120.752 13.5784 121.043 13.2579C121.334 12.9374 121.689 12.6813 122.086 12.506C122.482 12.3308 122.91 12.2402 123.343 12.2402C123.776 12.2402 124.205 12.3308 124.601 12.506C124.997 12.6813 125.352 12.9374 125.643 13.2579C125.935 13.5784 126.156 13.9563 126.293 14.3673C126.429 14.7783 126.479 15.2134 126.437 15.6446C126.479 16.0762 126.431 16.5118 126.294 16.9235C126.158 17.3352 125.937 17.7137 125.646 18.0349C125.354 18.3561 124.999 18.6127 124.602 18.7884C124.206 18.964 123.777 19.0547 123.343 19.0547C122.91 19.0547 122.481 18.964 122.084 18.7884C121.688 18.6127 121.332 18.3561 121.041 18.0349C120.749 17.7137 120.528 17.3352 120.392 16.9235C120.256 16.5118 120.207 16.0762 120.249 15.6446ZM125.106 15.6446C125.106 14.2223 124.467 13.3906 123.345 13.3906C122.22 13.3906 121.587 14.2223 121.587 15.6446C121.587 17.0782 122.22 17.9035 123.345 17.9035C124.467 17.9035 125.106 17.0725 125.106 15.6446Z" fill="white"/>
<path d="M128.172 12.3665H129.419V13.4088H129.516C129.68 13.0345 129.957 12.7206 130.308 12.5111C130.659 12.3016 131.066 12.2067 131.474 12.2399C131.793 12.2159 132.113 12.264 132.412 12.3807C132.71 12.4974 132.978 12.6797 133.196 12.9141C133.414 13.1484 133.576 13.4289 133.671 13.7346C133.766 14.0403 133.791 14.3635 133.745 14.6802V18.9276H132.45V15.0054C132.45 13.951 131.992 13.4266 131.034 13.4266C130.817 13.4165 130.601 13.4534 130.4 13.5348C130.198 13.6161 130.017 13.74 129.868 13.8979C129.72 14.0558 129.607 14.2441 129.538 14.4497C129.468 14.6554 129.444 14.8735 129.467 15.0893V18.9277H128.172V12.3665Z" fill="white"/>
<path d="M141.065 10.7324V12.3958H142.486V13.4865H141.065V16.8603C141.065 17.5476 141.348 17.8486 141.993 17.8486C142.158 17.8481 142.323 17.8381 142.486 17.8187V18.8973C142.254 18.9389 142.018 18.961 141.782 18.9635C140.342 18.9635 139.769 18.4569 139.769 17.1919V13.4865H138.727V12.3958H139.769V10.7324H141.065Z" fill="white"/>
<path d="M144.252 9.80469H145.535V13.4204H145.638C145.81 13.0425 146.094 12.727 146.452 12.5166C146.81 12.3063 147.225 12.2115 147.638 12.245C147.956 12.2278 148.274 12.2808 148.568 12.4003C148.863 12.5199 149.128 12.703 149.344 12.9366C149.559 13.1703 149.721 13.4486 149.817 13.7519C149.913 14.0552 149.94 14.3759 149.898 14.6911V18.9272H148.602V15.0105C148.602 13.9625 148.114 13.4318 147.199 13.4318C146.976 13.4135 146.753 13.4441 146.543 13.5214C146.334 13.5987 146.143 13.7209 145.986 13.8793C145.829 14.0377 145.708 14.2287 145.632 14.4387C145.556 14.6487 145.527 14.8728 145.547 15.0952V18.9272H144.252L144.252 9.80469Z" fill="white"/>
<path d="M157.451 17.1537C157.275 17.7533 156.894 18.272 156.374 18.6191C155.854 18.9661 155.229 19.1193 154.608 19.0519C154.175 19.0633 153.746 18.9805 153.349 18.8093C152.952 18.638 152.597 18.3824 152.308 18.0602C152.02 17.738 151.805 17.3569 151.679 16.9433C151.552 16.5297 151.518 16.0937 151.577 15.6653C151.519 15.2356 151.555 14.7986 151.681 14.3838C151.807 13.969 152.02 13.5861 152.307 13.2611C152.594 12.936 152.947 12.6764 153.343 12.4998C153.739 12.3232 154.168 12.2337 154.602 12.2374C156.428 12.2374 157.529 13.4847 157.529 15.545V15.9969H152.896V16.0694C152.876 16.3102 152.906 16.5526 152.985 16.781C153.064 17.0094 153.189 17.2188 153.354 17.3957C153.518 17.5727 153.718 17.7133 153.94 17.8086C154.162 17.9039 154.402 17.9518 154.643 17.9491C154.953 17.9863 155.267 17.9305 155.545 17.7888C155.823 17.6472 156.052 17.4261 156.204 17.1536L157.451 17.1537ZM152.896 15.0392H156.21C156.226 14.819 156.196 14.5978 156.122 14.3898C156.048 14.1819 155.931 13.9918 155.779 13.8317C155.627 13.6716 155.443 13.5451 155.239 13.4604C155.035 13.3756 154.816 13.3344 154.595 13.3395C154.371 13.3367 154.149 13.3787 153.941 13.4632C153.734 13.5476 153.545 13.6727 153.387 13.8311C153.229 13.9895 153.104 14.178 153.019 14.3855C152.935 14.593 152.893 14.8152 152.896 15.0392H152.896Z" fill="white"/>
</svg>
