<svg width="32" height="33" viewBox="0 0 32 33" fill="none" xmlns="http://www.w3.org/2000/svg">
<g clip-path="url(#clip0_9939_21125)">
<path d="M29.0558 25.438C28.5891 26.5249 28.0128 27.5614 27.3358 28.5313C26.4305 29.8213 25.6898 30.714 25.1192 31.21C24.2345 32.0233 23.2858 32.4407 22.2705 32.464C21.5418 32.464 20.6632 32.2567 19.6398 31.836C18.6132 31.4173 17.6698 31.2093 16.8072 31.2093C15.9025 31.2093 14.9325 31.4173 13.8945 31.836C12.8552 32.2567 12.0178 32.476 11.3778 32.4973C10.4045 32.5393 9.43384 32.1107 8.4645 31.21C7.8465 30.67 7.07384 29.746 6.14717 28.4367C5.15317 27.038 4.33584 25.4167 3.69584 23.5673C3.0105 21.5707 2.6665 19.6367 2.6665 17.7647C2.6665 15.62 3.12984 13.7707 4.05784 12.2207C4.78784 10.9753 5.75784 9.994 6.9725 9.27267C8.16416 8.55956 9.52386 8.17581 10.9125 8.16067C11.6858 8.16067 12.6998 8.4 13.9605 8.87C15.2172 9.34133 16.0238 9.58067 16.3778 9.58067C16.6418 9.58067 17.5385 9.30067 19.0578 8.74333C20.4952 8.226 21.7078 8.012 22.7012 8.09667C25.3938 8.314 27.4165 9.37533 28.7612 11.2873C26.3538 12.746 25.1625 14.7893 25.1865 17.4107C25.2078 19.4527 25.9485 21.152 27.4045 22.5007C28.0645 23.1273 28.8012 23.6113 29.6205 23.9547C29.4487 24.4552 29.2604 24.9499 29.0558 25.438ZM22.8812 1.14067C22.8812 2.74067 22.2965 4.23533 21.1312 5.618C19.7245 7.26267 18.0238 8.21267 16.1792 8.06267C16.1544 7.86139 16.1419 7.65879 16.1418 7.456C16.1418 5.92 16.8105 4.276 17.9985 2.93133C18.5918 2.25067 19.3452 1.68467 20.2598 1.23333C21.1732 0.788667 22.0358 0.542667 22.8478 0.5C22.8712 0.714 22.8812 0.928 22.8812 1.14V1.14067Z" fill="white"/>
</g>
<defs>
<clipPath id="clip0_9939_21125">
<rect width="32" height="32" fill="white" transform="translate(0 0.5)"/>
</clipPath>
</defs>
</svg>
