<svg width="24" height="24" viewBox="0 0 24 24" fill="none" xmlns="http://www.w3.org/2000/svg">
<path d="M17.0005 3H7.00049C5.93962 3 4.92221 3.42143 4.17206 4.17157C3.42192 4.92172 3.00049 5.93913 3.00049 7V17C3.00049 18.0609 3.42192 19.0783 4.17206 19.8284C4.92221 20.5786 5.93962 21 7.00049 21H17.0005C18.0614 21 19.0788 20.5786 19.8289 19.8284C20.5791 19.0783 21.0005 18.0609 21.0005 17V7C21.0005 5.93913 20.5791 4.92172 19.8289 4.17157C19.0788 3.42143 18.0614 3 17.0005 3Z" stroke="white" stroke-width="1.5" stroke-linejoin="round"/>
<path d="M12.0005 16C13.0614 16 14.0788 15.5786 14.8289 14.8284C15.5791 14.0783 16.0005 13.0609 16.0005 12C16.0005 10.9391 15.5791 9.92172 14.8289 9.17157C14.0788 8.42143 13.0614 8 12.0005 8C10.9396 8 9.92221 8.42143 9.17206 9.17157C8.42192 9.92172 8.00049 10.9391 8.00049 12C8.00049 13.0609 8.42192 14.0783 9.17206 14.8284C9.92221 15.5786 10.9396 16 12.0005 16V16Z" stroke="white" stroke-width="1.5" stroke-linejoin="round"/>
<path d="M17.5005 7.5C17.7657 7.5 18.0201 7.39464 18.2076 7.20711C18.3951 7.01957 18.5005 6.76522 18.5005 6.5C18.5005 6.23478 18.3951 5.98043 18.2076 5.79289C18.0201 5.60536 17.7657 5.5 17.5005 5.5C17.2353 5.5 16.9809 5.60536 16.7934 5.79289C16.6058 5.98043 16.5005 6.23478 16.5005 6.5C16.5005 6.76522 16.6058 7.01957 16.7934 7.20711C16.9809 7.39464 17.2353 7.5 17.5005 7.5Z" fill="white"/>
</svg>
