<svg width="20" height="20" viewBox="0 0 20 20" fill="none" xmlns="http://www.w3.org/2000/svg">
<path d="M11.2633 6.875H11.8883C12.054 6.87521 12.2128 6.94113 12.33 7.05829C12.4472 7.17546 12.5131 7.3343 12.5133 7.5V8.125C12.5133 8.29076 12.5791 8.44973 12.6964 8.56694C12.8136 8.68415 12.9725 8.75 13.1383 8.75C13.3041 8.75 13.463 8.68415 13.5802 8.56694C13.6974 8.44973 13.7633 8.29076 13.7633 8.125V7.5C13.7628 7.00288 13.565 6.52629 13.2135 6.17477C12.862 5.82326 12.3854 5.62554 11.8883 5.625H11.2633C11.0975 5.625 10.9386 5.69085 10.8214 5.80806C10.7041 5.92527 10.6383 6.08424 10.6383 6.25C10.6383 6.41576 10.7041 6.57473 10.8214 6.69194C10.9386 6.80915 11.0975 6.875 11.2633 6.875ZM8.7633 12.5H8.1383C7.9726 12.4998 7.81376 12.4339 7.69659 12.3167C7.57943 12.1995 7.51351 12.0407 7.5133 11.875V11.25C7.5133 11.0842 7.44745 10.9253 7.33024 10.8081C7.21303 10.6908 7.05406 10.625 6.8883 10.625C6.72254 10.625 6.56356 10.6908 6.44635 10.8081C6.32914 10.9253 6.2633 11.0842 6.2633 11.25V11.875C6.26384 12.3721 6.46156 12.8487 6.81307 13.2002C7.16458 13.5517 7.64118 13.7495 8.1383 13.75H8.7633C8.92906 13.75 9.08803 13.6842 9.20524 13.5669C9.32245 13.4497 9.3883 13.2908 9.3883 13.125C9.3883 12.9592 9.32245 12.8003 9.20524 12.6831C9.08803 12.5658 8.92906 12.5 8.7633 12.5ZM15.6383 11.875C15.8041 11.875 15.963 11.8091 16.0802 11.6919C16.1974 11.5747 16.2633 11.4158 16.2633 11.25C16.2633 11.0842 16.1974 10.9253 16.0802 10.8081C15.963 10.6908 15.8041 10.625 15.6383 10.625H13.7633V10.3125C13.7633 10.1467 13.6974 9.98777 13.5802 9.87056C13.463 9.75335 13.3041 9.6875 13.1383 9.6875C12.9725 9.6875 12.8136 9.75335 12.6964 9.87056C12.5791 9.98777 12.5133 10.1467 12.5133 10.3125V10.625H10.6383C10.4725 10.625 10.3136 10.6908 10.1964 10.8081C10.0791 10.9253 10.0133 11.0842 10.0133 11.25C10.0133 11.4158 10.0791 11.5747 10.1964 11.6919C10.3136 11.8091 10.4725 11.875 10.6383 11.875H13.8785C13.7371 12.4494 13.4761 12.9875 13.1125 13.4542C12.9637 13.2613 12.8322 13.0558 12.7193 12.84C12.6819 12.7669 12.6304 12.702 12.5679 12.6489C12.5054 12.5957 12.433 12.5554 12.3549 12.5303C12.2768 12.5051 12.1945 12.4956 12.1127 12.5022C12.0309 12.5089 11.9512 12.5315 11.8782 12.569C11.8052 12.6064 11.7403 12.6578 11.6871 12.7204C11.634 12.7829 11.5937 12.8553 11.5685 12.9334C11.5177 13.0911 11.5316 13.2626 11.6072 13.41C11.7756 13.7353 11.9764 14.0427 12.2067 14.3275C11.7532 14.6568 11.2376 14.8905 10.6911 15.0144C10.5294 15.05 10.3885 15.1484 10.2993 15.2878C10.21 15.4272 10.1797 15.5964 10.2151 15.7581C10.2504 15.9198 10.3484 16.061 10.4877 16.1505C10.6269 16.24 10.796 16.2707 10.9578 16.2357C11.742 16.0623 12.4776 15.716 13.1109 15.2222C13.7496 15.7163 14.49 16.0623 15.2788 16.2354C15.3589 16.2531 15.4418 16.2548 15.5226 16.2404C15.6034 16.2261 15.6806 16.196 15.7498 16.1518C15.8189 16.1076 15.8787 16.0502 15.9257 15.9829C15.9727 15.9157 16.006 15.8398 16.0237 15.7596C16.0414 15.6795 16.0431 15.5966 16.0287 15.5158C16.0144 15.435 15.9843 15.3578 15.9401 15.2886C15.8959 15.2194 15.8386 15.1596 15.7713 15.1126C15.704 15.0656 15.6281 15.0324 15.5479 15.0147C14.9978 14.8924 14.4779 14.6607 14.0191 14.3334C14.5971 13.622 14.9866 12.7765 15.1519 11.875H15.6383ZM8.1569 9.52667C8.19753 9.68705 8.30009 9.82478 8.44211 9.90967C8.58412 9.99456 8.75399 10.0197 8.91449 9.97954C9.075 9.93939 9.21304 9.83725 9.29836 9.6955C9.38368 9.55374 9.40932 9.38395 9.36966 9.22332L8.27133 4.82971C8.19419 4.5213 8.01617 4.24752 7.76558 4.05189C7.51498 3.85626 7.20619 3.75 6.88828 3.75C6.57036 3.75 6.26157 3.85626 6.01098 4.05189C5.76038 4.24752 5.58237 4.5213 5.50522 4.82971L4.4069 9.22332C4.36724 9.38395 4.39288 9.55374 4.4782 9.6955C4.56352 9.83725 4.70156 9.93939 4.86207 9.97954C5.02257 10.0197 5.19244 9.99456 5.33446 9.90967C5.47647 9.82478 5.57903 9.68705 5.61966 9.52667L5.97005 8.125H7.80651L8.1569 9.52667ZM6.28255 6.875L6.71799 5.13305C6.73107 5.09847 6.75437 5.06869 6.78479 5.04768C6.81521 5.02666 6.8513 5.0154 6.88828 5.0154C6.92525 5.0154 6.96135 5.02666 6.99177 5.04768C7.02218 5.06869 7.04548 5.09847 7.05856 5.13305L7.49401 6.875H6.28255Z" fill="#161042"/>
</svg>
