<svg width="24" height="24" viewBox="0 0 24 24" fill="none" xmlns="http://www.w3.org/2000/svg">
<path d="M11.5005 9.05C12.4175 8.113 13.6115 7.5 15.0005 7.5C16.4592 7.5 17.8581 8.07946 18.8896 9.11091C19.921 10.1424 20.5005 11.5413 20.5005 13V20.5H18.5005V13C18.5005 12.0717 18.1317 11.1815 17.4754 10.5251C16.819 9.86875 15.9287 9.5 15.0005 9.5C14.0722 9.5 13.182 9.86875 12.5256 10.5251C11.8692 11.1815 11.5005 12.0717 11.5005 13V20.5H9.50049V8H11.5005V9.05ZM4.50049 6C4.10266 6 3.72113 5.84196 3.43983 5.56066C3.15852 5.27936 3.00049 4.89782 3.00049 4.5C3.00049 4.10218 3.15852 3.72064 3.43983 3.43934C3.72113 3.15804 4.10266 3 4.50049 3C4.89831 3 5.27984 3.15804 5.56115 3.43934C5.84245 3.72064 6.00049 4.10218 6.00049 4.5C6.00049 4.89782 5.84245 5.27936 5.56115 5.56066C5.27984 5.84196 4.89831 6 4.50049 6ZM3.50049 8H5.50049V20.5H3.50049V8Z" fill="white"/>
</svg>
