<svg width="40" height="40" viewBox="0 0 40 40" fill="none" xmlns="http://www.w3.org/2000/svg">
<path d="M10.0341 17.9833V24.65C10.0341 25.0833 10.0508 25.5 10.1008 25.9C10.4841 30.4 13.1341 32.6333 18.0175 32.6333H18.6841C19.1008 32.6333 19.5008 32.8333 19.7508 33.1667L21.7508 35.8333C22.6341 37.0167 24.0675 37.0167 24.9508 35.8333L26.9508 33.1667C27.1675 32.8833 27.6508 32.6333 28.0175 32.6333H28.6841C34.0008 32.6333 36.6675 31.3167 36.6675 24.65V17.9833C36.6675 13.1 34.4175 10.45 29.9341 10.0667C29.5341 10.0167 29.1175 10 28.6841 10H18.0175C12.7008 10 10.0341 12.6667 10.0341 17.9833Z" stroke="#161042" stroke-width="1.5" stroke-miterlimit="10" stroke-linecap="round" stroke-linejoin="round"/>
<path d="M3.3674 11.3183V17.985C3.3674 22.885 5.61742 25.5183 10.1008 25.9016C10.0508 25.5016 10.0341 25.085 10.0341 24.6516V17.985C10.0341 12.6683 12.7008 10.0016 18.0174 10.0016H28.6841C29.1174 10.0016 29.5341 10.0183 29.9341 10.0683C29.5507 5.58498 26.9007 3.33496 22.0174 3.33496H11.3508C6.03409 3.33496 3.3674 6.00164 3.3674 11.3183Z" stroke="#161042" stroke-width="1.5" stroke-miterlimit="10" stroke-linecap="round" stroke-linejoin="round"/>
<path d="M17.5067 22.0833H17.4917" stroke="#161042" stroke-width="2" stroke-linecap="round" stroke-linejoin="round"/>
<path d="M23.3416 22.0833H23.3266" stroke="#161042" stroke-width="2" stroke-linecap="round" stroke-linejoin="round"/>
<path d="M29.1742 22.0833H29.1592" stroke="#161042" stroke-width="2" stroke-linecap="round" stroke-linejoin="round"/>
</svg>
