<svg width="191" height="56" viewBox="0 0 191 56" fill="none" xmlns="http://www.w3.org/2000/svg">
<path fill-rule="evenodd" clip-rule="evenodd" d="M183.448 56H7.84525C3.97244 56 0.818359 52.8439 0.818359 49V7C0.818359 3.14214 3.97244 0 7.84525 0H183.448C187.317 0 190.475 3.14214 190.475 7V49C190.475 52.8439 187.317 56 183.448 56Z" fill="#130046"/>
<path d="M100.73 18.5245C99.4631 18.5245 98.3955 18.0812 97.5511 17.2083C96.7138 16.36 96.2462 15.1904 96.2672 13.9964C96.2672 12.7221 96.6998 11.6433 97.5511 10.7879C98.392 9.91507 99.4596 9.47168 100.726 9.47168C101.979 9.47168 103.046 9.91507 103.905 10.7879C104.756 11.6712 105.189 12.75 105.189 13.9964C105.175 15.2742 104.742 16.353 103.905 17.2048C103.064 18.0846 101.996 18.5245 100.73 18.5245ZM63.0449 18.5245C61.8063 18.5245 60.7317 18.0881 59.8525 17.2258C58.9802 16.3669 58.5371 15.2812 58.5371 13.9999C58.5371 12.7186 58.9802 11.6328 59.8525 10.7739C60.7142 9.91158 61.7889 9.47517 63.0449 9.47517C63.659 9.47517 64.2556 9.59737 64.8278 9.84525C65.3895 10.0861 65.8466 10.4143 66.185 10.8158L66.2687 10.9171L65.3232 11.8457L65.2255 11.7305C64.6917 11.0951 63.9765 10.7844 63.0309 10.7844C62.1866 10.7844 61.4504 11.0846 60.8433 11.6782C60.2328 12.2752 59.9222 13.0572 59.9222 14.0034C59.9222 14.9495 60.2328 15.7315 60.8433 16.3285C61.4504 16.9221 62.1866 17.2223 63.0309 17.2223C63.9311 17.2223 64.6882 16.9221 65.2779 16.3285C65.6268 15.9794 65.8431 15.4906 65.9198 14.8727H62.8879V13.5669H67.2212L67.2387 13.6856C67.2701 13.9056 67.3015 14.1325 67.3015 14.342C67.3015 15.5465 66.9386 16.5206 66.2199 17.2398C65.4035 18.0916 64.3358 18.5245 63.0449 18.5245ZM113.15 18.3395H111.814L107.722 11.7864L107.756 12.9664V18.336H106.42V9.66021H107.945L107.987 9.72654L111.835 15.8991L111.8 14.7226V9.66021H113.15V18.3395ZM90.6883 18.3395H89.3345V10.9659H86.9864V9.66021H93.0329V10.9659H90.6848V18.3395H90.6883ZM85.8839 18.3395H84.5337V9.66021H85.8839V18.3395ZM78.2953 18.3395H76.9451V10.9659H74.597V9.66021H80.6434V10.9659H78.2953V18.3395ZM73.7422 18.3255H68.5645V9.66021H73.7422V10.9659H69.9182V13.347H73.3688V14.6388H69.9182V17.0198H73.7422V18.3255ZM98.542 16.3111C99.1456 16.9151 99.8783 17.2188 100.73 17.2188C101.605 17.2188 102.321 16.9221 102.917 16.3111C103.51 15.7176 103.81 14.939 103.81 13.9999C103.81 13.0607 103.51 12.2787 102.921 11.6886C102.317 11.0846 101.581 10.7809 100.733 10.7809C99.8573 10.7809 99.1421 11.0777 98.549 11.6886C97.9558 12.2822 97.6558 13.0607 97.6558 13.9999C97.6558 14.939 97.9524 15.7211 98.542 16.3111Z" fill="#FDFDFD"/>
<path fill-rule="evenodd" clip-rule="evenodd" d="M96.5984 30.6125C93.3013 30.6125 90.6287 33.1157 90.6287 36.5686C90.6287 39.99 93.3187 42.5247 96.5984 42.5247C99.8955 42.5247 102.568 40.004 102.568 36.5686C102.568 33.1157 99.8955 30.6125 96.5984 30.6125ZM96.5984 40.1646C94.7946 40.1646 93.242 38.6703 93.242 36.5546C93.242 34.4075 94.7981 32.9446 96.5984 32.9446C98.4022 32.9446 99.9549 34.4075 99.9549 36.5546C99.9583 38.6843 98.4022 40.1646 96.5984 40.1646ZM83.5739 30.6125C80.2767 30.6125 77.6041 33.1157 77.6041 36.5686C77.6041 39.99 80.2942 42.5247 83.5739 42.5247C86.871 42.5247 89.5436 40.004 89.5436 36.5686C89.5436 33.1157 86.8675 30.6125 83.5739 30.6125ZM83.5739 40.1646C81.77 40.1646 80.2174 38.6703 80.2174 36.5546C80.2174 34.4075 81.7735 32.9446 83.5739 32.9446C85.3777 32.9446 86.9303 34.4075 86.9303 36.5546C86.9303 38.6843 85.3777 40.1646 83.5739 40.1646ZM68.0756 32.4314V34.9521H74.1221C73.9372 36.3661 73.4697 37.41 72.7544 38.1257C71.8682 39.0125 70.5005 39.9761 68.0896 39.9761C64.3738 39.9761 61.4674 36.9736 61.4674 33.2554C61.4674 29.5372 64.3738 26.5347 68.0896 26.5347C70.0958 26.5347 71.5577 27.3272 72.6428 28.3397L74.4291 26.5521C72.9219 25.1067 70.9157 24 68.1035 24C63.0061 24 58.7285 28.1546 58.7285 33.2414C58.7285 38.3421 63.0026 42.4828 68.1035 42.4828C70.8564 42.4828 72.9219 41.582 74.5547 39.8853C76.219 38.22 76.7459 35.8703 76.7459 33.9746C76.7459 33.3845 76.7005 32.8539 76.6063 32.4035H68.0721C68.0756 32.4 68.0756 32.4314 68.0756 32.4314ZM131.468 34.3935C130.969 33.0564 129.462 30.5985 126.37 30.5985C123.307 30.5985 120.76 33.011 120.76 36.5546C120.76 39.8993 123.279 42.5107 126.667 42.5107C129.388 42.5107 130.972 40.8454 131.625 39.8678L129.605 38.5132C128.935 39.5082 128.003 40.1611 126.681 40.1611C125.344 40.1611 124.409 39.5536 123.788 38.3561L131.747 35.0569C131.747 35.0604 131.468 34.3935 131.468 34.3935ZM123.352 36.3835C123.289 34.0828 125.139 32.9132 126.461 32.9132C127.504 32.9132 128.373 33.4264 128.67 34.1736L123.352 36.3835ZM116.887 42.1546H119.5V24.6564H116.887V42.1546ZM112.596 31.9357H112.501C111.912 31.2339 110.792 30.5985 109.361 30.5985C106.392 30.5985 103.657 33.2135 103.657 36.5721C103.657 39.9167 106.378 42.5003 109.361 42.5003C110.774 42.5003 111.912 41.8613 112.501 41.1456H112.596V42.001C112.596 44.2738 111.381 45.4993 109.424 45.4993C107.823 45.4993 106.828 44.3471 106.424 43.3835L104.152 44.3332C104.805 45.9042 106.546 47.8489 109.421 47.8489C112.484 47.8489 115.08 46.0439 115.08 41.6414V30.9546H112.61V31.9357C112.613 31.9357 112.596 31.9357 112.596 31.9357ZM109.595 40.1646C107.791 40.1646 106.284 38.6564 106.284 36.5721C106.284 34.4703 107.791 32.9481 109.595 32.9481C111.381 32.9481 112.767 34.4878 112.767 36.5721C112.784 38.6564 111.385 40.1646 109.595 40.1646ZM143.704 24.6564H137.455V42.1546H140.068V35.5282H143.707C146.6 35.5282 149.443 33.4299 149.443 30.0993C149.443 26.7686 146.61 24.6564 143.704 24.6564ZM143.781 33.0843H140.065V27.0793H143.781C145.738 27.0793 146.844 28.6958 146.844 30.0818C146.844 31.4539 145.724 33.0843 143.781 33.0843ZM159.917 30.581C158.019 30.581 156.062 31.4224 155.252 33.2554L157.569 34.219C158.068 33.2554 158.982 32.9272 159.949 32.9272C161.302 32.9272 162.67 33.7372 162.702 35.1825V35.3676C162.234 35.1022 161.208 34.6973 159.98 34.6973C157.478 34.6973 154.942 36.0658 154.942 38.6319C154.942 40.9815 156.993 42.4898 159.279 42.4898C161.034 42.4898 162 41.6973 162.604 40.7791H162.698V42.1337H165.217V35.4304C165.217 32.3092 162.9 30.581 159.917 30.581ZM159.589 40.1646C158.734 40.1646 157.538 39.7456 157.538 38.6703C157.538 37.3157 159.031 36.8025 160.305 36.8025C161.456 36.8025 162 37.0504 162.684 37.3925C162.496 38.9636 161.17 40.1506 159.589 40.1646ZM174.407 30.9546L171.407 38.5446H171.312L168.204 30.9546H165.392L170.056 41.5646L167.398 47.4613H170.119L177.296 30.9546H174.407ZM150.884 42.1546H153.497V24.6564H150.884V42.1546Z" fill="#FDFDFD"/>
<path fill-rule="evenodd" clip-rule="evenodd" d="M15.4197 10.5454C15.015 10.9818 14.7812 11.6487 14.7812 12.5215V43.4786C14.7812 44.3514 15.015 45.0183 15.4337 45.4372L15.5419 45.5315L32.8753 28.1868V27.7993L15.5279 10.4512L15.4197 10.5454Z" fill="url(#paint0_linear_9939_20562)"/>
<path fill-rule="evenodd" clip-rule="evenodd" d="M38.6378 33.9868L32.8564 28.2017V27.7968L38.6378 22.0117L38.7634 22.0885L45.6019 25.9778C47.5593 27.081 47.5593 28.9035 45.6019 30.0207L38.7634 33.91L38.6378 33.9868Z" fill="url(#paint1_linear_9939_20562)"/>
<path fill-rule="evenodd" clip-rule="evenodd" d="M38.7636 33.9107L32.8567 28L15.415 45.4529C16.0535 46.1372 17.1247 46.214 18.3214 45.5471L38.7636 33.9107Z" fill="url(#paint2_linear_9939_20562)"/>
<path fill-rule="evenodd" clip-rule="evenodd" d="M38.7636 22.0894L18.3214 10.4705C17.1247 9.78618 16.05 9.88044 15.415 10.5647L32.8567 28.0001L38.7636 22.0894Z" fill="url(#paint3_linear_9939_20562)"/>
<path opacity="0.2" fill-rule="evenodd" clip-rule="evenodd" d="M38.6388 33.7852L18.3361 45.3273C17.2021 45.9801 16.1903 45.9347 15.5378 45.3412L15.4297 45.4495L15.5378 45.5437C16.1903 46.1337 17.2021 46.1826 18.3361 45.5298L38.7783 33.9108L38.6388 33.7852Z" fill="white"/>
<path opacity="0.12" fill-rule="evenodd" clip-rule="evenodd" d="M45.6036 29.819L38.6221 33.785L38.7477 33.9107L45.5862 30.0214C46.5666 29.4628 47.0481 28.7297 47.0481 28C46.9887 28.6703 46.4898 29.3057 45.6036 29.819Z" fill="white"/>
<path opacity="0.25" fill-rule="evenodd" clip-rule="evenodd" d="M18.3261 10.6732L45.6068 26.1814C46.493 26.6807 46.9919 27.3335 47.0687 28.0004C47.0687 27.2707 46.5872 26.5375 45.6068 25.9789L18.3261 10.4707C16.3688 9.35001 14.7812 10.2857 14.7812 12.5236V12.7261C14.7812 10.4847 16.3688 9.56646 18.3261 10.6732Z" fill="black"/>
<defs>
<linearGradient id="paint0_linear_9939_20562" x1="31.3205" y1="12.1875" x2="3.55295" y2="19.5814" gradientUnits="userSpaceOnUse">
<stop stop-color="#00A0FF"/>
<stop offset="0.00657" stop-color="#00A1FF"/>
<stop offset="0.2601" stop-color="#00BEFF"/>
<stop offset="0.5122" stop-color="#00D2FF"/>
<stop offset="0.7604" stop-color="#00DFFF"/>
<stop offset="1" stop-color="#00E3FF"/>
</linearGradient>
<linearGradient id="paint1_linear_9939_20562" x1="48.1545" y1="27.9993" x2="14.3005" y2="27.9993" gradientUnits="userSpaceOnUse">
<stop stop-color="#FFE000"/>
<stop offset="0.4087" stop-color="#FFBD00"/>
<stop offset="0.7754" stop-color="#FFA500"/>
<stop offset="1" stop-color="#FF9C00"/>
</linearGradient>
<linearGradient id="paint2_linear_9939_20562" x1="35.5516" y1="31.2163" x2="13.2406" y2="68.7434" gradientUnits="userSpaceOnUse">
<stop stop-color="#FF3A44"/>
<stop offset="1" stop-color="#C31162"/>
</linearGradient>
<linearGradient id="paint3_linear_9939_20562" x1="11.023" y1="0.250449" x2="20.9769" y2="17.0106" gradientUnits="userSpaceOnUse">
<stop stop-color="#32A071"/>
<stop offset="0.0685" stop-color="#2DA771"/>
<stop offset="0.4762" stop-color="#15CF74"/>
<stop offset="0.8009" stop-color="#06E775"/>
<stop offset="1" stop-color="#00F076"/>
</linearGradient>
</defs>
</svg>
