<svg width="26" height="24" viewBox="0 0 26 24" fill="none" xmlns="http://www.w3.org/2000/svg">
<path d="M9.55188 20.5117C8.38719 20.5117 7.28875 20.1402 6.37531 19.437C6.20412 19.3052 6.04121 19.1629 5.8875 19.0111C4.82125 17.9573 4.28469 16.5539 4.37688 15.0592C4.44656 13.9295 4.90156 12.8405 5.65875 11.9927C6.66156 10.8698 8.04406 10.2514 9.55219 10.2514C9.81125 10.2514 10.0728 10.2708 10.3303 10.3089L10.7303 10.3683V13.918L10.1144 13.7145C9.93545 13.6553 9.74818 13.6251 9.55969 13.6252C9.08281 13.6252 8.63625 13.812 8.30219 14.1511C7.96969 14.4886 7.79063 14.9348 7.7975 15.4083C7.80656 16.0186 8.12813 16.5717 8.6575 16.8886C8.90125 17.0342 9.17875 17.1195 9.46063 17.1352C9.68313 17.1473 9.90281 17.1183 10.1141 17.0486C10.8363 16.8102 11.3216 16.1402 11.3216 15.3817L11.3247 11.7005V4.51172H14.7172L14.7213 4.97609C14.7231 5.18641 14.7447 5.39672 14.7853 5.60047C14.9447 6.40172 15.3941 7.11578 16.0506 7.61078C16.6334 8.05047 17.3291 8.28266 18.0616 8.28266C18.0788 8.28266 18.0788 8.28266 18.2353 8.29359L18.6713 8.32422V11.668L18.515 11.6677H18.0434C17.14 11.6677 16.2934 11.4955 15.4544 11.1414C15.2044 11.0358 14.9609 10.9152 14.7259 10.7805L14.7366 15.3995C14.7309 16.7658 14.1909 18.0473 13.2163 19.0108C12.4253 19.7923 11.4272 20.2917 10.3297 20.4542C10.0722 20.4925 9.81221 20.5117 9.55188 20.5117ZM9.55188 11.1889C8.31469 11.1889 7.18031 11.6961 6.35781 12.617C5.74031 13.3086 5.36906 14.1964 5.31219 15.1167C5.23719 16.337 5.67531 17.4833 6.54625 18.3439C6.67219 18.4683 6.80688 18.5861 6.94688 18.6939C7.695 19.2698 8.59594 19.5742 9.55188 19.5742C9.76625 19.5742 9.98156 19.5583 10.1925 19.527C11.0916 19.3939 11.9094 18.9848 12.5575 18.3442C13.3538 17.5573 13.7947 16.5114 13.7994 15.3989L13.7847 8.94922L14.5419 9.53328C14.934 9.83544 15.3633 10.0858 15.8194 10.2783C16.4434 10.5417 17.0725 10.688 17.7334 10.7227V9.20859C16.9166 9.14734 16.145 8.85703 15.4859 8.35984C14.6453 7.72609 14.07 6.81109 13.8656 5.78391C13.8438 5.67359 13.8259 5.56203 13.8128 5.44953H12.2619V11.7008L12.2588 15.382C12.2588 16.5455 11.515 17.573 10.4078 17.9386C10.085 18.0452 9.74906 18.0895 9.40906 18.0711C8.97594 18.0473 8.54969 17.9164 8.17594 17.693C7.36563 17.2083 6.87344 16.3592 6.85969 15.422C6.84906 14.6958 7.12375 14.0108 7.63375 13.493C8.14531 12.9736 8.82906 12.6877 9.55906 12.6877C9.63719 12.6877 9.71469 12.6911 9.79219 12.6977V11.1955C9.71219 11.1911 9.63188 11.1889 9.55188 11.1889Z" fill="white"/>
</svg>
