<svg xmlns="http://www.w3.org/2000/svg" width="35.828" height="46.558" viewBox="0 0 35.828 46.558"><g transform="translate(-59)"><g transform="translate(59 28.189)"><path d="M93.009,328.368a1.819,1.819,0,0,1-1.819-1.819,12.927,12.927,0,0,0-12.912-12.912H75.55A12.927,12.927,0,0,0,62.637,326.55a1.819,1.819,0,1,1-3.637,0A16.569,16.569,0,0,1,75.55,310h2.728a16.569,16.569,0,0,1,16.55,16.55A1.819,1.819,0,0,1,93.009,328.368Z" transform="translate(-59 -310)" fill="#969696"/></g><g transform="translate(64.456)"><path d="M131.276,24.552a12.276,12.276,0,1,1,12.276-12.276A12.29,12.29,0,0,1,131.276,24.552Zm0-20.915a8.639,8.639,0,1,0,8.639,8.639A8.648,8.648,0,0,0,131.276,3.637Z" transform="translate(-119)" fill="#969696"/></g></g></svg>