<svg xmlns="http://www.w3.org/2000/svg" viewBox="0 0 15 18" width="15" height="18">
	<style>
		tspan { white-space:pre }
		.shp0 { fill: #878787 } 
	</style>
	<g id="Layer">
		<g id="Layer">
			<path id="Layer" fill-rule="evenodd" class="shp0" d="M13.26 3.13C14.62 5.11 14.94 7.61 14.1 9.83C14.04 9.99 13.97 10.15 13.9 10.3C13.82 10.45 13.74 10.6 13.65 10.75C13.56 10.89 13.47 11.03 13.37 11.17C13.27 11.31 13.16 11.44 13.05 11.57L7.76 17.78C7.7 17.85 7.63 17.9 7.55 17.94C7.46 17.98 7.37 18 7.28 18C7.19 18 7.1 17.98 7.02 17.94C6.94 17.9 6.86 17.85 6.8 17.78L1.52 11.57C1.04 11.02 0.69 10.43 0.46 9.83C-0.38 7.61 -0.06 5.11 1.31 3.13C2.68 1.14 4.86 0 7.28 0C9.7 0 11.88 1.14 13.26 3.13ZM12.92 9.39C13.09 8.94 13.21 8.46 13.26 7.98C13.32 7.5 13.32 7.01 13.25 6.53C13.19 6.05 13.08 5.58 12.9 5.13C12.73 4.67 12.5 4.24 12.22 3.84C11.09 2.2 9.29 1.26 7.28 1.26C6.8 1.26 6.31 1.31 5.84 1.42C5.37 1.54 4.92 1.71 4.49 1.93C4.06 2.16 3.66 2.44 3.3 2.76C2.94 3.08 2.61 3.45 2.34 3.85C1.21 5.48 0.95 7.56 1.64 9.39C1.69 9.51 1.74 9.63 1.8 9.75C1.86 9.87 1.93 9.99 1.99 10.11C2.06 10.22 2.14 10.33 2.22 10.44C2.3 10.55 2.38 10.65 2.47 10.75L7.28 16.4L12.09 10.75L12.09 10.75C12.18 10.65 12.26 10.55 12.34 10.44C12.42 10.33 12.5 10.22 12.57 10.11C12.64 9.99 12.7 9.88 12.76 9.76C12.82 9.64 12.87 9.51 12.92 9.39Z" />
		</g>
		<g id="Layer">
			<path id="Layer" fill-rule="evenodd" class="shp0" d="M7.28 3.73C7.74 3.74 8.2 3.83 8.63 4C9.06 4.18 9.45 4.44 9.77 4.77C10.1 5.1 10.36 5.48 10.54 5.91C10.71 6.34 10.81 6.8 10.81 7.26C10.81 7.72 10.71 8.18 10.54 8.61C10.36 9.04 10.1 9.42 9.77 9.75C9.45 10.08 9.06 10.34 8.63 10.51C8.2 10.69 7.74 10.78 7.28 10.78C6.82 10.78 6.36 10.69 5.93 10.51C5.51 10.34 5.12 10.08 4.79 9.75C4.46 9.42 4.2 9.04 4.03 8.61C3.85 8.18 3.76 7.72 3.76 7.26C3.76 6.8 3.85 6.34 4.03 5.91C4.2 5.48 4.46 5.1 4.79 4.77C5.12 4.44 5.51 4.18 5.93 4C6.36 3.83 6.82 3.73 7.28 3.73L7.28 3.73ZM7.28 9.53C7.58 9.52 7.87 9.47 8.15 9.35C8.42 9.24 8.67 9.07 8.88 8.86C9.09 8.65 9.26 8.4 9.37 8.13C9.49 7.85 9.55 7.56 9.55 7.26C9.55 6.96 9.49 6.67 9.37 6.39C9.26 6.12 9.09 5.87 8.88 5.66C8.67 5.45 8.42 5.28 8.15 5.17C7.87 5.05 7.58 4.99 7.28 4.99C6.98 4.99 6.69 5.05 6.42 5.17C6.14 5.28 5.89 5.45 5.68 5.66C5.47 5.87 5.3 6.12 5.19 6.39C5.08 6.67 5.02 6.96 5.02 7.26C5.02 7.56 5.08 7.85 5.19 8.13C5.3 8.4 5.47 8.65 5.68 8.86C5.89 9.07 6.14 9.24 6.42 9.35C6.69 9.47 6.98 9.52 7.28 9.52L7.28 9.53Z" />
		</g>
	</g>
</svg>