<svg xmlns="http://www.w3.org/2000/svg" width="13" height="9" viewBox="0 0 13 9"><g><g><path fill="#363636" d="M6.576 8.008a.79.79 0 0 1-.56-.232L1.151 2.91a.792.792 0 1 1 1.12-1.12l4.305 4.305 4.305-4.305a.792.792 0 0 1 1.12 1.12L7.138 7.777a.79.79 0 0 1-.56.232z"/><path fill="none" stroke="#fff" stroke-miterlimit="20" stroke-width=".5" d="M6.576 8.008a.79.79 0 0 1-.56-.232L1.151 2.91a.792.792 0 1 1 1.12-1.12l4.305 4.305v0l4.305-4.305a.792.792 0 0 1 1.12 1.12L7.138 7.777a.79.79 0 0 1-.56.232z"/></g></g></svg>