<svg xmlns="http://www.w3.org/2000/svg" width="50.151" height="29.255" viewBox="0 0 50.151 29.255"><g transform="translate(0 -106.666)"><g transform="translate(0 106.666)"><path d="M51.087,172.234a1.043,1.043,0,0,0-1.426-.383l-.243.14v-.28a1.045,1.045,0,0,0-2.09,0v.28l-.243-.14a1.045,1.045,0,0,0-1.045,1.81l.242.14-.242.14a1.045,1.045,0,0,0,1.045,1.81l.243-.14v.28a1.045,1.045,0,0,0,2.09,0v-.28l.243.14a1.045,1.045,0,0,0,1.045-1.81l-.242-.14.242-.14A1.044,1.044,0,0,0,51.087,172.234Z" transform="translate(-41.059 -164.398)" fill="#969696"/><path d="M136.42,172.234a1.043,1.043,0,0,0-1.426-.383l-.243.14v-.28a1.045,1.045,0,0,0-2.09,0v.28l-.243-.14a1.045,1.045,0,0,0-1.045,1.81l.242.14-.242.14a1.045,1.045,0,0,0,1.045,1.81l.243-.14v.28a1.045,1.045,0,0,0,2.09,0v-.28l.243.14a1.045,1.045,0,0,0,1.045-1.81l-.242-.14.242-.14A1.043,1.043,0,0,0,136.42,172.234Z" transform="translate(-118.034 -164.398)" fill="#969696"/><path d="M221.754,172.233a1.044,1.044,0,0,0-1.426-.383l-.243.14v-.28a1.045,1.045,0,0,0-2.09,0v.28l-.243-.14a1.045,1.045,0,0,0-1.045,1.81l.242.14-.242.14a1.045,1.045,0,0,0,1.045,1.81l.243-.14v.28a1.045,1.045,0,0,0,2.09,0v-.28l.243.14a1.045,1.045,0,0,0,1.045-1.81l-.242-.14.242-.14A1.043,1.043,0,0,0,221.754,172.233Z" transform="translate(-195.009 -164.397)" fill="#969696"/><path d="M45.972,115.57v-4.724a4.184,4.184,0,0,0-4.179-4.179H4.179A4.184,4.184,0,0,0,0,110.845v10.448a4.184,4.184,0,0,0,4.179,4.179H27.218a11.49,11.49,0,1,0,18.754-9.9ZM4.179,123.383a2.092,2.092,0,0,1-2.09-2.09V110.845a2.092,2.092,0,0,1,2.09-2.09H41.793a2.092,2.092,0,0,1,2.09,2.09V114.2a11.388,11.388,0,0,0-10.448,0v-.224a1.045,1.045,0,1,0-2.09,0v.28l-.243-.14a1.045,1.045,0,0,0-1.045,1.81l.242.14-.242.14a1.029,1.029,0,0,0-.465,1.181,11.421,11.421,0,0,0-2.374,5.993Zm34.479,10.448a9.4,9.4,0,1,1,9.4-9.4A9.414,9.414,0,0,1,38.658,133.831Z" transform="translate(0 -106.666)" fill="#969696"/><path d="M341.421,245.64l-6.575,6.575-2.4-2.4a1.045,1.045,0,0,0-1.477,1.477l3.134,3.134a1.045,1.045,0,0,0,1.477,0l7.314-7.314a1.045,1.045,0,1,0-1.478-1.477Z" transform="translate(-298.277 -231.751)" fill="#969696"/></g></g></svg>