<svg xmlns="http://www.w3.org/2000/svg" width="18" height="18" viewBox="0 0 18 18"><defs><clipPath id="1ncka"><path fill="#fff" d="M0 9a9 9 0 1 1 18 0A9 9 0 0 1 0 9z"/></clipPath></defs><g><g><path fill="#fff" d="M0 9a9 9 0 1 1 18 0A9 9 0 0 1 0 9z"/><path fill="none" stroke="#ffeacf" stroke-miterlimit="20" stroke-width="2" d="M0 9a9 9 0 1 1 18 0A9 9 0 0 1 0 9z" clip-path="url(&quot;#1ncka&quot;)"/></g><g><path fill="#fb0" d="M13.825 7.695a.514.514 0 0 0-.443-.354l-2.798-.254L9.48 4.498a.515.515 0 0 0-.948 0L7.425 7.087l-2.798.254a.516.516 0 0 0-.293.901l2.115 1.854-.623 2.747a.515.515 0 0 0 .766.557l2.412-1.443 2.412 1.443a.515.515 0 0 0 .767-.557l-.623-2.747 2.115-1.854a.516.516 0 0 0 .15-.547z"/></g></g></svg>