<svg width="23" height="21" viewBox="0 0 23 21" fill="none" xmlns="http://www.w3.org/2000/svg">
<path fill-rule="evenodd" clip-rule="evenodd" d="M19.505 8.99916C18.9523 8.99916 18.5044 9.44713 18.5044 9.99974V17.0041C18.5044 17.5567 18.0564 18.0047 17.5038 18.0047H3.49498C2.94235 18.0047 2.49435 17.5567 2.49435 17.0041V8.99916C2.49435 8.44654 2.94235 7.99857 3.49498 7.99857H5.49623C5.94466 8.02194 6.35377 7.74373 6.49685 7.3181L7.0372 5.67706C7.17485 5.2695 7.55759 4.99553 7.98779 4.99664H13.5013C14.0539 4.99664 14.5019 4.54864 14.5019 3.99601C14.5019 3.44339 14.0539 2.99538 13.5013 2.99538H7.93775C6.64824 2.9978 5.50432 3.82351 5.09597 5.04668L4.77577 6.04729H3.49498C1.83708 6.04729 0.493103 7.39129 0.493103 9.04921V17.0542C0.493103 18.712 1.83708 20.0561 3.49498 20.0561H17.5038C19.1616 20.0561 20.5055 18.712 20.5055 17.0542V10.0498C20.5193 9.77589 20.42 9.50832 20.2308 9.30963C20.0416 9.11108 19.7793 8.99874 19.505 8.99916ZM10.4994 7.99857C8.28883 7.99857 6.49685 9.79047 6.49685 12.0011C6.49685 14.2115 8.28883 16.0035 10.4994 16.0035C12.7098 16.0035 14.5019 14.2115 14.5019 12.0011C14.5019 10.9394 14.0802 9.92137 13.3296 9.17076C12.5789 8.42015 11.5609 7.99857 10.4994 7.99857ZM10.4994 14.0022C9.39403 14.0022 8.49811 13.1063 8.49811 12.0011C8.49811 10.8957 9.39403 9.99974 10.4994 9.99974C11.6046 9.99974 12.5006 10.8957 12.5006 12.0011C12.5006 13.1063 11.6046 14.0022 10.4994 14.0022ZM21.5063 2.99538H20.5055V1.99477C20.5055 1.44213 20.0576 0.994141 19.505 0.994141C18.9523 0.994141 18.5044 1.44213 18.5044 1.99477V2.99538H17.5038C16.9512 2.99538 16.5031 3.44339 16.5031 3.99601C16.5031 4.54864 16.9512 4.99664 17.5038 4.99664H18.5044V5.99727C18.5044 6.5499 18.9523 6.99789 19.505 6.99789C20.0576 6.99789 20.5055 6.5499 20.5055 5.99727V4.99664H21.5063C22.0589 4.99664 22.5069 4.54864 22.5069 3.99601C22.5069 3.44339 22.0589 2.99538 21.5063 2.99538Z" fill="#177AE2"/>
</svg>
