<svg xmlns="http://www.w3.org/2000/svg" width="27" height="20" viewBox="0 0 27 20"><g><g><path fill="#878787" d="M2.686 5.5V3.7a.9.9 0 0 1 .9-.9h19.8a.9.9 0 0 1 .9.9v1.8zm21.6 3.6h-21.6V7.3h21.6zm0 7.2a.9.9 0 0 1-.9.9h-19.8a.9.9 0 0 1-.9-.9v-5.4h21.6zm-.9-15.3h-19.8a2.7 2.7 0 0 0-2.7 2.7v12.6a2.7 2.7 0 0 0 2.7 2.7h19.8a2.7 2.7 0 0 0 2.7-2.7V3.7a2.7 2.7 0 0 0-2.7-2.7z"/><path fill="none" stroke="#fff" stroke-miterlimit="20" stroke-width=".4" d="M2.686 5.5V3.7a.9.9 0 0 1 .9-.9h19.8a.9.9 0 0 1 .9.9v1.8zm21.6 3.6h-21.6V7.3h21.6zm0 7.2a.9.9 0 0 1-.9.9h-19.8a.9.9 0 0 1-.9-.9v-5.4h21.6zm-.9-15.3h-19.8a2.7 2.7 0 0 0-2.7 2.7v12.6a2.7 2.7 0 0 0 2.7 2.7h19.8a2.7 2.7 0 0 0 2.7-2.7V3.7a2.7 2.7 0 0 0-2.7-2.7z"/></g><g><path fill="#878787" d="M21.586 12.7h-3.6a.9.9 0 1 0 0 1.8h3.6a.9.9 0 1 0 0-1.8z"/><path fill="none" stroke="#fff" stroke-miterlimit="20" stroke-width=".4" d="M21.586 12.7h-3.6a.9.9 0 1 0 0 1.8h3.6a.9.9 0 1 0 0-1.8z"/></g></g></svg>