<svg xmlns="http://www.w3.org/2000/svg" width="23" height="23" viewBox="0 0 23 23"><g><g><path fill="#b8b8b8" d="M20.664 11.895c0 5.27-4.288 9.559-9.559 9.559-5.27 0-9.559-4.288-9.559-9.559 0-5.27 4.288-9.559 9.559-9.559 5.27 0 9.559 4.288 9.559 9.56zm1.593 0c0-6.15-5.003-11.152-11.152-11.152C4.955.743-.047 5.746-.047 11.895c0 6.15 5.003 11.152 11.152 11.152 6.15 0 11.152-5.003 11.152-11.152z"/></g><g><path fill="#b8b8b8" d="M14.557 16.037a.688.688 0 0 1-.488-.202L7.165 8.93a.69.69 0 1 1 .976-.976l6.904 6.904a.69.69 0 0 1-.488 1.178z"/></g><g><path fill="#b8b8b8" d="M7.653 16.037a.69.69 0 0 1-.488-1.179l6.904-6.903a.69.69 0 1 1 .976.976L8.14 15.835a.688.688 0 0 1-.488.202z"/></g></g></svg>