<svg xmlns="http://www.w3.org/2000/svg" width="21" height="18" viewBox="0 0 21 18"><g><g><path fill="#878787" d="M16.724 7.248v9.454h-3.57v-4.09a.649.649 0 0 0-.649-.648H7.94a.649.649 0 0 0-.649.649v4.089H3.743V7.248H2.445V17.35c0 .358.29.649.649.649H7.94c.359 0 .65-.29.65-.65v-4.088h3.266v4.089c0 .358.29.649.649.649h4.868c.358 0 .649-.29.649-.649V7.248z"/></g><g><path fill="#878787" d="M20.088 8.98L10.677.175a.65.65 0 0 0-.883-.004L.21 8.976a.649.649 0 1 0 .878.956l9.141-8.398 8.972 8.394a.649.649 0 1 0 .887-.948z"/></g></g></svg>