<svg width="24" height="24" viewBox="0 0 24 24" fill="none" xmlns="http://www.w3.org/2000/svg">
<path fill-rule="evenodd" clip-rule="evenodd" d="M17.6036 5.99634H6.39662C5.0703 5.99634 3.99512 7.07153 3.99512 8.39784V15.6023C3.99512 16.9286 5.0703 18.0038 6.39662 18.0038H17.6036C18.9299 18.0038 20.0051 16.9286 20.0051 15.6023V8.39784C20.0051 7.07153 18.9299 5.99634 17.6036 5.99634ZM18.4041 15.6023C18.4041 16.0444 18.0457 16.4028 17.6036 16.4028H6.39662C5.95451 16.4028 5.59612 16.0444 5.59612 15.6023V10.7993H18.4041V15.6023ZM18.4041 9.19834H5.59612V8.39784C5.59612 7.95573 5.95451 7.59734 6.39662 7.59734H17.6036C18.0457 7.59734 18.4041 7.95573 18.4041 8.39784V9.19834Z" fill="#177AE2"/>
<path d="M10.399 14.0011H7.99751C7.55541 14.0011 7.19702 13.6427 7.19702 13.2006C7.19702 12.7585 7.55541 12.4001 7.99751 12.4001H10.399C10.8411 12.4001 11.1995 12.7585 11.1995 13.2006C11.1995 13.6427 10.8411 14.0011 10.399 14.0011Z" fill="#31CDCD"/>
</svg>
