<svg xmlns="http://www.w3.org/2000/svg" width="14" height="14" viewBox="0 0 14 14"><g><g><path fill="#363636" d="M3.983 2.514a.537.537 0 1 1 .002-1.074.537.537 0 0 1-.002 1.074zm8.548-1.006H5.38A1.477 1.477 0 0 0 3.983.502c-.649 0-1.201.422-1.398 1.006H1.47a.47.47 0 0 0 0 .939h1.116a1.477 1.477 0 0 0 1.398 1.006c.65 0 1.202-.422 1.398-1.006h7.15a.47.47 0 0 0 0-.939z"/><path fill="none" stroke="#363636" stroke-miterlimit="20" stroke-width=".3" d="M3.983 2.514a.537.537 0 1 1 .002-1.074.537.537 0 0 1-.002 1.074zm8.548-1.006H5.38A1.477 1.477 0 0 0 3.983.502c-.649 0-1.201.422-1.398 1.006H1.47a.47.47 0 0 0 0 .939h1.116a1.477 1.477 0 0 0 1.398 1.006c.65 0 1.202-.422 1.398-1.006h7.15a.47.47 0 0 0 0-.939z"/></g><g><path fill="#363636" d="M10.017 7.539a.537.537 0 1 1 0-1.074.537.537 0 0 1 0 1.074zm2.514-1.006h-1.116a1.477 1.477 0 0 0-1.398-1.006c-.65 0-1.202.422-1.398 1.006h-7.15a.47.47 0 0 0 0 .939h7.15a1.477 1.477 0 0 0 1.398 1.005c.649 0 1.201-.421 1.398-1.005h1.116a.47.47 0 0 0 0-.94z"/><path fill="none" stroke="#363636" stroke-miterlimit="20" stroke-width=".3" d="M10.017 7.539a.537.537 0 1 1 0-1.074.537.537 0 0 1 0 1.074zm2.514-1.006h-1.116a1.477 1.477 0 0 0-1.398-1.006c-.65 0-1.202.422-1.398 1.006h-7.15a.47.47 0 0 0 0 .939h7.15a1.477 1.477 0 0 0 1.398 1.005c.649 0 1.201-.421 1.398-1.005h1.116a.47.47 0 0 0 0-.94z"/></g><g><path fill="#363636" d="M5.994 12.563a.537.537 0 1 1 .002-1.073.537.537 0 0 1-.002 1.073zm6.537-1.005H7.392a1.477 1.477 0 0 0-1.398-1.006c-.649 0-1.201.422-1.398 1.006H1.47a.47.47 0 0 0 0 .939h3.127a1.477 1.477 0 0 0 1.398 1.005c.65 0 1.202-.422 1.398-1.005h5.139a.47.47 0 0 0 0-.94z"/><path fill="none" stroke="#363636" stroke-miterlimit="20" stroke-width=".3" d="M5.994 12.563a.537.537 0 1 1 .002-1.073.537.537 0 0 1-.002 1.073zm6.537-1.005H7.392a1.477 1.477 0 0 0-1.398-1.006c-.649 0-1.201.422-1.398 1.006H1.47a.47.47 0 0 0 0 .939h3.127a1.477 1.477 0 0 0 1.398 1.005c.65 0 1.202-.422 1.398-1.005h5.139a.47.47 0 0 0 0-.94z"/></g></g></svg>