<svg xmlns="http://www.w3.org/2000/svg" width="19" height="18" viewBox="0 0 19 18"><g><g><path fill="#878787" d="M14.577 9.805v6.987H3.785V9.805H2.577v7.591c0 .334.27.604.604.604h12c.334 0 .604-.27.604-.604v-7.59z"/></g><g><path fill="#878787" d="M18.104 11.041l-8.577-5.98a.604.604 0 0 0-.691 0l-8.577 5.98a.604.604 0 0 0 .69.991l8.232-5.738 8.232 5.738a.602.602 0 0 0 .84-.15.604.604 0 0 0-.15-.84z"/></g><g><path fill="#878787" d="M10.973 13.127H7.39a.604.604 0 0 0-.604.604v3.665h1.208v-3.06h2.376v3.06h1.208v-3.665a.604.604 0 0 0-.604-.604z"/></g><g><path fill="#878787" d="M4.691 8.255V3.342H5.9v4.913z"/></g><g><path fill="#878787" d="M12.463 8.255V3.342h1.208v4.913z"/></g><g><path fill="#878787" d="M15.064 3.975L9.527.109a.604.604 0 0 0-.691 0L3.299 3.975a.604.604 0 0 0 .691.99l5.191-3.624 5.191 3.624a.6.6 0 0 0 .842-.15.604.604 0 0 0-.15-.84z"/></g></g></svg>