<svg width="17" height="17" viewBox="0 0 17 17" fill="none" xmlns="http://www.w3.org/2000/svg">
<path fill-rule="evenodd" clip-rule="evenodd" d="M8.005 0C3.58396 0 0 3.58396 0 8.00498C0 12.4261 3.58396 16.01 8.005 16.01C12.426 16.01 16.01 12.4261 16.01 8.00498C16.01 5.88194 15.1666 3.84584 13.6654 2.34461C12.1642 0.84338 10.1281 0 8.005 0ZM8.005 14.409C4.46817 14.409 1.601 11.5418 1.601 8.00498C1.601 4.46817 4.46817 1.601 8.005 1.601C11.5418 1.601 14.409 4.46817 14.409 8.00498C14.409 9.70348 13.7343 11.3323 12.5333 12.5333C11.3323 13.7343 9.7034 14.409 8.005 14.409Z" fill="#177AE2"/>
<path d="M7.34067 10.7586C7.37017 10.7167 7.40227 10.6766 7.43667 10.6386C7.58707 10.487 7.79167 10.4018 8.00507 10.4018C8.21847 10.4018 8.42317 10.487 8.57347 10.6386C8.72327 10.7896 8.80677 10.9941 8.80557 11.2069C8.80937 11.3105 8.79307 11.4138 8.75757 11.5111C8.68477 11.7122 8.52637 11.8706 8.32527 11.9434C8.13157 12.029 7.91067 12.029 7.71687 11.9434C7.51577 11.8706 7.35737 11.7122 7.28467 11.5111C7.23977 11.4161 7.21787 11.3119 7.22057 11.2069C7.21667 11.1536 7.21667 11.1001 7.22057 11.0468C7.22937 10.9967 7.24557 10.9481 7.26857 10.9027C7.28617 10.8517 7.31037 10.8033 7.34067 10.7586Z" fill="#31CDCD"/>
<path d="M5.92377 5.20319C6.35307 4.45968 7.14657 4.00189 8.00507 4.00244C9.16737 4.01146 10.1565 4.85162 10.3533 5.9972C10.5501 7.14282 9.89827 8.26492 8.80557 8.66132V8.80542C8.80557 9.24752 8.44717 9.60592 8.00507 9.60592C7.56297 9.60592 7.20457 9.24752 7.20457 8.80542V8.00492C7.20457 7.56282 7.56297 7.20442 8.00507 7.20442C8.44717 7.20442 8.80557 6.84602 8.80557 6.40392C8.80557 5.96183 8.44717 5.60344 8.00507 5.60344C7.71797 5.6023 7.45217 5.75502 7.30867 6.00369C7.17237 6.26422 6.90417 6.42912 6.61017 6.43302C6.31617 6.43702 6.04357 6.27952 5.90032 6.02272C5.75702 5.76599 5.76603 5.45133 5.92377 5.20319Z" fill="#31CDCD"/>
</svg>
