<svg xmlns="http://www.w3.org/2000/svg" width="20" height="12" viewBox="0 0 20 12"><g><g><g><g><g><path fill="#d4d4d4" d="M10 10.541c-3.695 0-6.894-3.514-7.841-4.663.946-1.15 4.138-4.662 7.84-4.662 3.694 0 6.894 3.514 7.841 4.663-.946 1.15-4.139 4.662-7.84 4.662zm9.106-5.021C18.94 5.294 15.014 0 9.999 0S1.058 5.294.893 5.52a.609.609 0 0 0 0 .718c.165.225 4.091 5.52 9.106 5.52s8.942-5.295 9.107-5.52a.608.608 0 0 0 0-.718z"/></g></g></g><g><g><g><path fill="#d4d4d4" d="M10 8.311A2.435 2.435 0 0 1 7.566 5.88a2.435 2.435 0 0 1 2.432-2.433 2.435 2.435 0 0 1 2.433 2.433A2.435 2.435 0 0 1 9.999 8.31zm0-6.081a3.653 3.653 0 0 0-3.65 3.649A3.653 3.653 0 0 0 10 9.528a3.653 3.653 0 0 0 3.648-3.65A3.653 3.653 0 0 0 10 2.23z"/></g></g></g></g></g></svg>