<svg width="24" height="24" viewBox="0 0 24 24" fill="none" xmlns="http://www.w3.org/2000/svg">
<path fill-rule="evenodd" clip-rule="evenodd" d="M19.7329 10.5991L12.5284 4.19508C12.2262 3.9296 11.774 3.9296 11.4718 4.19508L4.26723 10.5991C4.01645 10.8209 3.93022 11.1754 4.05109 11.4876C4.16991 11.7956 4.46552 11.999 4.79556 12H5.59606V19.2045C5.59606 19.6466 5.95445 20.005 6.39656 20.005H17.6036C18.0457 20.005 18.4041 19.6466 18.4041 19.2045V12H19.2046C19.5346 11.999 19.8302 11.7956 19.9491 11.4876C20.0699 11.1754 19.9837 10.8209 19.7329 10.5991ZM12.8006 18.404H11.1996V16.0025C11.1996 15.5604 11.558 15.202 12.0001 15.202C12.4422 15.202 12.8006 15.5604 12.8006 16.0025V18.404ZM16.8031 18.404H14.4016V16.0025C14.4016 14.6761 13.3264 13.601 12.0001 13.601C10.6738 13.601 9.59856 14.6761 9.59856 16.0025V18.404H7.19706V12H16.8031V18.404ZM6.90087 10.399L12.0001 5.86813L17.0993 10.399H6.90087Z" fill="#177AE2"/>
<path d="M11.1996 18.404V16.0025C11.1996 15.5604 11.558 15.202 12.0001 15.202C12.4422 15.202 12.8006 15.5604 12.8006 16.0025V18.404H14.4016V16.0025C14.4016 14.6761 13.3264 13.601 12.0001 13.601C10.6738 13.601 9.59863 14.6761 9.59863 16.0025V18.404H11.1996Z" fill="#31CDCD"/>
</svg>
