<svg xmlns="http://www.w3.org/2000/svg" width="18" height="18" viewBox="0 0 18 18">
  <g id="Group_894" data-name="Group 894" transform="translate(-1096 909)">
    <g id="x-mark_1_" data-name="x-mark (1)" transform="translate(1096 -909)">
      <path id="Path_2374" data-name="Path 2374" d="M9,18a9,9,0,1,1,9-9A9.01,9.01,0,0,1,9,18ZM9,1.286A7.714,7.714,0,1,0,16.714,9,7.723,7.723,0,0,0,9,1.286Zm0,0" fill="#b8b8b8"/>
    </g>
    <g id="checked_1_" data-name="checked (1)" transform="translate(1021.93 -1017.2)">
      <g id="Group_893" data-name="Group 893" transform="translate(79.07 115.2)">
        <path id="Path_6420" data-name="Path 6420" d="M92.086,115.257l-4.908,4.877a.6.6,0,0,1-.843.015l-2.069-1.885a.621.621,0,0,1-.046-.858.606.606,0,0,1,.858-.031l1.64,1.5,4.494-4.494a.618.618,0,1,1,.873.873Z" transform="translate(-84.07 -115.2)" fill="#b8b8b8"/>
      </g>
    </g>
  </g>
</svg>
