<svg xmlns="http://www.w3.org/2000/svg" width="8" height="9" viewBox="0 0 8 9"><g><g><g><path fill="#878787" d="M4 7.875A3.276 3.276 0 0 1 .727 4.602 3.276 3.276 0 0 1 4 1.33a3.276 3.276 0 0 1 3.273 3.273A3.276 3.276 0 0 1 4 7.875zM4 .602c-2.206 0-4 1.794-4 4s1.794 4 4 4 4-1.794 4-4-1.794-4-4-4z"/></g><g><path fill="#878787" d="M4 2.299A.485.485 0 1 0 4 3.27.485.485 0 0 0 4 2.299z"/></g><g><path fill="#878787" d="M4 3.996c-.2 0-.364.163-.364.364V6.54a.364.364 0 1 0 .728 0V4.36c0-.201-.163-.364-.364-.364z"/></g></g></g></svg>