<svg xmlns="http://www.w3.org/2000/svg" width="23" height="23" viewBox="0 0 23 23"><g><g><g><path fill="#01b9ff" d="M17.687.5H5.312A4.813 4.813 0 0 0 .499 5.311v12.375a4.812 4.812 0 0 0 4.813 4.812h12.375a4.812 4.812 0 0 0 4.812-4.812V5.312A4.812 4.812 0 0 0 17.687.499z"/></g><g><path fill="#fff" d="M7.374 5.312H6a.687.687 0 0 0-.687.687v1.375c0 .38.307.688.687.688h1.375c.38 0 .688-.308.688-.688V6a.687.687 0 0 0-.688-.687z"/></g><g><path fill="#fff" d="M7.374 10.124H6a.687.687 0 0 0-.687.688v1.375c0 .38.307.687.687.687h1.375c.38 0 .688-.308.688-.687v-1.375a.687.687 0 0 0-.688-.688z"/></g><g><path fill="#fff" d="M7.374 14.937H6a.687.687 0 0 0-.687.687V17c0 .38.307.688.687.688h1.375c.38 0 .688-.308.688-.688v-1.375a.687.687 0 0 0-.688-.687z"/></g><g><path fill="#fff" d="M9.87 7.425v-1.63h8.147v1.63z"/></g><g><path fill="#fff" d="M9.87 12.314v-1.63h8.147v1.63z"/></g><g><path fill="#fff" d="M9.87 17.203v-1.63h8.147v1.63z"/></g></g></g></svg>