<svg xmlns="http://www.w3.org/2000/svg" width="15" height="18" viewBox="0 0 15 18"><g><g><path fill="#878787" d="M13.5 15.75a.75.75 0 0 1-.75.75H2.25a.75.75 0 0 1-.75-.75v-7.5a.75.75 0 0 1 .75-.75h10.5a.75.75 0 0 1 .75.75zM3.75 5.25A3.754 3.754 0 0 1 7.5 1.5a3.754 3.754 0 0 1 3.75 3.75V6h-7.5zm9 .75v-.75A5.256 5.256 0 0 0 7.5 0a5.256 5.256 0 0 0-5.25 5.25V6C1.01 6 0 7.01 0 8.25v7.5C0 16.99 1.01 18 2.25 18h10.5c1.24 0 2.25-1.01 2.25-2.25v-7.5C15 7.01 13.99 6 12.75 6z"/></g><g><path fill="#878787" d="M7.5 11.625a.75.75 0 1 1 .001-1.501.75.75 0 0 1-.001 1.501zm0-3c-1.24 0-2.25 1.01-2.25 2.25 0 .976.63 1.802 1.5 2.112v1.263a.75.75 0 1 0 1.5 0v-1.263c.87-.31 1.5-1.136 1.5-2.112 0-1.24-1.01-2.25-2.25-2.25z"/></g></g></svg>