<svg width="25" height="25" viewBox="0 0 25 25" fill="none" xmlns="http://www.w3.org/2000/svg">
<path fill-rule="evenodd" clip-rule="evenodd" d="M10.8323 13.3339H4.99531C4.53479 13.3339 4.16145 13.7072 4.16145 14.1677V20.0047C4.16145 20.4652 4.53479 20.8385 4.99531 20.8385H10.8323C11.2928 20.8385 11.6661 20.4652 11.6661 20.0047V14.1677C11.6661 13.7072 11.2928 13.3339 10.8323 13.3339ZM9.99843 19.1708H5.82916V15.0016H9.99843V19.1708ZM20.0047 4.16146H14.1677C13.7072 4.16146 13.3338 4.53478 13.3338 4.99531V10.8323C13.3338 11.2928 13.7072 11.6661 14.1677 11.6661H20.0047C20.4652 11.6661 20.8385 11.2928 20.8385 10.8323V4.99531C20.8385 4.53478 20.4652 4.16146 20.0047 4.16146ZM19.1708 9.99844H15.0016V5.82917H19.1708V9.99844ZM10.8323 4.16146H4.99531C4.53479 4.16146 4.16145 4.53478 4.16145 4.99531V10.8323C4.16145 11.2928 4.53479 11.6661 4.99531 11.6661H10.8323C11.2928 11.6661 11.6661 11.2928 11.6661 10.8323V4.99531C11.6661 4.53478 11.2928 4.16146 10.8323 4.16146ZM9.99843 9.99844H5.82916V5.82917H9.99843V9.99844Z" fill="#B5BBBC"/>
<path fill-rule="evenodd" clip-rule="evenodd" d="M20.0047 13.3338H14.1677C13.7072 13.3338 13.3338 13.7072 13.3338 14.1677V20.0047C13.3338 20.4652 13.7072 20.8385 14.1677 20.8385H20.0047C20.4652 20.8385 20.8385 20.4652 20.8385 20.0047V14.1677C20.8385 13.7072 20.4652 13.3338 20.0047 13.3338ZM15.0016 19.1708H19.1708V15.0016H15.0016V19.1708Z" fill="#B5BBBC"/>
</svg>
