<svg xmlns="http://www.w3.org/2000/svg" width="22" height="22" viewBox="0 0 22 22"><g><g clip-path="url(#clip-3ea73c2f-87f1-4ce0-ac56-9082cd703512)"><path fill="#01b9ff" d="M3.229 0C1.449 0 .01 1.45 0 3.229V6.58A3.235 3.235 0 0 0 3.229 9.81H6.58A3.235 3.235 0 0 0 9.81 6.58V3.229A3.234 3.234 0 0 0 6.58 0"/></g><g clip-path="url(#clip-3ea73c2f-87f1-4ce0-ac56-9082cd703512)"><path fill="#01b9ff" d="M15.424 0c-1.779 0-3.218 1.45-3.229 3.229V6.58a3.235 3.235 0 0 0 3.23 3.229h3.351a3.235 3.235 0 0 0 3.23-3.229V3.229A3.234 3.234 0 0 0 18.775 0"/></g><g clip-path="url(#clip-3ea73c2f-87f1-4ce0-ac56-9082cd703512)"><path fill="#01b9ff" d="M6.581 12.191H3.229c-1.78 0-3.219 1.45-3.229 3.228v3.352c0 1.78 1.45 3.23 3.229 3.23H6.58a3.235 3.235 0 0 0 3.229-3.23V15.42a3.234 3.234 0 0 0-3.229-3.228"/></g><g clip-path="url(#clip-3ea73c2f-87f1-4ce0-ac56-9082cd703512)"><path fill="#01b9ff" d="M22.005 18.771c0 1.78-1.45 3.23-3.229 3.23h-3.352a3.235 3.235 0 0 1-3.229-3.23V15.42a3.234 3.234 0 0 1 3.23-3.228h3.351c1.286 0 2.448.76 2.962 1.932.061.144.061.3.01.443a.59.59 0 0 1-.308.32.56.56 0 0 1-.443 0 .542.542 0 0 1-.318-.299 2.057 2.057 0 0 0-1.903-1.244h-3.352a2.077 2.077 0 0 0-2.077 2.076v3.352c0 1.142.936 2.078 2.077 2.078h3.363a2.077 2.077 0 0 0 2.066-2.078.575.575 0 1 1 1.152 0"/></g></g></svg>