<svg xmlns="http://www.w3.org/2000/svg" width="24" height="24" viewBox="0 0 24 24"><g><g clip-path="url(#clip-eb645037-1e3e-4e3b-8fb9-5008749488c0)"><path fill="#fff" d="M4.229 1C2.449 1 1.01 2.45 1 4.229V7.58a3.235 3.235 0 0 0 3.229 3.229H7.58A3.235 3.235 0 0 0 10.81 7.58V4.229A3.234 3.234 0 0 0 7.58 1"/><path fill="none" stroke="#878787" stroke-miterlimit="20" d="M4.229 1C2.449 1 1.01 2.45 1 4.229V7.58a3.235 3.235 0 0 0 3.229 3.229H7.58A3.235 3.235 0 0 0 10.81 7.58V4.229A3.234 3.234 0 0 0 7.58 1"/></g><g clip-path="url(#clip-eb645037-1e3e-4e3b-8fb9-5008749488c0)"><path fill="#fff" d="M16.424 1c-1.779 0-3.218 1.45-3.229 3.229V7.58a3.235 3.235 0 0 0 3.23 3.229h3.351a3.235 3.235 0 0 0 3.23-3.229V4.229A3.234 3.234 0 0 0 19.775 1"/><path fill="none" stroke="#878787" stroke-miterlimit="20" d="M16.424 1c-1.779 0-3.218 1.45-3.229 3.229V7.58a3.235 3.235 0 0 0 3.23 3.229h3.351a3.235 3.235 0 0 0 3.23-3.229V4.229A3.234 3.234 0 0 0 19.775 1"/></g><g clip-path="url(#clip-eb645037-1e3e-4e3b-8fb9-5008749488c0)"><path fill="#fff" d="M7.581 13.191H4.229c-1.78 0-3.219 1.45-3.229 3.228v3.352c0 1.78 1.45 3.23 3.229 3.23H7.58a3.235 3.235 0 0 0 3.229-3.23V16.42a3.234 3.234 0 0 0-3.229-3.228"/><path fill="none" stroke="#878787" stroke-miterlimit="20" d="M7.581 13.191v0H4.229c-1.78 0-3.219 1.45-3.229 3.228v3.352c0 1.78 1.45 3.23 3.229 3.23H7.58a3.235 3.235 0 0 0 3.229-3.23V16.42a3.234 3.234 0 0 0-3.229-3.228"/></g><g clip-path="url(#clip-eb645037-1e3e-4e3b-8fb9-5008749488c0)"><path fill="gray" d="M23.005 19.771c0 1.78-1.45 3.23-3.229 3.23h-3.352a3.235 3.235 0 0 1-3.229-3.23V16.42a3.234 3.234 0 0 1 3.23-3.228h3.351c1.286 0 2.448.76 2.962 1.932.061.144.061.3.01.443a.59.59 0 0 1-.308.32.56.56 0 0 1-.443 0 .542.542 0 0 1-.318-.299 2.057 2.057 0 0 0-1.903-1.244h-3.352a2.077 2.077 0 0 0-2.077 2.076v3.352c0 1.142.936 2.078 2.077 2.078h3.363a2.077 2.077 0 0 0 2.066-2.078.575.575 0 1 1 1.152 0"/></g></g></svg>