<svg width="24" height="24" viewBox="0 0 24 24" fill="none" xmlns="http://www.w3.org/2000/svg">
<path fill-rule="evenodd" clip-rule="evenodd" d="M18.4519 12.8005C18.0146 12.7487 17.6176 13.0599 17.5634 13.4969C17.2121 16.3018 14.8266 18.4057 11.9999 18.4039H7.52515L8.03747 17.8997C8.34785 17.5875 8.34785 17.0831 8.03747 16.771C6.42898 15.1691 5.94583 12.7551 6.81395 10.6576C7.68206 8.56005 9.7299 7.19353 11.9999 7.19695C12.9814 7.19547 13.9456 7.45517 14.7936 7.94942C15.1677 8.11848 15.609 7.97718 15.8154 7.62231C16.0217 7.26743 15.9261 6.814 15.5941 6.57256C14.5048 5.93191 13.2637 5.59469 11.9999 5.59595C9.2352 5.60504 6.71952 7.19549 5.52556 9.68916C4.3316 12.1829 4.66999 15.1397 6.39645 17.2992L5.02759 18.6361C4.80046 18.8663 4.73413 19.2106 4.85949 19.5086C4.98229 19.8075 5.27279 20.0033 5.59595 20.0049H11.9999C15.6322 20.0049 18.6964 17.3011 19.1484 13.6971C19.1755 13.4857 19.1173 13.2723 18.9866 13.104C18.8559 12.9357 18.6634 12.8265 18.4519 12.8005Z" fill="#F35252"/>
<path d="M18.4041 9.59537C18.6175 9.59537 18.8221 9.68061 18.9725 9.83216C19.0432 9.90996 19.1 9.99931 19.1406 10.0963C19.1816 10.1926 19.2033 10.2959 19.2046 10.4005C19.2058 10.6133 19.1223 10.8178 18.9725 10.9689C18.7423 11.196 18.398 11.2623 18.0999 11.137C18.0489 11.1195 18.0004 11.0952 17.9558 11.0649L17.8357 10.9689C17.6859 10.8178 17.6024 10.6133 17.6036 10.4005C17.6049 10.2959 17.6266 10.1926 17.6676 10.0963C17.7082 9.99931 17.765 9.90996 17.8357 9.83216C17.9861 9.68061 18.1907 9.59537 18.4041 9.59537Z" fill="#F35252"/>
<path d="M19.2046 7.99901C19.2046 8.44111 18.8462 8.79951 18.4041 8.79951C17.962 8.79951 17.6036 8.44111 17.6036 7.99901L17.6036 4.79701C17.6036 4.35491 17.962 3.99651 18.4041 3.99651C18.8462 3.99651 19.2046 4.35491 19.2046 4.79701L19.2046 7.99901Z" fill="#F35252"/>
</svg>
