<svg xmlns="http://www.w3.org/2000/svg" width="20" height="20" viewBox="0 0 20 20"><g><g><path fill="#fff" d="M2.546 9.869A6.83 6.83 0 0 1 9.37 3.046 6.83 6.83 0 0 1 16.19 9.87 6.83 6.83 0 0 1 9.37 16.69 6.83 6.83 0 0 1 2.546 9.87zm16.021 8.311l-2.763-2.969a8.33 8.33 0 0 0 1.933-5.342c0-4.615-3.754-8.369-8.368-8.369C4.754 1.5 1 5.254 1 9.869c0 4.614 3.754 8.368 8.369 8.368a8.33 8.33 0 0 0 5.342-1.933l2.763 2.97a.77.77 0 0 0 1.094 0 .773.773 0 0 0 0-1.094z"/><path fill="none" stroke="#fff" stroke-miterlimit="20" stroke-width=".3" d="M2.546 9.869A6.83 6.83 0 0 1 9.37 3.046 6.83 6.83 0 0 1 16.19 9.87 6.83 6.83 0 0 1 9.37 16.69 6.83 6.83 0 0 1 2.546 9.87zm16.021 8.311l-2.763-2.969a8.33 8.33 0 0 0 1.933-5.342c0-4.615-3.754-8.369-8.368-8.369C4.754 1.5 1 5.254 1 9.869c0 4.614 3.754 8.368 8.369 8.368a8.33 8.33 0 0 0 5.342-1.933l2.763 2.97a.77.77 0 0 0 1.094 0 .773.773 0 0 0 0-1.094z"/></g></g></svg>