<svg width="18" height="18" viewBox="0 0 18 18" fill="none" xmlns="http://www.w3.org/2000/svg">
<path fill-rule="evenodd" clip-rule="evenodd" d="M7.2211 9.8896H1.88444C1.39321 9.8896 0.994995 10.2878 0.994995 10.779V16.1157C0.994995 16.6069 1.39321 17.0051 1.88444 17.0051H7.2211C7.7123 17.0051 8.1106 16.6069 8.1106 16.1157V10.779C8.1106 10.2878 7.7123 9.8896 7.2211 9.8896ZM6.33166 15.2262H2.77388V11.6685H6.33166V15.2262ZM16.1156 0.995121H10.7789C10.2877 0.995121 9.88939 1.39334 9.88939 1.88456V7.2212C9.88939 7.7125 10.2877 8.1107 10.7789 8.1107H16.1156C16.6068 8.1107 17.005 7.7125 17.005 7.2212V1.88456C17.005 1.39334 16.6068 0.995121 16.1156 0.995121ZM15.2261 6.33178H11.6683V2.77401H15.2261V6.33178ZM7.2211 0.995121H1.88444C1.39321 0.995121 0.994995 1.39334 0.994995 1.88456V7.2212C0.994995 7.7125 1.39321 8.1107 1.88444 8.1107H7.2211C7.7123 8.1107 8.1106 7.7125 8.1106 7.2212V1.88456C8.1106 1.39334 7.7123 0.995121 7.2211 0.995121ZM6.33166 6.33178H2.77388V2.77401H6.33166V6.33178Z" fill="white"/>
</svg>
