<svg width="24" height="24" viewBox="0 0 24 24" fill="none" xmlns="http://www.w3.org/2000/svg">
<path fill-rule="evenodd" clip-rule="evenodd" d="M19.3005 10.9675L12.5683 4.22729C12.4173 4.07745 12.2128 3.99391 12 3.99513H4.79552C4.35342 3.99513 3.99501 4.35354 3.99501 4.79564V12.0001C3.99379 12.2129 4.07733 12.4174 4.22717 12.5685L10.9673 19.3007C11.9049 20.2371 13.4239 20.2371 14.3615 19.3007L19.3005 14.4016C20.237 13.464 20.237 11.9451 19.3005 11.0075V10.9675ZM18.1718 13.2249L13.2247 18.164C12.9125 18.4744 12.4083 18.4744 12.096 18.164L5.59602 11.6719V5.59614H11.6718L18.1718 12.0962C18.3217 12.2473 18.4052 12.4518 18.404 12.6646C18.4031 12.8746 18.3197 13.0758 18.1718 13.2249Z" fill="#31CDCD"/>
<path d="M7.19678 8.39789C7.19678 7.73474 7.73438 7.19714 8.39753 7.19714C9.06069 7.19714 9.59828 7.73474 9.59828 8.39789C9.59828 9.06105 9.06069 9.59864 8.39753 9.59864C7.73438 9.59864 7.19678 9.06105 7.19678 8.39789Z" fill="#177AE2"/>
</svg>
