<svg xmlns="http://www.w3.org/2000/svg" width="42.877" height="37.58" viewBox="0 0 42.877 37.58">
  <g id="gallery_4_" data-name="gallery (4)" transform="translate(0 -26.576)">
    <g id="Group_790" data-name="Group 790" transform="translate(0 26.576)">
      <g id="Group_789" data-name="Group 789" transform="translate(0 0)">
        <path id="Path_6352" data-name="Path 6352" d="M178.363,159.668a4.374,4.374,0,1,0,4.374,4.374A4.374,4.374,0,0,0,178.363,159.668Zm0,6.665a2.291,2.291,0,0,1,0-4.582h0a2.291,2.291,0,0,1,0,4.582Z" transform="translate(-156.649 -146.404)" fill="#01b9ff"/>
        <path id="Path_6353" data-name="Path 6353" d="M39.156,29.843,10.727,26.615a3.9,3.9,0,0,0-3.072.885,3.957,3.957,0,0,0-1.51,2.707l-.521,4.27H4.011A4.184,4.184,0,0,0,0,38.8v21.3a3.957,3.957,0,0,0,3.851,4.06q.079,0,.158,0H32.6a4.274,4.274,0,0,0,4.374-4.061v-.833a5.206,5.206,0,0,0,1.979-.833,4.322,4.322,0,0,0,1.51-2.812l2.4-21.139A4.218,4.218,0,0,0,39.156,29.843Zm-4.27,30.251A2.192,2.192,0,0,1,32.6,62.073H4.011a1.874,1.874,0,0,1-1.929-1.819q0-.08,0-.16V56.241l8.071-5.936a2.5,2.5,0,0,1,3.228.156l5.675,5a4.895,4.895,0,0,0,3.072,1.146,4.738,4.738,0,0,0,2.5-.677l10.257-5.936v10.1Zm0-12.548L23.536,54.158a2.655,2.655,0,0,1-3.072-.26l-5.727-5.051a4.634,4.634,0,0,0-5.78-.208l-6.873,5V38.8A2.1,2.1,0,0,1,4.011,36.56H32.6A2.4,2.4,0,0,1,34.887,38.8v8.747ZM40.772,34.2c0,.007,0,.014,0,.021L38.323,55.356a1.77,1.77,0,0,1-.677,1.406c-.208.208-.677.312-.677.417V38.8A4.478,4.478,0,0,0,32.6,34.477H7.707l.469-4.061a2.4,2.4,0,0,1,.781-1.354,2.4,2.4,0,0,1,1.562-.417L38.9,31.925A2.083,2.083,0,0,1,40.772,34.2Z" transform="translate(0 -26.576)" fill="#747474"/>
      </g>
    </g>
  </g>
</svg>
