<svg xmlns="http://www.w3.org/2000/svg" width="46.302" height="37.58" viewBox="0 0 46.302 37.58">
  <g id="photo-camera_2_" data-name="photo-camera (2)" transform="translate(0 -46.15)">
    <g id="Group_787" data-name="Group 787" transform="translate(0 46.15)">
      <path id="Path_6350" data-name="Path 6350" d="M0,57.65V78.079A5.654,5.654,0,0,0,5.651,83.73h35A5.654,5.654,0,0,0,46.3,78.079V57.65a5.38,5.38,0,0,0-5.377-5.377H33.4l-.18-.784A6.869,6.869,0,0,0,26.5,46.15H19.8a6.884,6.884,0,0,0-6.728,5.339l-.18.784H5.377A5.386,5.386,0,0,0,0,57.65Zm13.815-3.062a1.152,1.152,0,0,0,1.124-.9l.387-1.682a4.571,4.571,0,0,1,4.47-3.544h6.7a4.571,4.571,0,0,1,4.47,3.544l.387,1.682a1.162,1.162,0,0,0,1.124.9h8.438a3.061,3.061,0,0,1,3.062,3.062V78.079a3.335,3.335,0,0,1-3.336,3.336H5.651a3.335,3.335,0,0,1-3.336-3.336V57.65a3.061,3.061,0,0,1,3.062-3.062h8.438Z" transform="translate(0 -46.15)" fill="#747474"/>
      <circle id="Ellipse_79" data-name="Ellipse 79" cx="1.55" cy="1.55" r="1.55" transform="translate(6.284 11.831)" fill="#747474"/>
      <path id="Path_6351" data-name="Path 6351" d="M151.823,194.6a9.723,9.723,0,1,0-9.723-9.723A9.739,9.739,0,0,0,151.823,194.6Zm0-17.132a7.408,7.408,0,1,1-7.408,7.408A7.42,7.42,0,0,1,151.823,177.465Z" transform="translate(-128.673 -162.96)" fill="#01b9ff"/>
    </g>
  </g>
</svg>
