<svg width="18" height="14" viewBox="0 0 18 14" fill="none" xmlns="http://www.w3.org/2000/svg">
<path fill-rule="evenodd" clip-rule="evenodd" d="M14.6036 0.996338H3.39662C2.0703 0.996338 0.995117 2.07153 0.995117 3.39784V10.6023C0.995117 11.9286 2.0703 13.0038 3.39662 13.0038H14.6036C15.9299 13.0038 17.0051 11.9286 17.0051 10.6023V3.39784C17.0051 2.07153 15.9299 0.996338 14.6036 0.996338ZM15.4041 10.6023C15.4041 11.0444 15.0457 11.4028 14.6036 11.4028H3.39662C2.95451 11.4028 2.59612 11.0444 2.59612 10.6023V5.7993H15.4041V10.6023ZM15.4041 4.19834H2.59612V3.39784C2.59612 2.95573 2.95451 2.59734 3.39662 2.59734H14.6036C15.0457 2.59734 15.4041 2.95573 15.4041 3.39784V4.19834Z" fill="#177AE2"/>
</svg>
