<svg xmlns="http://www.w3.org/2000/svg" width="20" height="17" viewBox="0 0 20 17"><g><g><path fill="#a7a7a7" d="M16.537 8.9l-6.517 6.488-6.503-6.495a3.803 3.803 0 0 1 0-5.369 3.803 3.803 0 0 1 5.369 0l.825.818c.18.18.467.18.646.007l.818-.818a3.795 3.795 0 0 1 5.362-.007 3.76 3.76 0 0 1 1.112 2.692zm.66-6.015A4.662 4.662 0 0 0 13.86 1.5h-.015a4.724 4.724 0 0 0-3.323 1.378l-.495.495-.495-.488a4.663 4.663 0 0 0-3.324-1.378c-1.263 0-2.44.488-3.33 1.378a4.705 4.705 0 0 0 0 6.654l6.819 6.826c.18.179.466.179.646.007l6.84-6.819a4.722 4.722 0 0 0 .014-6.668z"/><path fill="none" stroke="#a7a7a7" stroke-miterlimit="20" stroke-width=".2" d="M16.537 8.9l-6.517 6.488-6.503-6.495a3.803 3.803 0 0 1 0-5.369 3.803 3.803 0 0 1 5.369 0l.825.818c.18.18.467.18.646.007l.818-.818a3.795 3.795 0 0 1 5.362-.007 3.76 3.76 0 0 1 1.112 2.692zm.66-6.015A4.662 4.662 0 0 0 13.86 1.5h-.015a4.724 4.724 0 0 0-3.323 1.378l-.495.495-.495-.488a4.663 4.663 0 0 0-3.324-1.378c-1.263 0-2.44.488-3.33 1.378a4.705 4.705 0 0 0 0 6.654l6.819 6.826c.18.179.466.179.646.007l6.84-6.819a4.722 4.722 0 0 0 .014-6.668z"/></g></g></svg>