<svg xmlns="http://www.w3.org/2000/svg" width="24" height="24" viewBox="0 0 24 24"><g><g><path fill="gray" d="M12.524 17.511a.575.575 0 1 1-1.15 0 .574.574 0 1 1 1.15 0"/><path fill="none" stroke="gray" stroke-miterlimit="20" stroke-width=".4" d="M12.524 17.511a.575.575 0 1 1-1.15 0 .574.574 0 1 1 1.15 0"/></g><g><path fill="gray" d="M12.75 12.938l-.226.063v1.478a.579.579 0 0 1-.575.514.574.574 0 0 1-.576-.575v-1.274c0-.626.452-1.18 1.059-1.314a2.21 2.21 0 1 0-.4-4.377c-.032-.012-.063-.012-.094-.012-.585 0-1.15.237-1.572.638-.42.41-.667.986-.667 1.571a.574.574 0 1 1-1.151 0c0-.904.37-1.777 1.027-2.404a3.45 3.45 0 0 1 1.52-.853 3.38 3.38 0 0 1 4.1 2.446 3.384 3.384 0 0 1-2.445 4.1"/><path fill="none" stroke="gray" stroke-miterlimit="20" stroke-width=".4" d="M12.75 12.938v0l-.226.063v1.478a.579.579 0 0 1-.575.514.574.574 0 0 1-.576-.575v-1.274c0-.626.452-1.18 1.059-1.314a2.21 2.21 0 1 0-.4-4.377c-.032-.012-.063-.012-.094-.012-.585 0-1.15.237-1.572.638-.42.41-.667.986-.667 1.571a.574.574 0 1 1-1.151 0c0-.904.37-1.777 1.027-2.404a3.45 3.45 0 0 1 1.52-.853 3.38 3.38 0 0 1 4.1 2.446 3.384 3.384 0 0 1-2.445 4.1"/></g><g><path fill="gray" d="M21.125 18.097a.578.578 0 0 1-.803.154.538.538 0 0 1-.236-.36.573.573 0 0 1 .082-.431c2.137-3.206 2.22-7.408.206-10.686C17.529 2.1 11.405.62 6.729 3.476 2.055 6.333.586 12.456 3.442 17.121a9.825 9.825 0 0 0 6.134 4.48 9.875 9.875 0 0 0 7.51-1.182.536.536 0 0 1 .431-.062.54.54 0 0 1 .36.257.575.575 0 0 1 .062.432.543.543 0 0 1-.257.36 10.972 10.972 0 0 1-13.47-1.634C-.071 15.477-.071 8.5 4.223 4.216A11.002 11.002 0 0 1 18.103 2.85c5.035 3.37 6.39 10.212 3.022 15.247"/><path fill="none" stroke="gray" stroke-miterlimit="20" stroke-width=".4" d="M21.125 18.097a.578.578 0 0 1-.803.154.538.538 0 0 1-.236-.36.573.573 0 0 1 .082-.431c2.137-3.206 2.22-7.408.206-10.686C17.529 2.1 11.405.62 6.729 3.476 2.055 6.333.586 12.456 3.442 17.121a9.825 9.825 0 0 0 6.134 4.48 9.875 9.875 0 0 0 7.51-1.182.536.536 0 0 1 .431-.062.54.54 0 0 1 .36.257.575.575 0 0 1 .062.432.543.543 0 0 1-.257.36 10.972 10.972 0 0 1-13.47-1.634C-.071 15.477-.071 8.5 4.223 4.216A11.002 11.002 0 0 1 18.103 2.85c5.035 3.37 6.39 10.212 3.022 15.247"/></g></g></svg>