<svg width="32" height="32" viewBox="0 0 32 32" fill="none" xmlns="http://www.w3.org/2000/svg">
<path fill-rule="evenodd" clip-rule="evenodd" d="M14.7369 16L21.0342 22.2972C21.7239 22.9911 21.7239 24.1116 21.0342 24.8055C20.7002 25.1422 20.2455 25.3317 19.7711 25.3317C19.2969 25.3317 18.8422 25.1422 18.5082 24.8055L10.9657 17.263C10.6289 16.929 10.4395 16.4742 10.4395 16C10.4395 15.5257 10.6289 15.071 10.9657 14.737L18.5082 7.10556C18.8438 6.77249 19.2983 6.58689 19.7711 6.58956C20.2439 6.58689 20.6985 6.77249 21.0342 7.10556C21.7239 7.79943 21.7239 8.91996 21.0342 9.61382L14.7369 16Z" fill="#177AE2"/>
</svg>
