<svg width="13" height="12" viewBox="0 0 13 12" fill="none" xmlns="http://www.w3.org/2000/svg">
<path fill-rule="evenodd" clip-rule="evenodd" d="M12.5771 4.52822L8.88265 0.44432C8.39971 -0.0894771 7.62161 -0.0851726 7.14461 0.453935C6.66771 0.993032 6.67252 1.86279 7.15536 2.39658L9.98771 5.51384L7.19002 8.66234C6.95981 8.92049 6.83138 9.27088 6.8334 9.63561C6.83542 10.0005 6.96771 10.3494 7.20077 10.605C7.432 10.8627 7.74572 11.0066 8.07202 11.0048C8.39833 11.003 8.71034 10.8557 8.9388 10.5954L12.5878 6.47086C12.8247 6.22006 12.962 5.87362 12.9692 5.50884C12.9764 5.14394 12.8528 4.79075 12.626 4.52795L12.5771 4.52822Z" fill="#177AE2"/>
<path d="M0.388647 0.463897C0.87912 -0.075275 1.66826 -0.0673967 2.15124 0.481515L5.79675 4.56569C6.02981 4.82127 6.1621 5.17021 6.16412 5.53495C6.16614 5.89979 6.03771 6.25018 5.8075 6.50832L2.15843 10.6328C1.93006 10.8931 1.61803 11.0405 1.29169 11.0423C0.965348 11.0441 0.651722 10.9002 0.42047 10.6424C0.187351 10.3869 0.0550874 10.0379 0.053069 9.67308C0.0510513 9.30834 0.179446 8.95796 0.409723 8.69981L3.25635 5.55104L0.375061 2.43405C-0.107908 1.88514 -0.101835 1.00308 0.388647 0.463897Z" fill="#177AE2"/>
</svg>
