<?xml version="1.0" encoding="UTF-8"?>
<svg xmlns="http://www.w3.org/2000/svg" xmlns:xlink="http://www.w3.org/1999/xlink" width="275px" height="212px" viewBox="0 0 275 212" version="1.1">
<defs>
<filter id="alpha" filterUnits="objectBoundingBox" x="0%" y="0%" width="100%" height="100%">
  <feColorMatrix type="matrix" in="SourceGraphic" values="0 0 0 0 1 0 0 0 0 1 0 0 0 0 1 0 0 0 1 0"/>
</filter>
<mask id="mask0">
  <g filter="url(#alpha)">
<rect x="0" y="0" width="275" height="212" style="fill:rgb(0%,0%,0%);fill-opacity:0.8;stroke:none;"/>
  </g>
</mask>
<clipPath id="clip1">
  <rect x="0" y="0" width="275" height="212"/>
</clipPath>
<g id="surface5" clip-path="url(#clip1)">
<path style=" stroke:none;fill-rule:nonzero;fill:rgb(76.862745%,85.098039%,92.941176%);fill-opacity:1;" d="M 95.125 84.523438 L 92.160156 84.523438 L 92.160156 90.476562 L 95.125 90.476562 Z M 95.125 84.523438 "/>
</g>
<mask id="mask1">
  <g filter="url(#alpha)">
<rect x="0" y="0" width="275" height="212" style="fill:rgb(0%,0%,0%);fill-opacity:0.8;stroke:none;"/>
  </g>
</mask>
<clipPath id="clip2">
  <rect x="0" y="0" width="275" height="212"/>
</clipPath>
<g id="surface8" clip-path="url(#clip2)">
<path style=" stroke:none;fill-rule:nonzero;fill:rgb(76.862745%,85.098039%,92.941176%);fill-opacity:1;" d="M 102.042969 84.523438 L 98.089844 84.523438 L 98.089844 90.476562 L 102.042969 90.476562 Z M 102.042969 84.523438 "/>
</g>
<mask id="mask2">
  <g filter="url(#alpha)">
<rect x="0" y="0" width="275" height="212" style="fill:rgb(0%,0%,0%);fill-opacity:0.8;stroke:none;"/>
  </g>
</mask>
<clipPath id="clip3">
  <rect x="0" y="0" width="275" height="212"/>
</clipPath>
<g id="surface11" clip-path="url(#clip3)">
<path style=" stroke:none;fill-rule:nonzero;fill:rgb(76.862745%,85.098039%,92.941176%);fill-opacity:1;" d="M 89.195312 95.238281 L 85.242188 95.238281 L 85.242188 101.191406 L 89.195312 101.191406 Z M 89.195312 95.238281 "/>
</g>
<mask id="mask3">
  <g filter="url(#alpha)">
<rect x="0" y="0" width="275" height="212" style="fill:rgb(0%,0%,0%);fill-opacity:0.8;stroke:none;"/>
  </g>
</mask>
<clipPath id="clip4">
  <rect x="0" y="0" width="275" height="212"/>
</clipPath>
<g id="surface14" clip-path="url(#clip4)">
<path style=" stroke:none;fill-rule:nonzero;fill:rgb(76.862745%,85.098039%,92.941176%);fill-opacity:1;" d="M 95.125 95.238281 L 92.160156 95.238281 L 92.160156 101.191406 L 95.125 101.191406 Z M 95.125 95.238281 "/>
</g>
<mask id="mask4">
  <g filter="url(#alpha)">
<rect x="0" y="0" width="275" height="212" style="fill:rgb(0%,0%,0%);fill-opacity:0.8;stroke:none;"/>
  </g>
</mask>
<clipPath id="clip5">
  <rect x="0" y="0" width="275" height="212"/>
</clipPath>
<g id="surface17" clip-path="url(#clip5)">
<path style=" stroke:none;fill-rule:nonzero;fill:rgb(76.862745%,85.098039%,92.941176%);fill-opacity:1;" d="M 102.042969 95.238281 L 98.089844 95.238281 L 98.089844 101.191406 L 102.042969 101.191406 Z M 102.042969 95.238281 "/>
</g>
<mask id="mask5">
  <g filter="url(#alpha)">
<rect x="0" y="0" width="275" height="212" style="fill:rgb(0%,0%,0%);fill-opacity:0.8;stroke:none;"/>
  </g>
</mask>
<clipPath id="clip6">
  <rect x="0" y="0" width="275" height="212"/>
</clipPath>
<g id="surface20" clip-path="url(#clip6)">
<path style=" stroke:none;fill-rule:nonzero;fill:rgb(76.862745%,85.098039%,92.941176%);fill-opacity:1;" d="M 153.4375 95.238281 L 150.472656 95.238281 L 150.472656 101.191406 L 153.4375 101.191406 Z M 153.4375 95.238281 "/>
</g>
<mask id="mask6">
  <g filter="url(#alpha)">
<rect x="0" y="0" width="275" height="212" style="fill:rgb(0%,0%,0%);fill-opacity:0.8;stroke:none;"/>
  </g>
</mask>
<clipPath id="clip7">
  <rect x="0" y="0" width="275" height="212"/>
</clipPath>
<g id="surface23" clip-path="url(#clip7)">
<path style=" stroke:none;fill-rule:nonzero;fill:rgb(76.862745%,85.098039%,92.941176%);fill-opacity:1;" d="M 160.355469 95.238281 L 156.402344 95.238281 L 156.402344 101.191406 L 160.355469 101.191406 Z M 160.355469 95.238281 "/>
</g>
<mask id="mask7">
  <g filter="url(#alpha)">
<rect x="0" y="0" width="275" height="212" style="fill:rgb(0%,0%,0%);fill-opacity:0.8;stroke:none;"/>
  </g>
</mask>
<clipPath id="clip8">
  <rect x="0" y="0" width="275" height="212"/>
</clipPath>
<g id="surface26" clip-path="url(#clip8)">
<path style=" stroke:none;fill-rule:nonzero;fill:rgb(76.862745%,85.098039%,92.941176%);fill-opacity:1;" d="M 166.285156 95.238281 L 163.320312 95.238281 L 163.320312 101.191406 L 166.285156 101.191406 Z M 166.285156 95.238281 "/>
</g>
<mask id="mask8">
  <g filter="url(#alpha)">
<rect x="0" y="0" width="275" height="212" style="fill:rgb(0%,0%,0%);fill-opacity:0.8;stroke:none;"/>
  </g>
</mask>
<clipPath id="clip9">
  <rect x="0" y="0" width="275" height="212"/>
</clipPath>
<g id="surface29" clip-path="url(#clip9)">
<path style=" stroke:none;fill-rule:nonzero;fill:rgb(76.862745%,85.098039%,92.941176%);fill-opacity:1;" d="M 89.195312 105.953125 L 85.242188 105.953125 L 85.242188 111.90625 L 89.195312 111.90625 Z M 89.195312 105.953125 "/>
</g>
<mask id="mask9">
  <g filter="url(#alpha)">
<rect x="0" y="0" width="275" height="212" style="fill:rgb(0%,0%,0%);fill-opacity:0.8;stroke:none;"/>
  </g>
</mask>
<clipPath id="clip10">
  <rect x="0" y="0" width="275" height="212"/>
</clipPath>
<g id="surface32" clip-path="url(#clip10)">
<path style=" stroke:none;fill-rule:nonzero;fill:rgb(76.862745%,85.098039%,92.941176%);fill-opacity:1;" d="M 95.125 105.953125 L 92.160156 105.953125 L 92.160156 111.90625 L 95.125 111.90625 Z M 95.125 105.953125 "/>
</g>
<mask id="mask10">
  <g filter="url(#alpha)">
<rect x="0" y="0" width="275" height="212" style="fill:rgb(0%,0%,0%);fill-opacity:0.8;stroke:none;"/>
  </g>
</mask>
<clipPath id="clip11">
  <rect x="0" y="0" width="275" height="212"/>
</clipPath>
<g id="surface35" clip-path="url(#clip11)">
<path style=" stroke:none;fill-rule:nonzero;fill:rgb(76.862745%,85.098039%,92.941176%);fill-opacity:1;" d="M 102.042969 105.953125 L 98.089844 105.953125 L 98.089844 111.90625 L 102.042969 111.90625 Z M 102.042969 105.953125 "/>
</g>
<mask id="mask11">
  <g filter="url(#alpha)">
<rect x="0" y="0" width="275" height="212" style="fill:rgb(0%,0%,0%);fill-opacity:0.8;stroke:none;"/>
  </g>
</mask>
<clipPath id="clip12">
  <rect x="0" y="0" width="275" height="212"/>
</clipPath>
<g id="surface38" clip-path="url(#clip12)">
<path style=" stroke:none;fill-rule:nonzero;fill:rgb(76.862745%,85.098039%,92.941176%);fill-opacity:1;" d="M 127.742188 105.953125 L 123.789062 105.953125 L 123.789062 111.90625 L 127.742188 111.90625 Z M 127.742188 105.953125 "/>
</g>
<mask id="mask12">
  <g filter="url(#alpha)">
<rect x="0" y="0" width="275" height="212" style="fill:rgb(0%,0%,0%);fill-opacity:0.8;stroke:none;"/>
  </g>
</mask>
<clipPath id="clip13">
  <rect x="0" y="0" width="275" height="212"/>
</clipPath>
<g id="surface41" clip-path="url(#clip13)">
<path style=" stroke:none;fill-rule:nonzero;fill:rgb(76.862745%,85.098039%,92.941176%);fill-opacity:1;" d="M 133.671875 105.953125 L 130.707031 105.953125 L 130.707031 111.90625 L 133.671875 111.90625 Z M 133.671875 105.953125 "/>
</g>
<mask id="mask13">
  <g filter="url(#alpha)">
<rect x="0" y="0" width="275" height="212" style="fill:rgb(0%,0%,0%);fill-opacity:0.8;stroke:none;"/>
  </g>
</mask>
<clipPath id="clip14">
  <rect x="0" y="0" width="275" height="212"/>
</clipPath>
<g id="surface44" clip-path="url(#clip14)">
<path style=" stroke:none;fill-rule:nonzero;fill:rgb(76.862745%,85.098039%,92.941176%);fill-opacity:1;" d="M 140.589844 105.953125 L 136.636719 105.953125 L 136.636719 111.90625 L 140.589844 111.90625 Z M 140.589844 105.953125 "/>
</g>
<mask id="mask14">
  <g filter="url(#alpha)">
<rect x="0" y="0" width="275" height="212" style="fill:rgb(0%,0%,0%);fill-opacity:0.8;stroke:none;"/>
  </g>
</mask>
<clipPath id="clip15">
  <rect x="0" y="0" width="275" height="212"/>
</clipPath>
<g id="surface47" clip-path="url(#clip15)">
<path style=" stroke:none;fill-rule:nonzero;fill:rgb(76.862745%,85.098039%,92.941176%);fill-opacity:1;" d="M 147.507812 105.953125 L 143.554688 105.953125 L 143.554688 111.90625 L 147.507812 111.90625 Z M 147.507812 105.953125 "/>
</g>
<mask id="mask15">
  <g filter="url(#alpha)">
<rect x="0" y="0" width="275" height="212" style="fill:rgb(0%,0%,0%);fill-opacity:0.8;stroke:none;"/>
  </g>
</mask>
<clipPath id="clip16">
  <rect x="0" y="0" width="275" height="212"/>
</clipPath>
<g id="surface50" clip-path="url(#clip16)">
<path style=" stroke:none;fill-rule:nonzero;fill:rgb(76.862745%,85.098039%,92.941176%);fill-opacity:1;" d="M 153.4375 105.953125 L 150.472656 105.953125 L 150.472656 111.90625 L 153.4375 111.90625 Z M 153.4375 105.953125 "/>
</g>
<mask id="mask16">
  <g filter="url(#alpha)">
<rect x="0" y="0" width="275" height="212" style="fill:rgb(0%,0%,0%);fill-opacity:0.8;stroke:none;"/>
  </g>
</mask>
<clipPath id="clip17">
  <rect x="0" y="0" width="275" height="212"/>
</clipPath>
<g id="surface53" clip-path="url(#clip17)">
<path style=" stroke:none;fill-rule:nonzero;fill:rgb(76.862745%,85.098039%,92.941176%);fill-opacity:1;" d="M 160.355469 105.953125 L 156.402344 105.953125 L 156.402344 111.90625 L 160.355469 111.90625 Z M 160.355469 105.953125 "/>
</g>
<mask id="mask17">
  <g filter="url(#alpha)">
<rect x="0" y="0" width="275" height="212" style="fill:rgb(0%,0%,0%);fill-opacity:0.8;stroke:none;"/>
  </g>
</mask>
<clipPath id="clip18">
  <rect x="0" y="0" width="275" height="212"/>
</clipPath>
<g id="surface56" clip-path="url(#clip18)">
<path style=" stroke:none;fill-rule:nonzero;fill:rgb(76.862745%,85.098039%,92.941176%);fill-opacity:1;" d="M 166.285156 105.953125 L 163.320312 105.953125 L 163.320312 111.90625 L 166.285156 111.90625 Z M 166.285156 105.953125 "/>
</g>
<mask id="mask18">
  <g filter="url(#alpha)">
<rect x="0" y="0" width="275" height="212" style="fill:rgb(0%,0%,0%);fill-opacity:0.8;stroke:none;"/>
  </g>
</mask>
<clipPath id="clip19">
  <rect x="0" y="0" width="275" height="212"/>
</clipPath>
<g id="surface59" clip-path="url(#clip19)">
<path style=" stroke:none;fill-rule:nonzero;fill:rgb(76.862745%,85.098039%,92.941176%);fill-opacity:1;" d="M 82.277344 116.667969 L 79.3125 116.667969 L 79.3125 122.617188 L 82.277344 122.617188 Z M 82.277344 116.667969 "/>
</g>
<mask id="mask19">
  <g filter="url(#alpha)">
<rect x="0" y="0" width="275" height="212" style="fill:rgb(0%,0%,0%);fill-opacity:0.8;stroke:none;"/>
  </g>
</mask>
<clipPath id="clip20">
  <rect x="0" y="0" width="275" height="212"/>
</clipPath>
<g id="surface62" clip-path="url(#clip20)">
<path style=" stroke:none;fill-rule:nonzero;fill:rgb(76.862745%,85.098039%,92.941176%);fill-opacity:1;" d="M 89.195312 116.667969 L 85.242188 116.667969 L 85.242188 122.617188 L 89.195312 122.617188 Z M 89.195312 116.667969 "/>
</g>
<mask id="mask20">
  <g filter="url(#alpha)">
<rect x="0" y="0" width="275" height="212" style="fill:rgb(0%,0%,0%);fill-opacity:0.8;stroke:none;"/>
  </g>
</mask>
<clipPath id="clip21">
  <rect x="0" y="0" width="275" height="212"/>
</clipPath>
<g id="surface65" clip-path="url(#clip21)">
<path style=" stroke:none;fill-rule:nonzero;fill:rgb(76.862745%,85.098039%,92.941176%);fill-opacity:1;" d="M 95.125 116.667969 L 92.160156 116.667969 L 92.160156 122.617188 L 95.125 122.617188 Z M 95.125 116.667969 "/>
</g>
<mask id="mask21">
  <g filter="url(#alpha)">
<rect x="0" y="0" width="275" height="212" style="fill:rgb(0%,0%,0%);fill-opacity:0.8;stroke:none;"/>
  </g>
</mask>
<clipPath id="clip22">
  <rect x="0" y="0" width="275" height="212"/>
</clipPath>
<g id="surface68" clip-path="url(#clip22)">
<path style=" stroke:none;fill-rule:nonzero;fill:rgb(76.862745%,85.098039%,92.941176%);fill-opacity:1;" d="M 102.042969 116.667969 L 98.089844 116.667969 L 98.089844 122.617188 L 102.042969 122.617188 Z M 102.042969 116.667969 "/>
</g>
<mask id="mask22">
  <g filter="url(#alpha)">
<rect x="0" y="0" width="275" height="212" style="fill:rgb(0%,0%,0%);fill-opacity:0.8;stroke:none;"/>
  </g>
</mask>
<clipPath id="clip23">
  <rect x="0" y="0" width="275" height="212"/>
</clipPath>
<g id="surface71" clip-path="url(#clip23)">
<path style=" stroke:none;fill-rule:nonzero;fill:rgb(76.862745%,85.098039%,92.941176%);fill-opacity:1;" d="M 120.820312 116.667969 L 117.855469 116.667969 L 117.855469 122.617188 L 120.820312 122.617188 Z M 120.820312 116.667969 "/>
</g>
<mask id="mask23">
  <g filter="url(#alpha)">
<rect x="0" y="0" width="275" height="212" style="fill:rgb(0%,0%,0%);fill-opacity:0.8;stroke:none;"/>
  </g>
</mask>
<clipPath id="clip24">
  <rect x="0" y="0" width="275" height="212"/>
</clipPath>
<g id="surface74" clip-path="url(#clip24)">
<path style=" stroke:none;fill-rule:nonzero;fill:rgb(76.862745%,85.098039%,92.941176%);fill-opacity:1;" d="M 127.742188 116.667969 L 123.789062 116.667969 L 123.789062 122.617188 L 127.742188 122.617188 Z M 127.742188 116.667969 "/>
</g>
<mask id="mask24">
  <g filter="url(#alpha)">
<rect x="0" y="0" width="275" height="212" style="fill:rgb(0%,0%,0%);fill-opacity:0.8;stroke:none;"/>
  </g>
</mask>
<clipPath id="clip25">
  <rect x="0" y="0" width="275" height="212"/>
</clipPath>
<g id="surface77" clip-path="url(#clip25)">
<path style=" stroke:none;fill-rule:nonzero;fill:rgb(76.862745%,85.098039%,92.941176%);fill-opacity:1;" d="M 133.671875 116.667969 L 130.707031 116.667969 L 130.707031 122.617188 L 133.671875 122.617188 Z M 133.671875 116.667969 "/>
</g>
<mask id="mask25">
  <g filter="url(#alpha)">
<rect x="0" y="0" width="275" height="212" style="fill:rgb(0%,0%,0%);fill-opacity:0.8;stroke:none;"/>
  </g>
</mask>
<clipPath id="clip26">
  <rect x="0" y="0" width="275" height="212"/>
</clipPath>
<g id="surface80" clip-path="url(#clip26)">
<path style=" stroke:none;fill-rule:nonzero;fill:rgb(76.862745%,85.098039%,92.941176%);fill-opacity:1;" d="M 153.4375 116.667969 L 150.472656 116.667969 L 150.472656 122.617188 L 153.4375 122.617188 Z M 153.4375 116.667969 "/>
</g>
<mask id="mask26">
  <g filter="url(#alpha)">
<rect x="0" y="0" width="275" height="212" style="fill:rgb(0%,0%,0%);fill-opacity:0.8;stroke:none;"/>
  </g>
</mask>
<clipPath id="clip27">
  <rect x="0" y="0" width="275" height="212"/>
</clipPath>
<g id="surface83" clip-path="url(#clip27)">
<path style=" stroke:none;fill-rule:nonzero;fill:rgb(76.862745%,85.098039%,92.941176%);fill-opacity:1;" d="M 160.355469 116.667969 L 156.402344 116.667969 L 156.402344 122.617188 L 160.355469 122.617188 Z M 160.355469 116.667969 "/>
</g>
<mask id="mask27">
  <g filter="url(#alpha)">
<rect x="0" y="0" width="275" height="212" style="fill:rgb(0%,0%,0%);fill-opacity:0.8;stroke:none;"/>
  </g>
</mask>
<clipPath id="clip28">
  <rect x="0" y="0" width="275" height="212"/>
</clipPath>
<g id="surface86" clip-path="url(#clip28)">
<path style=" stroke:none;fill-rule:nonzero;fill:rgb(76.862745%,85.098039%,92.941176%);fill-opacity:1;" d="M 166.285156 116.667969 L 163.320312 116.667969 L 163.320312 122.617188 L 166.285156 122.617188 Z M 166.285156 116.667969 "/>
</g>
<mask id="mask28">
  <g filter="url(#alpha)">
<rect x="0" y="0" width="275" height="212" style="fill:rgb(0%,0%,0%);fill-opacity:0.8;stroke:none;"/>
  </g>
</mask>
<clipPath id="clip29">
  <rect x="0" y="0" width="275" height="212"/>
</clipPath>
<g id="surface89" clip-path="url(#clip29)">
<path style=" stroke:none;fill-rule:nonzero;fill:rgb(76.862745%,85.098039%,92.941176%);fill-opacity:1;" d="M 76.347656 127.382812 L 72.394531 127.382812 L 72.394531 133.332031 L 76.347656 133.332031 Z M 76.347656 127.382812 "/>
</g>
<mask id="mask29">
  <g filter="url(#alpha)">
<rect x="0" y="0" width="275" height="212" style="fill:rgb(0%,0%,0%);fill-opacity:0.8;stroke:none;"/>
  </g>
</mask>
<clipPath id="clip30">
  <rect x="0" y="0" width="275" height="212"/>
</clipPath>
<g id="surface92" clip-path="url(#clip30)">
<path style=" stroke:none;fill-rule:nonzero;fill:rgb(76.862745%,85.098039%,92.941176%);fill-opacity:1;" d="M 82.277344 127.382812 L 79.3125 127.382812 L 79.3125 133.332031 L 82.277344 133.332031 Z M 82.277344 127.382812 "/>
</g>
<mask id="mask30">
  <g filter="url(#alpha)">
<rect x="0" y="0" width="275" height="212" style="fill:rgb(0%,0%,0%);fill-opacity:0.8;stroke:none;"/>
  </g>
</mask>
<clipPath id="clip31">
  <rect x="0" y="0" width="275" height="212"/>
</clipPath>
<g id="surface95" clip-path="url(#clip31)">
<path style=" stroke:none;fill-rule:nonzero;fill:rgb(76.862745%,85.098039%,92.941176%);fill-opacity:1;" d="M 89.195312 127.382812 L 85.242188 127.382812 L 85.242188 133.332031 L 89.195312 133.332031 Z M 89.195312 127.382812 "/>
</g>
<mask id="mask31">
  <g filter="url(#alpha)">
<rect x="0" y="0" width="275" height="212" style="fill:rgb(0%,0%,0%);fill-opacity:0.8;stroke:none;"/>
  </g>
</mask>
<clipPath id="clip32">
  <rect x="0" y="0" width="275" height="212"/>
</clipPath>
<g id="surface98" clip-path="url(#clip32)">
<path style=" stroke:none;fill-rule:nonzero;fill:rgb(76.862745%,85.098039%,92.941176%);fill-opacity:1;" d="M 95.125 127.382812 L 92.160156 127.382812 L 92.160156 133.332031 L 95.125 133.332031 Z M 95.125 127.382812 "/>
</g>
<mask id="mask32">
  <g filter="url(#alpha)">
<rect x="0" y="0" width="275" height="212" style="fill:rgb(0%,0%,0%);fill-opacity:0.8;stroke:none;"/>
  </g>
</mask>
<clipPath id="clip33">
  <rect x="0" y="0" width="275" height="212"/>
</clipPath>
<g id="surface101" clip-path="url(#clip33)">
<path style=" stroke:none;fill-rule:nonzero;fill:rgb(76.862745%,85.098039%,92.941176%);fill-opacity:1;" d="M 102.042969 127.382812 L 98.089844 127.382812 L 98.089844 133.332031 L 102.042969 133.332031 Z M 102.042969 127.382812 "/>
</g>
<mask id="mask33">
  <g filter="url(#alpha)">
<rect x="0" y="0" width="275" height="212" style="fill:rgb(0%,0%,0%);fill-opacity:0.8;stroke:none;"/>
  </g>
</mask>
<clipPath id="clip34">
  <rect x="0" y="0" width="275" height="212"/>
</clipPath>
<g id="surface104" clip-path="url(#clip34)">
<path style=" stroke:none;fill-rule:nonzero;fill:rgb(76.862745%,85.098039%,92.941176%);fill-opacity:1;" d="M 127.742188 127.382812 L 123.789062 127.382812 L 123.789062 133.332031 L 127.742188 133.332031 Z M 127.742188 127.382812 "/>
</g>
<mask id="mask34">
  <g filter="url(#alpha)">
<rect x="0" y="0" width="275" height="212" style="fill:rgb(0%,0%,0%);fill-opacity:0.8;stroke:none;"/>
  </g>
</mask>
<clipPath id="clip35">
  <rect x="0" y="0" width="275" height="212"/>
</clipPath>
<g id="surface107" clip-path="url(#clip35)">
<path style=" stroke:none;fill-rule:nonzero;fill:rgb(76.862745%,85.098039%,92.941176%);fill-opacity:1;" d="M 133.671875 127.382812 L 130.707031 127.382812 L 130.707031 133.332031 L 133.671875 133.332031 Z M 133.671875 127.382812 "/>
</g>
<mask id="mask35">
  <g filter="url(#alpha)">
<rect x="0" y="0" width="275" height="212" style="fill:rgb(0%,0%,0%);fill-opacity:0.8;stroke:none;"/>
  </g>
</mask>
<clipPath id="clip36">
  <rect x="0" y="0" width="275" height="212"/>
</clipPath>
<g id="surface110" clip-path="url(#clip36)">
<path style=" stroke:none;fill-rule:nonzero;fill:rgb(76.862745%,85.098039%,92.941176%);fill-opacity:1;" d="M 160.355469 127.382812 L 156.402344 127.382812 L 156.402344 133.332031 L 160.355469 133.332031 Z M 160.355469 127.382812 "/>
</g>
<mask id="mask36">
  <g filter="url(#alpha)">
<rect x="0" y="0" width="275" height="212" style="fill:rgb(0%,0%,0%);fill-opacity:0.8;stroke:none;"/>
  </g>
</mask>
<clipPath id="clip37">
  <rect x="0" y="0" width="275" height="212"/>
</clipPath>
<g id="surface113" clip-path="url(#clip37)">
<path style=" stroke:none;fill-rule:nonzero;fill:rgb(76.862745%,85.098039%,92.941176%);fill-opacity:1;" d="M 166.285156 127.382812 L 163.320312 127.382812 L 163.320312 133.332031 L 166.285156 133.332031 Z M 166.285156 127.382812 "/>
</g>
<mask id="mask37">
  <g filter="url(#alpha)">
<rect x="0" y="0" width="275" height="212" style="fill:rgb(0%,0%,0%);fill-opacity:0.8;stroke:none;"/>
  </g>
</mask>
<clipPath id="clip38">
  <rect x="0" y="0" width="275" height="212"/>
</clipPath>
<g id="surface116" clip-path="url(#clip38)">
<path style=" stroke:none;fill-rule:nonzero;fill:rgb(76.862745%,85.098039%,92.941176%);fill-opacity:1;" d="M 76.347656 138.09375 L 72.394531 138.09375 L 72.394531 144.046875 L 76.347656 144.046875 Z M 76.347656 138.09375 "/>
</g>
<mask id="mask38">
  <g filter="url(#alpha)">
<rect x="0" y="0" width="275" height="212" style="fill:rgb(0%,0%,0%);fill-opacity:0.8;stroke:none;"/>
  </g>
</mask>
<clipPath id="clip39">
  <rect x="0" y="0" width="275" height="212"/>
</clipPath>
<g id="surface119" clip-path="url(#clip39)">
<path style=" stroke:none;fill-rule:nonzero;fill:rgb(76.862745%,85.098039%,92.941176%);fill-opacity:1;" d="M 82.277344 138.09375 L 79.3125 138.09375 L 79.3125 144.046875 L 82.277344 144.046875 Z M 82.277344 138.09375 "/>
</g>
<mask id="mask39">
  <g filter="url(#alpha)">
<rect x="0" y="0" width="275" height="212" style="fill:rgb(0%,0%,0%);fill-opacity:0.8;stroke:none;"/>
  </g>
</mask>
<clipPath id="clip40">
  <rect x="0" y="0" width="275" height="212"/>
</clipPath>
<g id="surface122" clip-path="url(#clip40)">
<path style=" stroke:none;fill-rule:nonzero;fill:rgb(76.862745%,85.098039%,92.941176%);fill-opacity:1;" d="M 89.195312 138.09375 L 85.242188 138.09375 L 85.242188 144.046875 L 89.195312 144.046875 Z M 89.195312 138.09375 "/>
</g>
<mask id="mask40">
  <g filter="url(#alpha)">
<rect x="0" y="0" width="275" height="212" style="fill:rgb(0%,0%,0%);fill-opacity:0.8;stroke:none;"/>
  </g>
</mask>
<clipPath id="clip41">
  <rect x="0" y="0" width="275" height="212"/>
</clipPath>
<g id="surface125" clip-path="url(#clip41)">
<path style=" stroke:none;fill-rule:nonzero;fill:rgb(76.862745%,85.098039%,92.941176%);fill-opacity:1;" d="M 95.125 138.09375 L 92.160156 138.09375 L 92.160156 144.046875 L 95.125 144.046875 Z M 95.125 138.09375 "/>
</g>
<mask id="mask41">
  <g filter="url(#alpha)">
<rect x="0" y="0" width="275" height="212" style="fill:rgb(0%,0%,0%);fill-opacity:0.8;stroke:none;"/>
  </g>
</mask>
<clipPath id="clip42">
  <rect x="0" y="0" width="275" height="212"/>
</clipPath>
<g id="surface128" clip-path="url(#clip42)">
<path style=" stroke:none;fill-rule:nonzero;fill:rgb(76.862745%,85.098039%,92.941176%);fill-opacity:1;" d="M 102.042969 138.09375 L 98.089844 138.09375 L 98.089844 144.046875 L 102.042969 144.046875 Z M 102.042969 138.09375 "/>
</g>
<mask id="mask42">
  <g filter="url(#alpha)">
<rect x="0" y="0" width="275" height="212" style="fill:rgb(0%,0%,0%);fill-opacity:0.8;stroke:none;"/>
  </g>
</mask>
<clipPath id="clip43">
  <rect x="0" y="0" width="275" height="212"/>
</clipPath>
<g id="surface131" clip-path="url(#clip43)">
<path style=" stroke:none;fill-rule:nonzero;fill:rgb(76.862745%,85.098039%,92.941176%);fill-opacity:1;" d="M 127.742188 138.09375 L 123.789062 138.09375 L 123.789062 144.046875 L 127.742188 144.046875 Z M 127.742188 138.09375 "/>
</g>
<mask id="mask43">
  <g filter="url(#alpha)">
<rect x="0" y="0" width="275" height="212" style="fill:rgb(0%,0%,0%);fill-opacity:0.8;stroke:none;"/>
  </g>
</mask>
<clipPath id="clip44">
  <rect x="0" y="0" width="275" height="212"/>
</clipPath>
<g id="surface134" clip-path="url(#clip44)">
<path style=" stroke:none;fill-rule:nonzero;fill:rgb(76.862745%,85.098039%,92.941176%);fill-opacity:1;" d="M 133.671875 138.09375 L 130.707031 138.09375 L 130.707031 144.046875 L 133.671875 144.046875 Z M 133.671875 138.09375 "/>
</g>
<mask id="mask44">
  <g filter="url(#alpha)">
<rect x="0" y="0" width="275" height="212" style="fill:rgb(0%,0%,0%);fill-opacity:0.8;stroke:none;"/>
  </g>
</mask>
<clipPath id="clip45">
  <rect x="0" y="0" width="275" height="212"/>
</clipPath>
<g id="surface137" clip-path="url(#clip45)">
<path style=" stroke:none;fill-rule:nonzero;fill:rgb(76.862745%,85.098039%,92.941176%);fill-opacity:1;" d="M 160.355469 138.09375 L 156.402344 138.09375 L 156.402344 144.046875 L 160.355469 144.046875 Z M 160.355469 138.09375 "/>
</g>
<mask id="mask45">
  <g filter="url(#alpha)">
<rect x="0" y="0" width="275" height="212" style="fill:rgb(0%,0%,0%);fill-opacity:0.8;stroke:none;"/>
  </g>
</mask>
<clipPath id="clip46">
  <rect x="0" y="0" width="275" height="212"/>
</clipPath>
<g id="surface140" clip-path="url(#clip46)">
<path style=" stroke:none;fill-rule:nonzero;fill:rgb(76.862745%,85.098039%,92.941176%);fill-opacity:1;" d="M 166.285156 138.09375 L 163.320312 138.09375 L 163.320312 144.046875 L 166.285156 144.046875 Z M 166.285156 138.09375 "/>
</g>
</defs>
<g id="surface1">
<path style=" stroke:none;fill-rule:nonzero;fill:rgb(95.686275%,82.745098%,75.686275%);fill-opacity:1;" d="M 129.71875 165.476562 L 129.984375 171.90625 C 130 172.246094 130.109375 172.570312 130.300781 172.820312 C 130.488281 173.074219 130.746094 173.238281 131.027344 173.285156 C 131.75 173.417969 132.492188 173.34375 133.1875 173.070312 C 133.433594 172.972656 133.652344 172.796875 133.824219 172.5625 C 133.992188 172.328125 134.109375 172.042969 134.15625 171.734375 L 135.085938 165.476562 Z M 129.71875 165.476562 "/>
<path style=" stroke:none;fill-rule:nonzero;fill:rgb(91.372549%,76.470588%,68.627451%);fill-opacity:1;" d="M 144.164062 61.722656 C 144.164062 61.722656 129.765625 73.136719 114.097656 64.152344 C 113.617188 63.875 113.097656 63.714844 112.5625 63.6875 C 112.03125 63.660156 111.5 63.765625 111.003906 63.992188 L 106.015625 66.308594 C 105.007812 66.78125 103.886719 66.765625 102.886719 66.269531 C 101.886719 65.773438 101.082031 64.832031 100.640625 63.644531 C 100.117188 62.238281 99.707031 60.65625 99.738281 59.203125 L 109.363281 56.03125 C 109.113281 55.363281 109.53125 54.644531 110.128906 54.804688 C 111.53125 55.175781 113.628906 56.171875 114.144531 58.800781 C 114.144531 58.800781 121.960938 63.941406 138.242188 46.910156 C 139.152344 48.558594 142.203125 56.578125 144.164062 61.722656 Z M 144.164062 61.722656 "/>
<path style=" stroke:none;fill-rule:nonzero;fill:rgb(16.862745%,27.843137%,54.509804%);fill-opacity:1;" d="M 112.457031 62.445312 C 112.425781 62.472656 111.988281 62.695312 111.945312 62.714844 L 99.851562 67.535156 C 99.394531 67.765625 98.78125 67.386719 98.476562 66.6875 C 98.175781 65.992188 98.300781 65.238281 98.765625 65.015625 L 110.332031 59.167969 C 110.789062 58.933594 111.523438 59.417969 111.976562 59.976562 C 112.71875 60.917969 112.820312 62.15625 112.457031 62.445312 Z M 112.457031 62.445312 "/>
<use xlink:href="#surface5" mask="url(#mask0)"/>
<use xlink:href="#surface8" mask="url(#mask1)"/>
<use xlink:href="#surface11" mask="url(#mask2)"/>
<use xlink:href="#surface14" mask="url(#mask3)"/>
<use xlink:href="#surface17" mask="url(#mask4)"/>
<use xlink:href="#surface20" mask="url(#mask5)"/>
<use xlink:href="#surface23" mask="url(#mask6)"/>
<use xlink:href="#surface26" mask="url(#mask7)"/>
<use xlink:href="#surface29" mask="url(#mask8)"/>
<use xlink:href="#surface32" mask="url(#mask9)"/>
<use xlink:href="#surface35" mask="url(#mask10)"/>
<use xlink:href="#surface38" mask="url(#mask11)"/>
<use xlink:href="#surface41" mask="url(#mask12)"/>
<use xlink:href="#surface44" mask="url(#mask13)"/>
<use xlink:href="#surface47" mask="url(#mask14)"/>
<use xlink:href="#surface50" mask="url(#mask15)"/>
<use xlink:href="#surface53" mask="url(#mask16)"/>
<use xlink:href="#surface56" mask="url(#mask17)"/>
<use xlink:href="#surface59" mask="url(#mask18)"/>
<use xlink:href="#surface62" mask="url(#mask19)"/>
<use xlink:href="#surface65" mask="url(#mask20)"/>
<use xlink:href="#surface68" mask="url(#mask21)"/>
<use xlink:href="#surface71" mask="url(#mask22)"/>
<use xlink:href="#surface74" mask="url(#mask23)"/>
<use xlink:href="#surface77" mask="url(#mask24)"/>
<use xlink:href="#surface80" mask="url(#mask25)"/>
<use xlink:href="#surface83" mask="url(#mask26)"/>
<use xlink:href="#surface86" mask="url(#mask27)"/>
<use xlink:href="#surface89" mask="url(#mask28)"/>
<use xlink:href="#surface92" mask="url(#mask29)"/>
<use xlink:href="#surface95" mask="url(#mask30)"/>
<use xlink:href="#surface98" mask="url(#mask31)"/>
<use xlink:href="#surface101" mask="url(#mask32)"/>
<use xlink:href="#surface104" mask="url(#mask33)"/>
<use xlink:href="#surface107" mask="url(#mask34)"/>
<use xlink:href="#surface110" mask="url(#mask35)"/>
<use xlink:href="#surface113" mask="url(#mask36)"/>
<use xlink:href="#surface116" mask="url(#mask37)"/>
<use xlink:href="#surface119" mask="url(#mask38)"/>
<use xlink:href="#surface122" mask="url(#mask39)"/>
<use xlink:href="#surface125" mask="url(#mask40)"/>
<use xlink:href="#surface128" mask="url(#mask41)"/>
<use xlink:href="#surface131" mask="url(#mask42)"/>
<use xlink:href="#surface134" mask="url(#mask43)"/>
<use xlink:href="#surface137" mask="url(#mask44)"/>
<use xlink:href="#surface140" mask="url(#mask45)"/>
<path style=" stroke:none;fill-rule:nonzero;fill:rgb(83.529412%,90.588235%,96.862745%);fill-opacity:1;" d="M 75.359375 163.09375 L 59.546875 163.09375 L 59.546875 173.808594 L 75.359375 173.808594 Z M 75.359375 163.09375 "/>
<path style=" stroke:none;fill-rule:nonzero;fill:rgb(83.529412%,90.588235%,96.862745%);fill-opacity:1;" d="M 94.136719 163.09375 L 79.3125 163.09375 L 79.3125 173.808594 L 94.136719 173.808594 Z M 94.136719 163.09375 "/>
<path style=" stroke:none;fill-rule:nonzero;fill:rgb(67.843137%,78.823529%,87.843137%);fill-opacity:1;" d="M 195.933594 165.476562 L 188.027344 165.476562 L 188.027344 210.714844 L 195.933594 210.714844 Z M 195.933594 165.476562 "/>
<path style=" stroke:none;fill-rule:nonzero;fill:rgb(86.27451%,91.764706%,97.647059%);fill-opacity:1;" d="M 181.835938 168.050781 C 181.613281 168.777344 181.0625 169.199219 180.625 168.996094 C 180.179688 168.796875 179.988281 168.050781 180.21875 167.328125 C 180.445312 166.609375 182.097656 164.285156 182.097656 164.285156 C 182.097656 164.285156 182.0625 167.328125 181.835938 168.050781 Z M 181.835938 168.050781 "/>
<path style=" stroke:none;fill-rule:nonzero;fill:rgb(86.27451%,91.764706%,97.647059%);fill-opacity:1;" d="M 176.894531 150.445312 C 176.667969 150.988281 176.121094 151.300781 175.679688 151.152344 C 175.242188 151.003906 175.050781 150.441406 175.277344 149.898438 C 175.5 149.355469 177.15625 147.617188 177.15625 147.617188 C 177.15625 147.617188 177.121094 149.902344 176.894531 150.445312 Z M 176.894531 150.445312 "/>
<path style=" stroke:none;fill-rule:nonzero;fill:rgb(86.27451%,91.764706%,97.647059%);fill-opacity:1;" d="M 160.09375 176.636719 C 159.871094 177.175781 159.320312 177.492188 158.878906 177.34375 C 158.4375 177.195312 158.246094 176.632812 158.472656 176.09375 C 158.703125 175.550781 160.355469 173.808594 160.355469 173.808594 C 160.355469 173.808594 160.320312 176.09375 160.09375 176.636719 Z M 160.09375 176.636719 "/>
<path style=" stroke:none;fill-rule:nonzero;fill:rgb(92.156863%,94.901961%,97.647059%);fill-opacity:1;" d="M 173.628906 206.222656 C 173.628906 206.222656 171.972656 210.359375 175.195312 210.671875 C 178.414062 210.988281 180.328125 209.464844 181.109375 207.648438 C 181.109375 207.648438 177.109375 209.566406 177.71875 207.242188 C 178.328125 204.921875 179.890625 201.191406 179.890625 201.191406 C 179.890625 201.191406 176.5 208.257812 174.808594 207.914062 C 174.054688 207.753906 173.628906 206.222656 173.628906 206.222656 Z M 173.628906 206.222656 "/>
<path style=" stroke:none;fill-rule:nonzero;fill:rgb(76.862745%,85.098039%,92.941176%);fill-opacity:1;" d="M 207.792969 158.332031 L 150.472656 158.332031 L 150.472656 173.808594 L 207.792969 173.808594 Z M 207.792969 158.332031 "/>
<path style=" stroke:none;fill-rule:nonzero;fill:rgb(76.862745%,85.098039%,92.941176%);fill-opacity:1;" d="M 157.390625 177.382812 L 154.425781 177.382812 L 154.425781 183.332031 L 157.390625 183.332031 Z M 157.390625 177.382812 "/>
<path style=" stroke:none;fill-rule:nonzero;fill:rgb(76.862745%,85.098039%,92.941176%);fill-opacity:1;" d="M 163.320312 177.382812 L 160.355469 177.382812 L 160.355469 183.332031 L 163.320312 183.332031 Z M 163.320312 177.382812 "/>
<path style=" stroke:none;fill-rule:nonzero;fill:rgb(76.862745%,85.098039%,92.941176%);fill-opacity:1;" d="M 168.261719 177.382812 L 165.296875 177.382812 L 165.296875 183.332031 L 168.261719 183.332031 Z M 168.261719 177.382812 "/>
<path style=" stroke:none;fill-rule:nonzero;fill:rgb(76.862745%,85.098039%,92.941176%);fill-opacity:1;" d="M 173.203125 177.382812 L 170.238281 177.382812 L 170.238281 183.332031 L 173.203125 183.332031 Z M 173.203125 177.382812 "/>
<path style=" stroke:none;fill-rule:nonzero;fill:rgb(76.862745%,85.098039%,92.941176%);fill-opacity:1;" d="M 178.144531 177.382812 L 175.179688 177.382812 L 175.179688 183.332031 L 178.144531 183.332031 Z M 178.144531 177.382812 "/>
<path style=" stroke:none;fill-rule:nonzero;fill:rgb(76.862745%,85.098039%,92.941176%);fill-opacity:1;" d="M 184.074219 177.382812 L 180.121094 177.382812 L 180.121094 183.332031 L 184.074219 183.332031 Z M 184.074219 177.382812 "/>
<path style=" stroke:none;fill-rule:nonzero;fill:rgb(76.862745%,85.098039%,92.941176%);fill-opacity:1;" d="M 189.015625 177.382812 L 186.050781 177.382812 L 186.050781 183.332031 L 189.015625 183.332031 Z M 189.015625 177.382812 "/>
<path style=" stroke:none;fill-rule:nonzero;fill:rgb(76.862745%,85.098039%,92.941176%);fill-opacity:1;" d="M 194.945312 177.382812 L 191.980469 177.382812 L 191.980469 183.332031 L 194.945312 183.332031 Z M 194.945312 177.382812 "/>
<path style=" stroke:none;fill-rule:nonzero;fill:rgb(76.862745%,85.098039%,92.941176%);fill-opacity:1;" d="M 199.886719 177.382812 L 196.921875 177.382812 L 196.921875 183.332031 L 199.886719 183.332031 Z M 199.886719 177.382812 "/>
<path style=" stroke:none;fill-rule:nonzero;fill:rgb(76.862745%,85.098039%,92.941176%);fill-opacity:1;" d="M 204.828125 177.382812 L 201.863281 177.382812 L 201.863281 183.332031 L 204.828125 183.332031 Z M 204.828125 177.382812 "/>
<path style=" stroke:none;fill-rule:nonzero;fill:rgb(76.862745%,85.098039%,92.941176%);fill-opacity:1;" d="M 178.144531 186.90625 L 175.179688 186.90625 L 175.179688 191.667969 L 178.144531 191.667969 Z M 178.144531 186.90625 "/>
<path style=" stroke:none;fill-rule:nonzero;fill:rgb(76.862745%,85.098039%,92.941176%);fill-opacity:1;" d="M 184.074219 186.90625 L 180.121094 186.90625 L 180.121094 191.667969 L 184.074219 191.667969 Z M 184.074219 186.90625 "/>
<path style=" stroke:none;fill-rule:nonzero;fill:rgb(76.862745%,85.098039%,92.941176%);fill-opacity:1;" d="M 189.015625 186.90625 L 186.050781 186.90625 L 186.050781 191.667969 L 189.015625 191.667969 Z M 189.015625 186.90625 "/>
<path style=" stroke:none;fill-rule:nonzero;fill:rgb(76.862745%,85.098039%,92.941176%);fill-opacity:1;" d="M 194.945312 186.90625 L 191.980469 186.90625 L 191.980469 191.667969 L 194.945312 191.667969 Z M 194.945312 186.90625 "/>
<path style=" stroke:none;fill-rule:nonzero;fill:rgb(76.862745%,85.098039%,92.941176%);fill-opacity:1;" d="M 199.886719 186.90625 L 196.921875 186.90625 L 196.921875 191.667969 L 199.886719 191.667969 Z M 199.886719 186.90625 "/>
<path style=" stroke:none;fill-rule:nonzero;fill:rgb(76.862745%,85.098039%,92.941176%);fill-opacity:1;" d="M 204.828125 186.90625 L 201.863281 186.90625 L 201.863281 191.667969 L 204.828125 191.667969 Z M 204.828125 186.90625 "/>
<path style=" stroke:none;fill-rule:nonzero;fill:rgb(76.862745%,85.098039%,92.941176%);fill-opacity:1;" d="M 178.144531 195.238281 L 175.179688 195.238281 L 175.179688 200 L 178.144531 200 Z M 178.144531 195.238281 "/>
<path style=" stroke:none;fill-rule:nonzero;fill:rgb(76.862745%,85.098039%,92.941176%);fill-opacity:1;" d="M 184.074219 195.238281 L 180.121094 195.238281 L 180.121094 200 L 184.074219 200 Z M 184.074219 195.238281 "/>
<path style=" stroke:none;fill-rule:nonzero;fill:rgb(76.862745%,85.098039%,92.941176%);fill-opacity:1;" d="M 189.015625 195.238281 L 186.050781 195.238281 L 186.050781 200 L 189.015625 200 Z M 189.015625 195.238281 "/>
<path style=" stroke:none;fill-rule:nonzero;fill:rgb(76.862745%,85.098039%,92.941176%);fill-opacity:1;" d="M 194.945312 195.238281 L 191.980469 195.238281 L 191.980469 200 L 194.945312 200 Z M 194.945312 195.238281 "/>
<path style=" stroke:none;fill-rule:nonzero;fill:rgb(76.862745%,85.098039%,92.941176%);fill-opacity:1;" d="M 199.886719 195.238281 L 196.921875 195.238281 L 196.921875 200 L 199.886719 200 Z M 199.886719 195.238281 "/>
<path style=" stroke:none;fill-rule:nonzero;fill:rgb(76.862745%,85.098039%,92.941176%);fill-opacity:1;" d="M 204.828125 195.238281 L 201.863281 195.238281 L 201.863281 200 L 204.828125 200 Z M 204.828125 195.238281 "/>
<path style=" stroke:none;fill-rule:nonzero;fill:rgb(67.843137%,78.823529%,87.843137%);fill-opacity:1;" d="M 157.390625 163.09375 L 155.414062 163.09375 L 155.414062 167.855469 L 157.390625 167.855469 Z M 157.390625 163.09375 "/>
<path style=" stroke:none;fill-rule:nonzero;fill:rgb(67.843137%,78.823529%,87.843137%);fill-opacity:1;" d="M 182.097656 163.09375 L 179.132812 163.09375 L 179.132812 167.855469 L 182.097656 167.855469 Z M 182.097656 163.09375 "/>
<path style=" stroke:none;fill-rule:nonzero;fill:rgb(67.843137%,78.823529%,87.843137%);fill-opacity:1;" d="M 200.875 163.09375 L 198.898438 163.09375 L 198.898438 167.855469 L 200.875 167.855469 Z M 200.875 163.09375 "/>
<path style=" stroke:none;fill-rule:nonzero;fill:rgb(19.215686%,80.392157%,80.392157%);fill-opacity:1;" d="M 19.765625 26.5 C 17.171875 26.5 14.601562 27.117188 12.203125 28.324219 C 9.804688 29.527344 7.625 31.292969 5.789062 33.523438 C 3.953125 35.75 2.496094 38.394531 1.503906 41.304688 C 0.511719 44.214844 0 47.332031 0 50.480469 C 0 63.726562 19.765625 93.167969 19.765625 93.167969 C 19.765625 93.167969 28.742188 79.792969 34.582031 67.023438 C 37.421875 60.847656 39.53125 54.804688 39.53125 50.484375 C 39.53125 44.125 37.449219 38.023438 33.742188 33.527344 C 30.035156 29.027344 25.007812 26.5 19.765625 26.5 Z M 19.765625 61.4375 C 17.386719 61.457031 15.09375 60.367188 13.355469 58.394531 C 11.617188 56.425781 10.570312 53.71875 10.425781 50.839844 C 10.28125 47.957031 11.050781 45.121094 12.578125 42.90625 C 14.109375 40.695312 16.277344 39.277344 18.636719 38.945312 C 21 38.613281 23.378906 39.390625 25.285156 41.121094 C 27.1875 42.851562 28.472656 45.402344 28.875 48.246094 C 29.277344 51.089844 28.765625 54.011719 27.445312 56.414062 C 26.125 58.816406 24.097656 60.511719 21.78125 61.15625 C 21.121094 61.34375 20.445312 61.4375 19.765625 61.429688 Z M 19.765625 61.4375 "/>
<path style=" stroke:none;fill-rule:nonzero;fill:rgb(41.176471%,62.352941%,94.117647%);fill-opacity:1;" d="M 200.089844 139.285156 L 198.898438 138.078125 L 214.878906 112.203125 L 220.644531 111.90625 Z M 200.089844 139.285156 "/>
<path style=" stroke:none;fill-rule:nonzero;fill:rgb(41.176471%,62.352941%,94.117647%);fill-opacity:1;" d="M 179.121094 139.285156 L 178.144531 138.078125 L 191.214844 112.203125 L 195.933594 111.90625 Z M 179.121094 139.285156 "/>
<path style=" stroke:none;fill-rule:nonzero;fill:rgb(100%,85.098039%,6.666667%);fill-opacity:1;" d="M 86.726562 82.144531 C 90.820312 82.144531 94.136719 78.144531 94.136719 73.214844 C 94.136719 68.28125 90.820312 64.285156 86.726562 64.285156 C 82.632812 64.285156 79.3125 68.28125 79.3125 73.214844 C 79.3125 78.144531 82.632812 82.144531 86.726562 82.144531 Z M 86.726562 82.144531 "/>
<path style=" stroke:none;fill-rule:nonzero;fill:rgb(9.019608%,47.843137%,88.627451%);fill-opacity:1;" d="M 170.238281 190.476562 L 98.519531 190.476562 C 98.144531 190.472656 97.78125 190.285156 97.515625 189.957031 C 97.25 189.625 97.101562 189.179688 97.101562 188.710938 L 97.101562 180.335938 C 97.101562 179.871094 97.25 179.421875 97.515625 179.089844 C 97.78125 178.761719 98.144531 178.574219 98.519531 178.570312 L 161.875 178.570312 C 162.25 178.574219 162.613281 178.761719 162.875 179.09375 C 163.140625 179.421875 163.289062 179.871094 163.289062 180.335938 Z M 170.238281 190.476562 "/>
<path style=" stroke:none;fill-rule:nonzero;fill:rgb(16.862745%,27.843137%,54.509804%);fill-opacity:1;" d="M 191.980469 210.714844 C 203.988281 210.714844 213.722656 198.988281 213.722656 184.523438 C 213.722656 170.058594 203.988281 158.332031 191.980469 158.332031 C 179.972656 158.332031 170.238281 170.058594 170.238281 184.523438 C 170.238281 198.988281 179.972656 210.714844 191.980469 210.714844 Z M 191.980469 210.714844 "/>
<path style=" stroke:none;fill-rule:nonzero;fill:rgb(52.156863%,69.803922%,93.72549%);fill-opacity:1;" d="M 191.980469 197.617188 C 197.984375 197.617188 202.851562 191.757812 202.851562 184.523438 C 202.851562 177.292969 197.984375 171.429688 191.980469 171.429688 C 185.976562 171.429688 181.109375 177.292969 181.109375 184.523438 C 181.109375 191.757812 185.976562 197.617188 191.980469 197.617188 Z M 191.980469 197.617188 "/>
<path style=" stroke:none;fill-rule:nonzero;fill:rgb(9.019608%,47.843137%,88.627451%);fill-opacity:1;" d="M 113.902344 179.246094 L 103.261719 184.523438 C 95.890625 166.871094 88.367188 158.207031 81.941406 153.933594 C 70.363281 146.242188 62.304688 152.757812 65.015625 146.703125 L 84.878906 95.070312 C 86.734375 91.886719 89.234375 89.359375 92.128906 87.738281 C 95.023438 86.113281 98.210938 85.449219 101.378906 85.808594 C 102.265625 85.914062 103.121094 86.265625 103.886719 86.835938 C 104.648438 87.40625 105.296875 88.179688 105.78125 89.101562 C 106.269531 90.023438 106.578125 91.070312 106.691406 92.160156 C 106.804688 93.25 106.71875 94.355469 106.433594 95.398438 C 103.835938 104.980469 102.835938 114.613281 102.835938 123.753906 C 102.828125 154.1875 113.902344 179.246094 113.902344 179.246094 Z M 113.902344 179.246094 "/>
<path style=" stroke:none;fill-rule:nonzero;fill:rgb(9.019608%,47.843137%,88.627451%);fill-opacity:1;" d="M 103.316406 92.410156 L 95.320312 88.632812 C 94.234375 88.632812 92.160156 89.835938 92.160156 88.5 L 93.34375 64.351562 C 93.347656 63.703125 93.554688 63.082031 93.925781 62.625 C 94.296875 62.164062 94.796875 61.90625 95.320312 61.90625 L 100.484375 61.90625 C 101.570312 61.90625 105.929688 64.488281 105.621094 69.316406 L 106.984375 93.660156 C 106.984375 95.007812 104.402344 92.410156 103.316406 92.410156 Z M 103.316406 92.410156 "/>
<path style=" stroke:none;fill-rule:nonzero;fill:rgb(41.176471%,62.352941%,94.117647%);fill-opacity:1;" d="M 241.539062 103.570312 L 187.886719 103.570312 C 186.328125 103.570312 185.0625 105.160156 185.0625 107.117188 L 185.0625 109.550781 C 185.0625 111.507812 186.328125 113.09375 187.886719 113.09375 L 241.539062 113.09375 C 243.097656 113.09375 244.363281 111.507812 244.363281 109.550781 L 244.363281 107.117188 C 244.363281 105.160156 243.097656 103.570312 241.539062 103.570312 Z M 241.539062 103.570312 "/>
<path style=" stroke:none;fill-rule:nonzero;fill:rgb(16.862745%,27.843137%,54.509804%);fill-opacity:1;" d="M 71.40625 210.714844 C 83.414062 210.714844 93.148438 198.988281 93.148438 184.523438 C 93.148438 170.058594 83.414062 158.332031 71.40625 158.332031 C 59.398438 158.332031 49.664062 170.058594 49.664062 184.523438 C 49.664062 198.988281 59.398438 210.714844 71.40625 210.714844 Z M 71.40625 210.714844 "/>
<path style=" stroke:none;fill-rule:nonzero;fill:rgb(68.627451%,80.392157%,98.431373%);fill-opacity:1;" d="M 82.273438 184.519531 C 82.277344 186.648438 81.847656 188.746094 81.019531 190.628906 C 80.96875 190.746094 80.914062 190.863281 80.859375 190.976562 C 80.003906 192.792969 78.804688 194.332031 77.359375 195.476562 C 75.910156 196.617188 74.257812 197.328125 72.539062 197.546875 C 70.816406 197.765625 69.078125 197.484375 67.464844 196.730469 C 65.851562 195.976562 64.414062 194.765625 63.265625 193.207031 C 62.117188 191.644531 61.296875 189.777344 60.871094 187.757812 C 60.445312 185.738281 60.421875 183.625 60.8125 181.589844 C 61.199219 179.558594 61.984375 177.667969 63.101562 176.078125 C 64.214844 174.484375 65.632812 173.234375 67.230469 172.433594 C 67.269531 172.410156 67.3125 172.394531 67.351562 172.371094 C 69.003906 171.574219 70.789062 171.273438 72.558594 171.503906 C 74.324219 171.730469 76.019531 172.476562 77.492188 173.671875 C 78.964844 174.871094 80.171875 176.488281 81.003906 178.378906 C 81.839844 180.269531 82.277344 182.378906 82.277344 184.519531 Z M 82.273438 184.519531 "/>
<path style=" stroke:none;fill-rule:nonzero;fill:rgb(9.019608%,47.843137%,88.627451%);fill-opacity:1;" d="M 150.757812 131.589844 C 150.757812 131.589844 159 154.101562 140.589844 178.570312 L 183.085938 178.570312 L 177.320312 125 Z M 150.757812 131.589844 "/>
<path style=" stroke:none;fill-rule:nonzero;fill:rgb(9.019608%,47.843137%,88.627451%);fill-opacity:1;" d="M 235.46875 187.046875 C 235.464844 187.957031 235.164062 188.828125 234.625 189.46875 C 234.089844 190.109375 233.363281 190.472656 232.605469 190.476562 L 163.21875 190.476562 C 162.460938 190.472656 161.734375 190.109375 161.195312 189.46875 C 160.660156 188.828125 160.359375 187.957031 160.355469 187.046875 L 161.277344 132.667969 L 184.644531 130.953125 C 215.769531 130.953125 235.46875 149.75 235.46875 187.046875 Z M 235.46875 187.046875 "/>
<path style=" stroke:none;fill-rule:nonzero;fill:rgb(10.588235%,80.784314%,84.705882%);fill-opacity:1;" d="M 94.136719 72.617188 C 94.140625 74.339844 93.859375 76.042969 93.3125 77.632812 C 92.765625 79.222656 91.964844 80.667969 90.957031 81.882812 C 89.945312 83.097656 88.746094 84.0625 87.425781 84.722656 C 86.109375 85.378906 84.695312 85.714844 83.265625 85.714844 L 83.265625 59.523438 C 86.148438 59.523438 88.914062 60.902344 90.953125 63.359375 C 92.992188 65.8125 94.136719 69.144531 94.136719 72.617188 Z M 94.136719 72.617188 "/>
<path style=" stroke:none;fill-rule:nonzero;fill:rgb(16.862745%,27.843137%,54.509804%);fill-opacity:1;" d="M 112.109375 73.808594 C 112.066406 73.808594 111.589844 73.71875 111.542969 73.707031 L 98.878906 70.25 C 98.375 70.152344 98.027344 69.539062 98.101562 68.882812 C 98.175781 68.222656 98.640625 67.765625 99.144531 67.875 L 111.851562 70.3125 C 112.355469 70.40625 112.753906 71.160156 112.875 71.808594 C 113.0625 72.882812 112.558594 73.808594 112.109375 73.808594 Z M 112.109375 73.808594 "/>
<path style=" stroke:none;fill-rule:nonzero;fill:rgb(9.019608%,47.843137%,88.627451%);fill-opacity:1;" d="M 196.921875 120.625 L 196.921875 129.382812 C 196.921875 130.113281 196.695312 130.8125 196.300781 131.332031 C 195.902344 131.847656 195.363281 132.140625 194.800781 132.144531 L 150.613281 132.144531 C 150.050781 132.140625 149.515625 131.847656 149.117188 131.332031 C 148.722656 130.8125 148.496094 130.113281 148.496094 129.382812 L 148.496094 120.621094 C 148.496094 119.890625 148.71875 119.1875 149.117188 118.671875 C 149.515625 118.152344 150.050781 117.859375 150.613281 117.855469 L 194.800781 117.855469 C 195.363281 117.859375 195.902344 118.152344 196.300781 118.667969 C 196.699219 119.1875 196.921875 119.890625 196.921875 120.625 Z M 196.921875 120.625 "/>
<path style=" stroke:none;fill-rule:nonzero;fill:rgb(34.117647%,55.294118%,86.666667%);fill-opacity:1;" d="M 229.535156 190.476562 L 163.816406 190.476562 C 163.816406 190.476562 159.804688 160.585938 174.605469 150.480469 C 178.164062 148.046875 182.644531 147.210938 187.519531 147.796875 C 202.875 149.65625 222.226562 165.652344 229.535156 190.476562 Z M 229.535156 190.476562 "/>
<path style=" stroke:none;fill-rule:nonzero;fill:rgb(10.588235%,80.784314%,84.705882%);fill-opacity:1;" d="M 94.136719 75 C 93.660156 78.011719 92.316406 80.730469 90.328125 82.6875 C 88.34375 84.644531 85.847656 85.714844 83.265625 85.714844 L 83.265625 78.386719 C 86.503906 78.542969 91.183594 78.121094 94.136719 75 Z M 94.136719 75 "/>
<path style=" stroke:none;fill-rule:nonzero;fill:rgb(34.117647%,55.294118%,86.666667%);fill-opacity:1;" d="M 183.085938 132.144531 L 150.621094 132.144531 C 150.058594 132.140625 149.519531 131.847656 149.121094 131.332031 C 148.722656 130.8125 148.496094 130.113281 148.496094 129.382812 L 148.496094 120.621094 C 148.496094 119.890625 148.722656 119.1875 149.121094 118.671875 C 149.519531 118.152344 150.058594 117.859375 150.621094 117.855469 L 172.859375 117.855469 C 174.796875 121.398438 178.429688 127.402344 183.085938 132.144531 Z M 183.085938 132.144531 "/>
<path style=" stroke:none;fill-rule:nonzero;fill:rgb(34.117647%,55.294118%,86.666667%);fill-opacity:1;" d="M 229.535156 190.476562 L 202.15625 190.476562 C 185.625 180.160156 186.636719 155.273438 187.378906 147.617188 C 202.792969 149.476562 222.207031 165.539062 229.535156 190.476562 Z M 229.535156 190.476562 "/>
<path style=" stroke:none;fill-rule:nonzero;fill:rgb(52.156863%,69.803922%,93.72549%);fill-opacity:1;" d="M 81.289062 190.714844 C 80.417969 192.597656 79.191406 194.203125 77.714844 195.390625 C 76.238281 196.578125 74.550781 197.316406 72.792969 197.542969 C 71.035156 197.769531 69.257812 197.480469 67.613281 196.695312 C 65.964844 195.910156 64.496094 194.652344 63.324219 193.03125 C 62.152344 191.40625 61.3125 189.464844 60.878906 187.363281 C 60.441406 185.261719 60.421875 183.0625 60.816406 180.949219 C 61.210938 178.835938 62.015625 176.871094 63.152344 175.214844 C 64.292969 173.558594 65.742188 172.261719 67.371094 171.429688 C 68.332031 177.320312 71.4375 188.242188 81.289062 190.714844 Z M 81.289062 190.714844 "/>
<path style=" stroke:none;fill-rule:nonzero;fill:rgb(78.431373%,87.058824%,95.686275%);fill-opacity:1;" d="M 190.003906 103.570312 L 223.609375 103.570312 L 223.609375 70.238281 L 190.003906 70.238281 Z M 190.003906 103.570312 "/>
<path style=" stroke:none;fill-rule:nonzero;fill:rgb(69.803922%,80.392157%,91.372549%);fill-opacity:1;" d="M 241.398438 70.238281 L 206.804688 70.238281 L 206.804688 103.570312 L 241.398438 103.570312 Z M 241.398438 70.238281 "/>
<path style=" stroke:none;fill-rule:nonzero;fill:rgb(69.803922%,80.784314%,91.372549%);fill-opacity:1;" d="M 241.398438 92.339844 L 241.398438 103.570312 L 206.804688 103.570312 L 206.804688 70.238281 L 212.933594 70.238281 Z M 241.398438 92.339844 "/>
<path style=" stroke:none;fill-rule:nonzero;fill:rgb(9.803922%,5.098039%,26.666667%);fill-opacity:1;" d="M 241.398438 98.808594 L 235.46875 98.808594 L 235.988281 96.726562 L 235.46875 95.238281 L 241.398438 95.238281 Z M 241.398438 98.808594 "/>
<path style=" stroke:none;fill-rule:nonzero;fill:rgb(7.45098%,0%,27.45098%);fill-opacity:1;" d="M 177.15625 97.878906 C 177.15625 97.878906 176.441406 112.984375 173.582031 117.285156 C 170.722656 121.589844 115.886719 119.917969 115.886719 119.917969 C 115.886719 119.917969 115.652344 110.234375 117.796875 107.742188 C 119.941406 105.253906 129.957031 98.101562 161.925781 94.046875 Z M 177.15625 97.878906 "/>
<path style=" stroke:none;fill-rule:nonzero;fill:rgb(7.45098%,0%,27.45098%);fill-opacity:1;" d="M 137.597656 166.058594 C 137.597656 166.058594 135.753906 167.640625 131.996094 167.835938 C 131.117188 167.882812 130.238281 167.847656 129.367188 167.722656 C 128.210938 167.578125 127.078125 167.253906 126 166.761719 L 115.878906 119.320312 C 115.878906 119.320312 126.84375 108.621094 132.5625 115.277344 C 133.3125 116.144531 133.945312 117.648438 134.488281 119.609375 C 138.117188 132.6875 137.597656 166.058594 137.597656 166.058594 Z M 137.597656 166.058594 "/>
<path style=" stroke:none;fill-rule:nonzero;fill:rgb(95.686275%,82.745098%,75.686275%);fill-opacity:1;" d="M 118.570312 163.09375 L 117.441406 169.386719 C 117.378906 169.71875 117.417969 170.066406 117.546875 170.371094 C 117.675781 170.671875 117.886719 170.914062 118.144531 171.046875 C 118.816406 171.402344 119.546875 171.5625 120.28125 171.515625 C 120.539062 171.5 120.789062 171.398438 121.003906 171.226562 C 121.21875 171.050781 121.390625 170.8125 121.503906 170.53125 L 123.753906 164.777344 Z M 118.570312 163.09375 "/>
<path style=" stroke:none;fill-rule:nonzero;fill:rgb(7.45098%,0%,27.45098%);fill-opacity:1;" d="M 127.292969 167.175781 C 127.292969 167.175781 125.179688 168.082031 121.511719 167.089844 C 120.652344 166.859375 119.8125 166.550781 118.996094 166.160156 C 117.910156 165.664062 116.882812 165.007812 115.945312 164.210938 L 116.074219 116.644531 C 116.074219 116.644531 128.898438 110.058594 133.03125 118.074219 C 133.574219 119.121094 133.871094 120.726562 133.988281 122.730469 C 134.761719 136.105469 127.292969 167.175781 127.292969 167.175781 Z M 127.292969 167.175781 "/>
<path style=" stroke:none;fill-rule:nonzero;fill:rgb(95.686275%,82.745098%,75.686275%);fill-opacity:1;" d="M 119.410156 68.078125 C 119.410156 68.078125 116.1875 68.378906 115.355469 68.078125 C 114.527344 67.78125 110.628906 64.960938 109.21875 65.558594 C 107.808594 66.15625 104.242188 70.601562 105.15625 72.597656 C 105.15625 72.597656 106.820312 72.648438 108.347656 70.738281 C 109.878906 68.828125 111.542969 70.132812 111.375 70.386719 C 111.210938 70.636719 108.804688 71.796875 109.21875 72.296875 C 109.632812 72.796875 112.785156 72.699219 113.53125 72.097656 C 114.277344 71.496094 119.832031 72.246094 119.832031 72.246094 Z M 119.410156 68.078125 "/>
<path style=" stroke:none;fill-rule:nonzero;fill:rgb(92.941176%,95.686275%,100%);fill-opacity:1;" d="M 194.945312 210.714844 C 194.945312 210.714844 214.847656 204.515625 220.460938 197.019531 C 226.074219 189.519531 230.929688 198.015625 227.289062 202.761719 C 223.652344 207.511719 194.945312 210.714844 194.945312 210.714844 Z M 194.945312 210.714844 "/>
<path style=" stroke:none;fill-rule:nonzero;fill:rgb(92.941176%,95.686275%,100%);fill-opacity:1;" d="M 273.738281 194.046875 L 245.621094 194.046875 C 245.289062 194.046875 244.96875 193.855469 244.734375 193.523438 C 244.496094 193.1875 244.363281 192.734375 244.363281 192.261719 C 244.363281 191.789062 244.496094 191.335938 244.734375 191 C 244.96875 190.664062 245.289062 190.476562 245.621094 190.476562 L 273.738281 190.476562 C 274.074219 190.476562 274.394531 190.664062 274.628906 191 C 274.867188 191.335938 275 191.789062 275 192.261719 C 275 192.734375 274.867188 193.1875 274.628906 193.523438 C 274.394531 193.855469 274.074219 194.046875 273.738281 194.046875 Z M 273.738281 194.046875 "/>
<path style=" stroke:none;fill-rule:nonzero;fill:rgb(92.941176%,95.686275%,100%);fill-opacity:1;" d="M 261.421875 186.90625 L 245.09375 186.90625 C 244.898438 186.902344 244.714844 186.839844 244.578125 186.730469 C 244.441406 186.617188 244.363281 186.46875 244.363281 186.308594 C 244.363281 186.152344 244.441406 186 244.578125 185.890625 C 244.714844 185.777344 244.898438 185.714844 245.09375 185.714844 L 261.421875 185.714844 C 261.613281 185.714844 261.800781 185.777344 261.9375 185.890625 C 262.074219 186 262.152344 186.152344 262.152344 186.308594 C 262.152344 186.46875 262.074219 186.617188 261.9375 186.730469 C 261.800781 186.839844 261.613281 186.902344 261.421875 186.90625 Z M 261.421875 186.90625 "/>
<path style=" stroke:none;fill-rule:nonzero;fill:rgb(9.019608%,47.843137%,88.627451%);fill-opacity:1;" d="M 175.675781 106.546875 C 175.925781 106.4375 176.3125 105.910156 176.472656 105.660156 C 176.636719 105.40625 176.636719 105.082031 176.660156 104.761719 C 177.320312 97.085938 180.289062 48.902344 160.1875 29.300781 C 160.1875 29.300781 159.03125 25.667969 149.570312 34.601562 C 140.109375 43.53125 145.167969 52.890625 147.445312 65.796875 C 147.425781 81.886719 146.351562 89.605469 144.542969 94.644531 C 143.519531 97.492188 143.058594 98.214844 143.058594 98.214844 C 150.417969 101.480469 168.371094 109.671875 175.675781 106.546875 Z M 175.675781 106.546875 "/>
<path style=" stroke:none;fill-rule:nonzero;fill:rgb(9.019608%,47.843137%,88.627451%);fill-opacity:1;" d="M 146.511719 38.753906 L 145.960938 56.660156 C 144.488281 57.277344 142.988281 57.789062 141.46875 58.195312 C 140.574219 54.742188 138.613281 50.5 137.007812 47.34375 C 142.910156 44.824219 146.511719 38.753906 146.511719 38.753906 Z M 146.511719 38.753906 "/>
<path style=" stroke:none;fill-rule:nonzero;fill:rgb(95.686275%,82.745098%,75.686275%);fill-opacity:1;" d="M 152.792969 62.570312 C 152.792969 62.570312 137.566406 77.929688 121.128906 71.226562 C 120.625 71.019531 120.09375 70.933594 119.5625 70.984375 C 119.03125 71.03125 118.511719 71.210938 118.039062 71.507812 L 113.316406 74.511719 C 112.359375 75.125 111.246094 75.269531 110.203125 74.917969 C 109.160156 74.566406 108.269531 73.746094 107.714844 72.628906 C 107.058594 71.304688 106.5 69.792969 106.386719 68.34375 L 115.636719 63.832031 L 114.957031 62.46875 C 114.957031 62.46875 119.472656 62.003906 120.652344 65.90625 C 120.652344 65.90625 129.253906 70.214844 143.761719 50.996094 C 143.761719 50.996094 150.347656 57.738281 152.792969 62.570312 Z M 152.792969 62.570312 "/>
<path style=" stroke:none;fill-rule:nonzero;fill:rgb(95.686275%,82.745098%,75.686275%);fill-opacity:1;" d="M 156.679688 21.640625 C 156.679688 21.640625 157.765625 16.59375 159.644531 18.007812 C 161.523438 19.421875 158.671875 23.664062 157.160156 23.847656 Z M 156.679688 21.640625 "/>
<path style=" stroke:none;fill-rule:nonzero;fill:rgb(95.686275%,82.745098%,75.686275%);fill-opacity:1;" d="M 147.238281 8.246094 C 147.238281 8.246094 144.148438 14.902344 143.632812 20.042969 C 143.433594 24.363281 145.15625 29.324219 149.308594 30.195312 C 153.460938 31.066406 156.960938 28.574219 158.855469 24.261719 C 158.855469 24.261719 161.824219 17.625 161.160156 14.902344 C 160.492188 12.183594 147.238281 8.246094 147.238281 8.246094 Z M 147.238281 8.246094 "/>
<path style=" stroke:none;fill-rule:nonzero;fill:rgb(9.803922%,5.098039%,26.666667%);fill-opacity:1;" d="M 157.4375 21.164062 L 157.199219 21.039062 C 157.128906 21 157.0625 20.945312 157.011719 20.878906 C 156.957031 20.808594 156.917969 20.726562 156.890625 20.640625 C 156.867188 20.550781 156.855469 20.457031 156.859375 20.363281 C 156.863281 20.269531 156.886719 20.179688 156.921875 20.09375 C 157.507812 18.734375 158.648438 15.609375 157.171875 14.882812 C 155.273438 13.941406 147.742188 12.089844 146.121094 8.875 C 144.558594 5.78125 145.941406 1.789062 148.019531 0.65625 C 148.085938 0.617188 148.164062 0.609375 148.230469 0.636719 C 148.300781 0.664062 148.359375 0.722656 148.394531 0.800781 L 148.570312 1.195312 C 148.59375 1.253906 148.636719 1.304688 148.683594 1.335938 C 148.734375 1.367188 148.789062 1.382812 148.847656 1.375 C 148.902344 1.367188 148.957031 1.339844 149 1.296875 C 149.042969 1.253906 149.074219 1.195312 149.089844 1.128906 C 149.101562 1.066406 149.132812 1.011719 149.175781 0.96875 C 149.214844 0.925781 149.265625 0.898438 149.320312 0.886719 C 149.375 0.878906 149.429688 0.886719 149.476562 0.914062 C 149.527344 0.945312 149.570312 0.988281 149.597656 1.042969 C 150.09375 2.011719 151.445312 3.566406 155.050781 4.371094 C 160.175781 5.507812 163.550781 8.003906 163.644531 12.269531 C 163.644531 12.332031 163.660156 12.390625 163.6875 12.441406 C 163.714844 12.492188 163.75 12.535156 163.792969 12.566406 C 163.839844 12.59375 163.890625 12.605469 163.9375 12.605469 C 163.988281 12.601562 164.039062 12.582031 164.082031 12.550781 C 164.253906 12.589844 164.472656 12.390625 165.28125 13.210938 C 166.753906 15.324219 166.707031 18.085938 163.621094 21.125 C 163.585938 21.15625 163.558594 21.199219 163.539062 21.246094 C 163.519531 21.296875 163.511719 21.347656 163.511719 21.402344 C 163.515625 21.453125 163.527344 21.507812 163.546875 21.554688 C 163.570312 21.601562 163.597656 21.640625 163.632812 21.671875 C 164.195312 22.109375 163.222656 24.316406 162.867188 24.542969 C 160.632812 25.980469 158.964844 25.863281 158.324219 25.734375 C 158.285156 25.730469 158.25 25.710938 158.214844 25.6875 C 158.183594 25.660156 158.15625 25.628906 158.132812 25.589844 C 158.113281 25.550781 158.097656 25.507812 158.09375 25.464844 C 158.085938 25.417969 158.085938 25.371094 158.09375 25.328125 L 158.78125 21.589844 C 158.789062 21.539062 158.789062 21.488281 158.777344 21.4375 C 158.769531 21.390625 158.75 21.34375 158.722656 21.304688 C 158.699219 21.265625 158.664062 21.234375 158.625 21.210938 C 158.589844 21.1875 158.546875 21.175781 158.503906 21.175781 Z M 157.4375 21.164062 "/>
<path style=" stroke:none;fill-rule:nonzero;fill:rgb(95.686275%,82.745098%,75.686275%);fill-opacity:1;" d="M 151.171875 28.449219 L 152.296875 34.78125 C 152.6875 37.007812 154.28125 37.832031 156.5 37.226562 C 158.394531 36.710938 160.320312 35.289062 159.890625 33.347656 L 157.632812 23.511719 Z M 151.171875 28.449219 "/>
<path style=" stroke:none;fill-rule:nonzero;fill:rgb(7.45098%,0%,27.45098%);fill-opacity:1;" d="M 150.316406 1.863281 C 150.316406 2.890625 149.625 3.726562 148.773438 3.726562 C 147.917969 3.726562 147.226562 2.890625 147.226562 1.863281 C 147.226562 0.835938 147.917969 0 148.773438 0 C 149.625 0 150.316406 0.835938 150.316406 1.863281 Z M 150.316406 1.863281 "/>
<path style=" stroke:none;fill-rule:nonzero;fill:rgb(24.313725%,46.27451%,73.333333%);fill-opacity:1;" d="M 118.390625 178.195312 C 121.65625 178.535156 127.324219 179.085938 131.792969 179.324219 C 134.476562 179.46875 136.023438 179.148438 136.914062 178.71875 C 136.914062 178.839844 136.914062 178.957031 136.90625 179.0625 C 136.894531 179.335938 136.796875 179.597656 136.632812 179.792969 C 136.472656 179.984375 136.257812 180.101562 136.027344 180.113281 C 127.585938 180.683594 120.871094 180.3125 118.484375 180.136719 C 118.371094 180.128906 118.261719 180.089844 118.167969 180.015625 C 118.070312 179.941406 117.992188 179.84375 117.9375 179.722656 C 117.882812 179.601562 117.855469 179.46875 117.859375 179.332031 C 117.859375 179.195312 117.890625 179.0625 117.945312 178.941406 C 118.082031 178.679688 118.230469 178.429688 118.390625 178.195312 Z M 118.390625 178.195312 "/>
<path style=" stroke:none;fill-rule:nonzero;fill:rgb(7.45098%,0%,27.45098%);fill-opacity:1;" d="M 131.792969 179.324219 C 127.324219 179.085938 121.65625 178.535156 118.390625 178.195312 C 121.601562 173.441406 131.792969 170.238281 131.792969 170.238281 L 134.667969 170.238281 C 136.648438 173.679688 136.933594 176.957031 136.914062 178.71875 C 136.023438 179.148438 134.476562 179.46875 131.792969 179.324219 Z M 131.792969 179.324219 "/>
<path style=" stroke:none;fill-rule:nonzero;fill:rgb(24.313725%,46.27451%,73.333333%);fill-opacity:1;" d="M 103.882812 174.613281 C 107.046875 175.640625 112.546875 177.386719 116.910156 178.570312 C 119.53125 179.28125 121.101562 179.296875 122.039062 179.0625 C 122.019531 179.179688 122.003906 179.292969 121.980469 179.398438 C 121.929688 179.664062 121.796875 179.902344 121.605469 180.058594 C 121.417969 180.214844 121.1875 180.28125 120.960938 180.246094 C 112.570312 179.015625 106.011719 177.222656 103.691406 176.542969 C 103.582031 176.511719 103.480469 176.449219 103.394531 176.355469 C 103.3125 176.265625 103.25 176.148438 103.214844 176.019531 C 103.175781 175.890625 103.167969 175.75 103.191406 175.617188 C 103.210938 175.484375 103.261719 175.359375 103.335938 175.253906 C 103.503906 175.023438 103.6875 174.808594 103.882812 174.613281 Z M 103.882812 174.613281 "/>
<path style=" stroke:none;fill-rule:nonzero;fill:rgb(7.45098%,0%,27.45098%);fill-opacity:1;" d="M 116.910156 178.570312 C 112.546875 177.386719 107.046875 175.640625 103.882812 174.609375 C 107.738281 170.613281 118.238281 169.625 118.238281 169.625 L 121.070312 170.238281 C 122.515625 174.046875 122.316406 177.332031 122.039062 179.0625 C 121.101562 179.296875 119.53125 179.28125 116.910156 178.570312 Z M 116.910156 178.570312 "/>
<path style=" stroke:none;fill-rule:nonzero;fill:rgb(9.803922%,5.098039%,26.666667%);fill-opacity:1;" d="M 206.804688 94.046875 L 211.746094 94.046875 L 211.3125 91.964844 L 211.746094 90.476562 L 206.804688 90.476562 Z M 206.804688 94.046875 "/>
<path style=" stroke:none;fill-rule:nonzero;fill:rgb(27.45098%,22.745098%,44.705882%);fill-opacity:1;" d="M 206.804688 90.476562 L 201.863281 90.476562 L 202.300781 92.558594 L 201.863281 94.046875 L 206.804688 94.046875 Z M 206.804688 90.476562 "/>
</g>
</svg>
