<svg width="80" height="73" viewBox="0 0 80 73" fill="none" xmlns="http://www.w3.org/2000/svg">
<path d="M74.5033 16.3916H5.46261C2.90939 16.3916 0.8396 18.4614 0.8396 21.0146V63.732C0.8396 66.2853 2.90939 68.355 5.46261 68.355H74.5033C77.0565 68.355 79.1263 66.2853 79.1263 63.732V21.0146C79.1263 18.4614 77.0565 16.3916 74.5033 16.3916Z" fill="#85ADE8"/>
<path d="M67.2352 1.28931H4.1709V33.4943H67.2352V1.28931Z" fill="#31CDCD"/>
<path d="M66.8992 0.811035H3.83496V33.016H66.8992V0.811035Z" fill="#31CDCD"/>
<path d="M66.4515 0.394043H3.38721V32.599H66.4515V0.394043Z" fill="#31CDCD"/>
<path d="M66.0189 0H2.95459V32.205H66.0189V0Z" fill="#91DFDF"/>
<path d="M5.42236 2.4126V29.7874H63.5541V2.4126H5.42236ZM61.3513 27.669H7.62513V4.53606H61.3513V27.669Z" fill="#31CDCD"/>
<path d="M5.42236 2.4126V8.63972C6.2895 8.8925 7.20846 8.90882 8.08403 8.68701C8.9596 8.46519 9.75994 8.01331 10.4021 7.37816C11.0443 6.74301 11.505 5.9477 11.7365 5.07462C11.9679 4.20155 11.9618 3.28247 11.7186 2.4126H5.42236Z" fill="#31CDCD"/>
<path d="M63.5537 2.3894H57.3266C57.0744 3.25638 57.0585 4.17502 57.2806 5.0502C57.5027 5.92538 57.9546 6.72529 58.5897 7.36713C59.2247 8.00897 60.0198 8.46941 60.8926 8.70077C61.7654 8.93214 62.6841 8.92602 63.5537 8.68305V2.3894Z" fill="#31CDCD"/>
<path d="M41.3115 16.1024C41.312 17.452 40.9123 18.7715 40.1628 19.8939C39.4134 21.0163 38.3479 21.8912 37.1012 22.4081C35.8545 22.9249 34.4825 23.0604 33.1587 22.7974C31.835 22.5344 30.6189 21.8848 29.6644 20.9306C28.7099 19.9765 28.0598 18.7607 27.7963 17.4371C27.5329 16.1134 27.6678 14.7414 28.1842 13.4944C28.7005 12.2475 29.5751 11.1817 30.6972 10.4318C31.8194 9.68198 33.1387 9.28174 34.4883 9.28174C36.2975 9.28174 38.0326 10.0003 39.3121 11.2793C40.5916 12.5584 41.3108 14.2932 41.3115 16.1024Z" fill="#31CDCD"/>
<path d="M69.3865 20.4543H5.46261C2.90939 20.4543 0.8396 22.5241 0.8396 25.0774V67.7948C0.8396 70.348 2.90939 72.4178 5.46261 72.4178H69.3865C71.9398 72.4178 74.0095 70.348 74.0095 67.7948V25.0774C74.0095 22.5241 71.9398 20.4543 69.3865 20.4543Z" fill="#177AE2"/>
<path d="M76.189 53.5367H53.4833C51.6004 53.5367 49.7946 52.7887 48.4632 51.4573C47.1318 50.1259 46.3838 48.3201 46.3838 46.4372C46.3835 45.5048 46.5668 44.5814 46.9235 43.7199C47.2802 42.8584 47.8031 42.0756 48.4624 41.4163C49.1218 40.757 49.9046 40.234 50.7661 39.8774C51.6276 39.5207 52.5509 39.3373 53.4833 39.3376H76.189V53.5367Z" fill="#85ADE8"/>
<path d="M53.4781 52.0018C56.5513 52.0018 59.0426 49.5105 59.0426 46.4373C59.0426 43.3641 56.5513 40.8728 53.4781 40.8728C50.4049 40.8728 47.9136 43.3641 47.9136 46.4373C47.9136 49.5105 50.4049 52.0018 53.4781 52.0018Z" fill="#E3E3E3"/>
</svg>
