<svg width="24" height="24" viewBox="0 0 24 24" fill="none" xmlns="http://www.w3.org/2000/svg">
<path fill-rule="evenodd" clip-rule="evenodd" d="M18.0532 12.7622C17.8855 12.7622 17.7101 12.7088 17.5424 12.6707C17.2028 12.5958 16.869 12.4965 16.5437 12.3734C15.8112 12.1069 14.9957 12.4357 14.653 13.1357L14.4853 13.4788C13.7427 13.0657 13.0604 12.5527 12.4573 11.954C11.8587 11.351 11.3456 10.6687 10.9326 9.92614L11.2528 9.71266C11.9528 9.36991 12.2816 8.55442 12.0151 7.82196C11.8941 7.49599 11.7948 7.16234 11.7178 6.82325C11.6797 6.65551 11.6492 6.48016 11.6263 6.30482C11.4351 5.19538 10.4649 4.39013 9.33918 4.4065H7.05204C6.38719 4.40026 5.75254 4.68363 5.31337 5.18282C4.87421 5.682 4.674 6.34759 4.76489 7.00622C5.60041 13.5766 10.786 18.7434 17.3594 19.555H17.6491C18.2113 19.5558 18.7541 19.3495 19.1739 18.9756C19.6618 18.5392 19.9393 17.9148 19.9363 17.2602V14.9731C19.917 13.881 19.1283 12.955 18.0532 12.7622ZM18.4344 17.3365C18.4341 17.5554 18.3397 17.7637 18.1752 17.9082C18.0029 18.057 17.776 18.1262 17.55 18.0988C11.6767 17.3458 7.06059 12.7077 6.3354 6.83086C6.31088 6.60519 6.37975 6.37932 6.526 6.20572C6.67053 6.04121 6.8788 5.94678 7.09778 5.94651H9.38492C9.75063 5.93837 10.0706 6.19113 10.1473 6.54879C10.1778 6.75717 10.2159 6.96302 10.2617 7.16632C10.3497 7.5682 10.4669 7.96314 10.6124 8.34801L9.54502 8.84356C9.36071 8.92812 9.21769 9.08263 9.14757 9.27291C9.07748 9.4632 9.08606 9.67359 9.17146 9.85752C10.2687 12.2077 12.1579 14.0969 14.5081 15.1942C14.6937 15.2704 14.9019 15.2704 15.0875 15.1942C15.2796 15.1255 15.4361 14.9827 15.5221 14.7977L15.9948 13.7304C16.3889 13.8713 16.7911 13.9885 17.1993 14.0811C17.4026 14.1268 17.6085 14.165 17.8169 14.1954C18.1745 14.2722 18.4273 14.5921 18.4191 14.9578L18.4344 17.3365Z" fill="#177AE2"/>
<path d="M19.4869 4.48311C19.6732 4.56047 19.8212 4.7085 19.8986 4.89479C19.9376 4.98645 19.9584 5.08487 19.9596 5.1845V8.23402C19.9596 8.65507 19.6182 8.9964 19.1972 8.9964C18.7761 8.9964 18.4348 8.65507 18.4348 8.23402V7.02946L15.9189 9.53769C15.6216 9.83329 15.1413 9.83329 14.844 9.53769C14.5484 9.24033 14.5484 8.76009 14.844 8.46273L17.3522 5.94688H16.1477C15.7266 5.94688 15.3853 5.60555 15.3853 5.1845C15.3853 4.76345 15.7266 4.42212 16.1477 4.42212H19.1972C19.2968 4.42332 19.3952 4.44404 19.4869 4.48311Z" fill="#31CDCD"/>
</svg>
