<svg width="24" height="24" viewBox="0 0 24 24" fill="none" xmlns="http://www.w3.org/2000/svg">
<path fill-rule="evenodd" clip-rule="evenodd" d="M18.7803 8.2937C18.7803 8.2937 18.7803 8.2937 18.7803 8.22966L18.7323 8.10958C18.7156 8.0841 18.6968 8.06001 18.6763 8.03754C18.6549 8.00365 18.6308 7.97153 18.6042 7.94148L18.5322 7.88544L18.4041 7.8214L12.4003 4.11509C12.1408 3.95285 11.8114 3.95285 11.5518 4.11509L5.59612 7.8214L5.52407 7.88544L5.45203 7.94148C5.42549 7.97153 5.4014 8.00365 5.37998 8.03754C5.3594 8.06001 5.34067 8.0841 5.32395 8.10958L5.27592 8.22966C5.27592 8.22966 5.27592 8.22966 5.27592 8.2937C5.26805 8.36285 5.26805 8.43267 5.27592 8.50183V15.4982C5.27536 15.7748 5.41762 16.032 5.65215 16.1786L11.6559 19.8849C11.6928 19.9078 11.7335 19.924 11.776 19.933C11.776 19.933 11.816 19.933 11.84 19.933C11.9754 19.9759 12.1208 19.9759 12.2563 19.933C12.2563 19.933 12.2963 19.933 12.3203 19.933C12.3628 19.924 12.4034 19.9078 12.4404 19.8849L18.4041 16.1786C18.6386 16.032 18.7809 15.7748 18.7803 15.4982V8.50183C18.7882 8.43267 18.7882 8.36285 18.7803 8.2937ZM11.1996 17.7716L6.79687 15.0499V9.94273L11.1996 12.6564V17.7716ZM12.0001 11.2716L7.51732 8.50183L12.0001 5.7401L16.4829 8.50183L12.0001 11.2716ZM17.2033 15.0499L12.8006 17.7716V12.6564L17.2033 9.94273V15.0499Z" fill="#177AE2"/>
<path d="M11.1992 17.7716V12.6564L11.9997 13L12.8002 12.6564V17.7716L11.9998 18.5L11.1992 17.7716Z" fill="#31CDCD"/>
</svg>
