<svg width="160" height="44" viewBox="0 0 160 44" fill="none" xmlns="http://www.w3.org/2000/svg">
<rect y="12" width="160" height="32" rx="1" fill="#FDFDFD"/>
<circle cx="80" cy="13" r="13" fill="#31CDCD"/>
<path d="M138.915 37.649C138.993 37.649 139.048 37.6325 139.081 37.5995C139.117 37.5635 139.135 37.5005 139.135 37.4105V36.2045C139.135 36.1745 139.15 36.1595 139.18 36.1595H139.468C139.498 36.1595 139.513 36.1745 139.513 36.2045V37.433C139.513 37.628 139.473 37.772 139.392 37.865C139.311 37.955 139.173 38 138.978 38H136.813C136.624 38 136.489 37.955 136.408 37.865C136.327 37.772 136.287 37.628 136.287 37.433V36.4925C136.287 36.4625 136.302 36.4475 136.332 36.4475H136.62C136.65 36.4475 136.665 36.4625 136.665 36.4925V37.4105C136.665 37.5005 136.681 37.5635 136.714 37.5995C136.75 37.6325 136.806 37.649 136.881 37.649H138.915ZM138.028 35.9795C137.998 35.9795 137.983 35.9645 137.983 35.9345V35.606C137.983 35.576 137.998 35.561 138.028 35.561H138.334C138.364 35.561 138.379 35.576 138.379 35.606V35.9345C138.379 35.9645 138.364 35.9795 138.334 35.9795H138.028ZM137.479 35.9795C137.449 35.9795 137.434 35.9645 137.434 35.9345V35.606C137.434 35.576 137.449 35.561 137.479 35.561H137.785C137.815 35.561 137.83 35.576 137.83 35.606V35.9345C137.83 35.9645 137.815 35.9795 137.785 35.9795H137.479ZM140.086 34.985C140.086 34.955 140.101 34.94 140.131 34.94H140.419C140.449 34.94 140.464 34.955 140.464 34.985V37.4105C140.464 37.5005 140.481 37.5635 140.514 37.5995C140.55 37.6325 140.605 37.649 140.68 37.649H140.878C140.998 37.649 141.058 37.709 141.058 37.829C141.058 37.904 141.043 37.952 141.013 37.973C140.986 37.991 140.941 38 140.878 38H140.613C140.424 38 140.289 37.955 140.208 37.865C140.127 37.772 140.086 37.628 140.086 37.433V34.985ZM141.932 36.4295C141.83 36.4295 141.735 36.4505 141.648 36.4925C141.564 36.5345 141.489 36.5915 141.423 36.6635C141.405 36.6845 141.384 36.686 141.36 36.668L141.162 36.506C141.135 36.485 141.131 36.464 141.149 36.443C141.233 36.338 141.336 36.251 141.459 36.182C141.585 36.113 141.738 36.0785 141.918 36.0785C142.125 36.0785 142.295 36.1115 142.427 36.1775C142.559 36.2405 142.662 36.3245 142.737 36.4295C142.815 36.5345 142.869 36.656 142.899 36.794C142.929 36.932 142.944 37.0745 142.944 37.2215C142.944 37.2485 142.943 37.274 142.94 37.298C142.94 37.322 142.94 37.346 142.94 37.37C142.946 37.463 142.985 37.5335 143.057 37.5815C143.132 37.6265 143.228 37.649 143.345 37.649H143.394C143.454 37.649 143.499 37.6625 143.529 37.6895C143.559 37.7135 143.574 37.7555 143.574 37.8155C143.574 37.8935 143.559 37.9445 143.529 37.9685C143.502 37.9895 143.457 38 143.394 38H143.3C143.198 38 143.106 37.979 143.025 37.937C142.944 37.892 142.887 37.826 142.854 37.739C142.803 37.835 142.731 37.9025 142.638 37.9415C142.548 37.9805 142.434 38 142.296 38H140.879C140.759 38 140.699 37.94 140.699 37.82C140.699 37.745 140.714 37.6985 140.744 37.6805C140.771 37.6595 140.816 37.649 140.879 37.649H142.157C142.241 37.649 142.308 37.643 142.359 37.631C142.41 37.616 142.449 37.592 142.476 37.559C142.503 37.526 142.521 37.4825 142.53 37.4285C142.539 37.3715 142.544 37.3025 142.544 37.2215C142.544 37.1045 142.533 36.998 142.512 36.902C142.491 36.803 142.457 36.719 142.409 36.65C142.364 36.578 142.302 36.524 142.224 36.488C142.146 36.449 142.049 36.4295 141.932 36.4295ZM141.846 38.828C141.816 38.828 141.801 38.813 141.801 38.783V38.4545C141.801 38.4245 141.816 38.4095 141.846 38.4095H142.152C142.182 38.4095 142.197 38.4245 142.197 38.4545V38.783C142.197 38.813 142.182 38.828 142.152 38.828H141.846ZM143.424 38C143.364 38 143.319 37.9895 143.289 37.9685C143.259 37.9475 143.244 37.9055 143.244 37.8425C143.244 37.7675 143.259 37.7165 143.289 37.6895C143.316 37.6625 143.361 37.649 143.424 37.649H143.73C143.805 37.649 143.859 37.6325 143.892 37.5995C143.928 37.5635 143.946 37.5005 143.946 37.4105V36.2045C143.946 36.1745 143.961 36.1595 143.991 36.1595H144.279C144.309 36.1595 144.324 36.1745 144.324 36.2045V37.343C144.324 37.445 144.36 37.5215 144.432 37.5725C144.507 37.6235 144.606 37.649 144.729 37.649H144.783C144.843 37.649 144.888 37.6625 144.918 37.6895C144.948 37.7135 144.963 37.7555 144.963 37.8155C144.963 37.8935 144.948 37.9445 144.918 37.9685C144.891 37.9895 144.846 38 144.783 38H144.684C144.588 38 144.504 37.9805 144.432 37.9415C144.36 37.9025 144.304 37.844 144.265 37.766C144.19 37.922 144.034 38 143.797 38H143.424ZM144.247 35.714C144.217 35.714 144.202 35.699 144.202 35.669V35.3405C144.202 35.3105 144.217 35.2955 144.247 35.2955H144.553C144.583 35.2955 144.598 35.3105 144.598 35.3405V35.669C144.598 35.699 144.583 35.714 144.553 35.714H144.247ZM143.698 35.714C143.668 35.714 143.653 35.699 143.653 35.669V35.3405C143.653 35.3105 143.668 35.2955 143.698 35.2955H144.004C144.034 35.2955 144.049 35.3105 144.049 35.3405V35.669C144.049 35.699 144.034 35.714 144.004 35.714H143.698ZM144.813 38C144.753 38 144.708 37.9895 144.678 37.9685C144.648 37.9475 144.633 37.9055 144.633 37.8425C144.633 37.7675 144.648 37.7165 144.678 37.6895C144.705 37.6625 144.75 37.649 144.813 37.649H145.096C145.171 37.649 145.225 37.6325 145.258 37.5995C145.294 37.5635 145.312 37.5005 145.312 37.4105V36.2045C145.312 36.1745 145.327 36.1595 145.357 36.1595H145.645C145.675 36.1595 145.69 36.1745 145.69 36.2045V37.343C145.69 37.445 145.726 37.5215 145.798 37.5725C145.873 37.6235 145.972 37.649 146.095 37.649H146.149C146.209 37.649 146.254 37.6625 146.284 37.6895C146.314 37.7135 146.329 37.7555 146.329 37.8155C146.329 37.8935 146.314 37.9445 146.284 37.9685C146.257 37.9895 146.212 38 146.149 38H146.05C145.954 38 145.87 37.9805 145.798 37.9415C145.726 37.9025 145.671 37.844 145.632 37.766C145.557 37.922 145.401 38 145.164 38H144.813ZM145.348 35.714C145.318 35.714 145.303 35.699 145.303 35.669V35.3405C145.303 35.3105 145.318 35.2955 145.348 35.2955H145.654C145.684 35.2955 145.699 35.3105 145.699 35.3405V35.669C145.699 35.699 145.684 35.714 145.654 35.714H145.348ZM147.472 38.0315C147.331 38.0315 147.206 38.012 147.098 37.973C146.99 37.931 146.899 37.8665 146.824 37.7795C146.761 37.8755 146.68 37.937 146.581 37.964C146.482 37.988 146.39 38 146.306 38H146.113C145.993 38 145.933 37.94 145.933 37.82C145.933 37.745 145.948 37.6985 145.978 37.6805C146.005 37.6595 146.05 37.649 146.113 37.649H146.338C146.371 37.649 146.404 37.643 146.437 37.631C146.47 37.616 146.5 37.5935 146.527 37.5635C146.554 37.5305 146.575 37.4885 146.59 37.4375C146.608 37.3835 146.617 37.3175 146.617 37.2395C146.614 37.2095 146.612 37.181 146.612 37.154C146.612 37.124 146.612 37.0925 146.612 37.0595C146.612 36.7145 146.689 36.4655 146.842 36.3125C146.995 36.1565 147.205 36.0785 147.472 36.0785C147.739 36.0785 147.949 36.1565 148.102 36.3125C148.255 36.4655 148.331 36.7145 148.331 37.0595C148.331 37.0925 148.33 37.1255 148.327 37.1585C148.327 37.1915 148.325 37.223 148.322 37.253C148.325 37.406 148.355 37.511 148.412 37.568C148.472 37.622 148.535 37.649 148.601 37.649H148.732C148.792 37.649 148.837 37.6625 148.867 37.6895C148.897 37.7135 148.912 37.7555 148.912 37.8155C148.912 37.8935 148.897 37.9445 148.867 37.9685C148.84 37.9895 148.795 38 148.732 38H148.633C148.591 38 148.546 37.9985 148.498 37.9955C148.45 37.9895 148.402 37.979 148.354 37.964C148.309 37.949 148.265 37.928 148.223 37.901C148.181 37.871 148.145 37.832 148.115 37.784C148.04 37.871 147.949 37.934 147.841 37.973C147.733 38.012 147.61 38.0315 147.472 38.0315ZM147.472 36.4295C147.304 36.4295 147.181 36.485 147.103 36.596C147.028 36.707 146.99 36.8615 146.99 37.0595C146.99 37.2755 147.028 37.433 147.103 37.532C147.181 37.631 147.304 37.6805 147.472 37.6805C147.64 37.6805 147.761 37.631 147.836 37.532C147.914 37.433 147.953 37.2755 147.953 37.0595C147.953 36.8615 147.914 36.707 147.836 36.596C147.761 36.485 147.64 36.4295 147.472 36.4295ZM148.727 38C148.667 38 148.622 37.9895 148.592 37.9685C148.562 37.9475 148.547 37.9055 148.547 37.8425C148.547 37.7675 148.562 37.7165 148.592 37.6895C148.619 37.6625 148.664 37.649 148.727 37.649H149.011C149.086 37.649 149.14 37.6325 149.173 37.5995C149.209 37.5635 149.227 37.5005 149.227 37.4105V34.985C149.227 34.955 149.242 34.94 149.272 34.94H149.56C149.59 34.94 149.605 34.955 149.605 34.985V37.433C149.605 37.628 149.564 37.772 149.483 37.865C149.402 37.955 149.267 38 149.078 38H148.727ZM150.611 37.955C150.611 37.985 150.596 38 150.566 38H150.278C150.248 38 150.233 37.985 150.233 37.955V34.985C150.233 34.955 150.248 34.94 150.278 34.94H150.566C150.596 34.94 150.611 34.955 150.611 34.985V37.955Z" fill="#979C9D"/>
<path d="M99.2823 36.0785V35.885C99.2823 35.855 99.2973 35.84 99.3273 35.84H99.6153C99.6453 35.84 99.6603 35.855 99.6603 35.885V37.4105C99.6603 37.5005 99.6768 37.5635 99.7098 37.5995C99.7458 37.6325 99.8013 37.649 99.8763 37.649H100.074C100.194 37.649 100.254 37.709 100.254 37.829C100.254 37.904 100.239 37.952 100.209 37.973C100.182 37.991 100.137 38 100.074 38H99.8088C99.6618 38 99.5463 37.973 99.4623 37.919C99.3813 37.862 99.3273 37.769 99.3003 37.64C99.2403 37.694 99.1683 37.7345 99.0843 37.7615C99.0003 37.7885 98.9088 37.802 98.8098 37.802C98.6928 37.802 98.5833 37.7855 98.4813 37.7525C98.3823 37.7195 98.2953 37.67 98.2203 37.604C98.1483 37.535 98.0913 37.4495 98.0493 37.3475C98.0073 37.2425 97.9863 37.1195 97.9863 36.9785C97.9863 36.8105 98.0103 36.6695 98.0583 36.5555C98.1063 36.4415 98.1693 36.35 98.2473 36.281C98.3253 36.209 98.4153 36.158 98.5173 36.128C98.6223 36.095 98.7303 36.0785 98.8413 36.0785H99.2823ZM98.8143 37.451C98.9853 37.451 99.1053 37.4015 99.1743 37.3025C99.2463 37.2005 99.2823 37.0595 99.2823 36.8795V36.4295H98.8413C98.7003 36.4295 98.5848 36.47 98.4948 36.551C98.4078 36.629 98.3643 36.7715 98.3643 36.9785C98.3643 37.1345 98.4033 37.253 98.4813 37.334C98.5593 37.412 98.6703 37.451 98.8143 37.451ZM98.9718 35.534C98.9418 35.534 98.9268 35.519 98.9268 35.489V35.1605C98.9268 35.1305 98.9418 35.1155 98.9718 35.1155H99.2778C99.3078 35.1155 99.3228 35.1305 99.3228 35.1605V35.489C99.3228 35.519 99.3078 35.534 99.2778 35.534H98.9718ZM98.4228 35.534C98.3928 35.534 98.3778 35.519 98.3778 35.489V35.1605C98.3778 35.1305 98.3928 35.1155 98.4228 35.1155H98.7288C98.7588 35.1155 98.7738 35.1305 98.7738 35.1605V35.489C98.7738 35.519 98.7588 35.534 98.7288 35.534H98.4228ZM101.433 38.0315C101.292 38.0315 101.168 38.012 101.06 37.973C100.952 37.931 100.86 37.8665 100.785 37.7795C100.722 37.8755 100.641 37.937 100.542 37.964C100.443 37.988 100.352 38 100.268 38H100.074C99.9542 38 99.8942 37.94 99.8942 37.82C99.8942 37.745 99.9092 37.6985 99.9392 37.6805C99.9662 37.6595 100.011 37.649 100.074 37.649H100.299C100.332 37.649 100.365 37.643 100.398 37.631C100.431 37.616 100.461 37.5935 100.488 37.5635C100.515 37.5305 100.536 37.4885 100.551 37.4375C100.569 37.3835 100.578 37.3175 100.578 37.2395C100.575 37.2095 100.574 37.181 100.574 37.154C100.574 37.124 100.574 37.0925 100.574 37.0595C100.574 36.7145 100.65 36.4655 100.803 36.3125C100.956 36.1565 101.166 36.0785 101.433 36.0785C101.7 36.0785 101.91 36.1565 102.063 36.3125C102.216 36.4655 102.293 36.7145 102.293 37.0595C102.293 37.0925 102.291 37.1255 102.288 37.1585C102.288 37.1915 102.287 37.223 102.284 37.253C102.287 37.406 102.317 37.511 102.374 37.568C102.434 37.622 102.497 37.649 102.563 37.649H102.693C102.753 37.649 102.798 37.6625 102.828 37.6895C102.858 37.7135 102.873 37.7555 102.873 37.8155C102.873 37.8935 102.858 37.9445 102.828 37.9685C102.801 37.9895 102.756 38 102.693 38H102.594C102.552 38 102.507 37.9985 102.459 37.9955C102.411 37.9895 102.363 37.979 102.315 37.964C102.27 37.949 102.227 37.928 102.185 37.901C102.143 37.871 102.107 37.832 102.077 37.784C102.002 37.871 101.91 37.934 101.802 37.973C101.694 38.012 101.571 38.0315 101.433 38.0315ZM101.433 36.4295C101.265 36.4295 101.142 36.485 101.064 36.596C100.989 36.707 100.952 36.8615 100.952 37.0595C100.952 37.2755 100.989 37.433 101.064 37.532C101.142 37.631 101.265 37.6805 101.433 37.6805C101.601 37.6805 101.723 37.631 101.798 37.532C101.876 37.433 101.915 37.2755 101.915 37.0595C101.915 36.8615 101.876 36.707 101.798 36.596C101.723 36.485 101.601 36.4295 101.433 36.4295ZM103.067 35.543C103.043 35.513 103.023 35.477 103.008 35.435C102.993 35.393 102.986 35.345 102.986 35.291C102.986 35.246 102.993 35.1995 103.008 35.1515C103.023 35.1005 103.05 35.054 103.089 35.012C103.128 34.97 103.178 34.9355 103.238 34.9085C103.301 34.8785 103.38 34.8635 103.476 34.8635C103.56 34.8635 103.638 34.88 103.71 34.913C103.782 34.943 103.835 34.9835 103.868 35.0345C103.88 35.0525 103.878 35.069 103.863 35.084L103.746 35.183C103.737 35.189 103.725 35.1845 103.71 35.1695C103.68 35.1425 103.646 35.12 103.607 35.102C103.568 35.081 103.52 35.0705 103.463 35.0705C103.376 35.0705 103.313 35.0945 103.274 35.1425C103.235 35.1905 103.215 35.243 103.215 35.3C103.215 35.366 103.232 35.4185 103.265 35.4575C103.298 35.4965 103.331 35.525 103.364 35.543H103.872C103.89 35.543 103.899 35.5535 103.899 35.5745V35.7185C103.899 35.7395 103.89 35.75 103.872 35.75H102.914C102.896 35.75 102.887 35.7395 102.887 35.7185V35.5745C102.887 35.5535 102.896 35.543 102.914 35.543H103.067ZM102.72 38C102.66 38 102.615 37.9895 102.585 37.9685C102.555 37.9475 102.54 37.9055 102.54 37.8425C102.54 37.7675 102.555 37.7165 102.585 37.6895C102.612 37.6625 102.657 37.649 102.72 37.649H103.004C103.079 37.649 103.133 37.6325 103.166 37.5995C103.202 37.5635 103.22 37.5005 103.22 37.4105V36.2045C103.22 36.1745 103.235 36.1595 103.265 36.1595H103.553C103.583 36.1595 103.598 36.1745 103.598 36.2045V37.433C103.598 37.628 103.557 37.772 103.476 37.865C103.395 37.955 103.26 38 103.071 38H102.72ZM104.27 34.985C104.27 34.955 104.285 34.94 104.315 34.94H104.603C104.633 34.94 104.648 34.955 104.648 34.985V37.4105C104.648 37.5005 104.664 37.5635 104.697 37.5995C104.733 37.6325 104.789 37.649 104.864 37.649H105.062C105.182 37.649 105.242 37.709 105.242 37.829C105.242 37.904 105.227 37.952 105.197 37.973C105.17 37.991 105.125 38 105.062 38H104.796C104.607 38 104.472 37.955 104.391 37.865C104.31 37.772 104.27 37.628 104.27 37.433V34.985ZM106.219 36.0785C106.372 36.0785 106.504 36.0995 106.615 36.1415C106.726 36.1805 106.817 36.236 106.889 36.308C106.964 36.38 107.02 36.467 107.056 36.569C107.092 36.668 107.11 36.7775 107.11 36.8975C107.11 37.0505 107.074 37.193 107.002 37.325C106.933 37.457 106.835 37.5665 106.709 37.6535C106.724 37.6505 106.747 37.649 106.777 37.649H107.402C107.462 37.649 107.507 37.6595 107.537 37.6805C107.567 37.7015 107.582 37.7435 107.582 37.8065C107.582 37.8815 107.567 37.9325 107.537 37.9595C107.51 37.9865 107.465 38 107.402 38H106.804C106.696 38 106.594 37.9955 106.498 37.9865C106.402 37.9775 106.31 37.946 106.223 37.892C106.124 37.946 106.018 37.9775 105.904 37.9865C105.793 37.9955 105.694 38 105.607 38H105.062C104.942 38 104.882 37.94 104.882 37.82C104.882 37.745 104.897 37.6985 104.927 37.6805C104.954 37.6595 104.999 37.649 105.062 37.649H105.724C105.601 37.562 105.503 37.454 105.431 37.325C105.362 37.193 105.328 37.0505 105.328 36.8975C105.328 36.7775 105.346 36.668 105.382 36.569C105.418 36.467 105.472 36.38 105.544 36.308C105.619 36.236 105.712 36.1805 105.823 36.1415C105.934 36.0995 106.066 36.0785 106.219 36.0785ZM106.219 36.4295C106.075 36.4295 105.956 36.4715 105.863 36.5555C105.77 36.6395 105.724 36.761 105.724 36.92C105.724 37.082 105.772 37.2185 105.868 37.3295C105.964 37.4375 106.081 37.5185 106.219 37.5725C106.357 37.5185 106.474 37.4375 106.57 37.3295C106.666 37.2185 106.714 37.082 106.714 36.92C106.714 36.761 106.667 36.6395 106.574 36.5555C106.481 36.4715 106.363 36.4295 106.219 36.4295ZM106.34 35.714C106.31 35.714 106.295 35.699 106.295 35.669V35.3405C106.295 35.3105 106.31 35.2955 106.34 35.2955H106.646C106.676 35.2955 106.691 35.3105 106.691 35.3405V35.669C106.691 35.699 106.676 35.714 106.646 35.714H106.34ZM105.791 35.714C105.761 35.714 105.746 35.699 105.746 35.669V35.3405C105.746 35.3105 105.761 35.2955 105.791 35.2955H106.097C106.127 35.2955 106.142 35.3105 106.142 35.3405V35.669C106.142 35.699 106.127 35.714 106.097 35.714H105.791ZM107.4 38C107.34 38 107.295 37.9895 107.265 37.9685C107.235 37.9475 107.22 37.9055 107.22 37.8425C107.22 37.7675 107.235 37.7165 107.265 37.6895C107.292 37.6625 107.337 37.649 107.4 37.649H107.683C107.758 37.649 107.812 37.6325 107.845 37.5995C107.881 37.5635 107.899 37.5005 107.899 37.4105V34.985C107.899 34.955 107.914 34.94 107.944 34.94H108.232C108.262 34.94 108.277 34.955 108.277 34.985V37.433C108.277 37.628 108.237 37.772 108.156 37.865C108.075 37.955 107.94 38 107.751 38H107.4ZM109.284 37.955C109.284 37.985 109.269 38 109.239 38H108.951C108.921 38 108.906 37.985 108.906 37.955V34.985C108.906 34.955 108.921 34.94 108.951 34.94H109.239C109.269 34.94 109.284 34.955 109.284 34.985V37.955ZM113.518 37.649C113.596 37.649 113.651 37.6325 113.684 37.5995C113.72 37.5635 113.738 37.5005 113.738 37.4105V34.985C113.738 34.955 113.753 34.94 113.783 34.94H114.071C114.101 34.94 114.116 34.955 114.116 34.985V37.343C114.116 37.445 114.152 37.5215 114.224 37.5725C114.299 37.6235 114.398 37.649 114.521 37.649H114.571C114.631 37.649 114.676 37.6625 114.706 37.6895C114.736 37.7135 114.751 37.7555 114.751 37.8155C114.751 37.8935 114.736 37.9445 114.706 37.9685C114.679 37.9895 114.634 38 114.571 38H114.476C114.38 38 114.296 37.9805 114.224 37.9415C114.152 37.9025 114.097 37.844 114.058 37.766C114.019 37.844 113.96 37.9025 113.882 37.9415C113.807 37.9805 113.707 38 113.581 38H111.416C111.227 38 111.092 37.955 111.011 37.865C110.93 37.772 110.89 37.628 110.89 37.433V36.4925C110.89 36.4625 110.905 36.4475 110.935 36.4475H111.223C111.253 36.4475 111.268 36.4625 111.268 36.4925V37.4105C111.268 37.5005 111.284 37.5635 111.317 37.5995C111.353 37.6325 111.409 37.649 111.484 37.649H113.518ZM112.6 36.5465C112.636 36.5465 112.658 36.539 112.667 36.524C112.676 36.509 112.681 36.485 112.681 36.452V36.362C112.681 36.287 112.64 36.2495 112.559 36.2495H112.316C112.274 36.2495 112.253 36.2285 112.253 36.1865V36.11C112.253 36.095 112.255 36.0845 112.258 36.0785C112.264 36.0695 112.27 36.062 112.276 36.056L112.631 35.633C112.646 35.618 112.66 35.612 112.672 35.615C112.687 35.615 112.697 35.618 112.703 35.624L112.793 35.7005C112.808 35.7155 112.813 35.7305 112.807 35.7455C112.804 35.7575 112.799 35.768 112.793 35.777L112.564 36.047H112.636C112.813 36.047 112.901 36.152 112.901 36.362V36.443C112.901 36.563 112.88 36.644 112.838 36.686C112.799 36.728 112.733 36.749 112.64 36.749H112.132C112.102 36.749 112.087 36.734 112.087 36.704V36.5915C112.087 36.5615 112.102 36.5465 112.132 36.5465H112.6ZM114.572 38C114.512 38 114.467 37.9895 114.437 37.9685C114.407 37.9475 114.392 37.9055 114.392 37.8425C114.392 37.7675 114.407 37.7165 114.437 37.6895C114.464 37.6625 114.509 37.649 114.572 37.649H114.882C114.957 37.649 115.011 37.6325 115.044 37.5995C115.08 37.5635 115.098 37.5005 115.098 37.4105V36.2045C115.098 36.1745 115.113 36.1595 115.143 36.1595H115.431C115.461 36.1595 115.476 36.1745 115.476 36.2045V37.433C115.476 37.628 115.436 37.772 115.355 37.865C115.274 37.955 115.139 38 114.95 38H114.572ZM115.409 35.714C115.379 35.714 115.364 35.699 115.364 35.669V35.3405C115.364 35.3105 115.379 35.2955 115.409 35.2955H115.715C115.745 35.2955 115.76 35.3105 115.76 35.3405V35.669C115.76 35.699 115.745 35.714 115.715 35.714H115.409ZM114.86 35.714C114.83 35.714 114.815 35.699 114.815 35.669V35.3405C114.815 35.3105 114.83 35.2955 114.86 35.2955H115.166C115.196 35.2955 115.211 35.3105 115.211 35.3405V35.669C115.211 35.699 115.196 35.714 115.166 35.714H114.86ZM116.13 34.985C116.13 34.955 116.145 34.94 116.175 34.94H116.463C116.493 34.94 116.508 34.955 116.508 34.985V37.4105C116.508 37.5005 116.525 37.5635 116.558 37.5995C116.594 37.6325 116.649 37.649 116.724 37.649H116.922C117.042 37.649 117.102 37.709 117.102 37.829C117.102 37.904 117.087 37.952 117.057 37.973C117.03 37.991 116.985 38 116.922 38H116.657C116.468 38 116.333 37.955 116.252 37.865C116.171 37.772 116.13 37.628 116.13 37.433V34.985ZM118.282 38.0315C118.141 38.0315 118.016 38.012 117.908 37.973C117.8 37.931 117.709 37.8665 117.634 37.7795C117.571 37.8755 117.49 37.937 117.391 37.964C117.292 37.988 117.2 38 117.116 38H116.923C116.803 38 116.743 37.94 116.743 37.82C116.743 37.745 116.758 37.6985 116.788 37.6805C116.815 37.6595 116.86 37.649 116.923 37.649H117.148C117.181 37.649 117.214 37.643 117.247 37.631C117.28 37.616 117.31 37.5935 117.337 37.5635C117.364 37.5305 117.385 37.4885 117.4 37.4375C117.418 37.3835 117.427 37.3175 117.427 37.2395C117.424 37.2095 117.422 37.181 117.422 37.154C117.422 37.124 117.422 37.0925 117.422 37.0595C117.422 36.7145 117.499 36.4655 117.652 36.3125C117.805 36.1565 118.015 36.0785 118.282 36.0785C118.549 36.0785 118.759 36.1565 118.912 36.3125C119.065 36.4655 119.141 36.7145 119.141 37.0595C119.141 37.2305 119.12 37.3775 119.078 37.5005C119.039 37.6235 118.982 37.724 118.907 37.802C118.835 37.88 118.745 37.9385 118.637 37.9775C118.532 38.0135 118.414 38.0315 118.282 38.0315ZM118.282 36.4295C118.114 36.4295 117.991 36.485 117.913 36.596C117.838 36.707 117.8 36.8615 117.8 37.0595C117.8 37.2755 117.838 37.433 117.913 37.532C117.991 37.631 118.114 37.6805 118.282 37.6805C118.45 37.6805 118.571 37.631 118.646 37.532C118.724 37.433 118.763 37.2755 118.763 37.0595C118.763 36.8615 118.724 36.707 118.646 36.596C118.571 36.485 118.45 36.4295 118.282 36.4295ZM120.018 38.8955C119.988 38.8955 119.973 38.8805 119.973 38.8505V38.5895C119.973 38.5595 119.988 38.5445 120.018 38.5445H120.558C120.618 38.5445 120.674 38.537 120.725 38.522C120.776 38.51 120.819 38.4875 120.855 38.4545C120.894 38.4245 120.924 38.381 120.945 38.324C120.966 38.27 120.977 38.201 120.977 38.117V38H120.495C120.363 38 120.243 37.985 120.135 37.955C120.03 37.922 119.94 37.871 119.865 37.802C119.79 37.73 119.733 37.6355 119.694 37.5185C119.655 37.4015 119.636 37.2575 119.636 37.0865C119.636 36.9155 119.658 36.767 119.703 36.641C119.751 36.512 119.814 36.407 119.892 36.326C119.973 36.242 120.066 36.1805 120.171 36.1415C120.276 36.0995 120.387 36.0785 120.504 36.0785C120.771 36.0785 120.98 36.1565 121.13 36.3125C121.28 36.4655 121.355 36.7145 121.355 37.0595V37.649H121.665C121.725 37.649 121.77 37.6625 121.8 37.6895C121.83 37.7135 121.845 37.7555 121.845 37.8155C121.845 37.8935 121.83 37.9445 121.8 37.9685C121.773 37.9895 121.728 38 121.665 38H121.355V38.108C121.355 38.249 121.335 38.369 121.296 38.468C121.26 38.567 121.208 38.648 121.139 38.711C121.073 38.774 120.992 38.8205 120.896 38.8505C120.8 38.8805 120.693 38.8955 120.576 38.8955H120.018ZM120.504 36.4295C120.354 36.4295 120.234 36.4895 120.144 36.6095C120.057 36.7295 120.014 36.8885 120.014 37.0865C120.014 37.2995 120.056 37.4465 120.14 37.5275C120.227 37.6085 120.354 37.649 120.522 37.649H120.977V37.0595C120.977 36.8615 120.939 36.707 120.864 36.596C120.792 36.485 120.672 36.4295 120.504 36.4295ZM123.041 38C122.945 38 122.861 37.9805 122.789 37.9415C122.717 37.9025 122.662 37.844 122.623 37.766C122.548 37.922 122.392 38 122.155 38H121.669C121.609 38 121.564 37.9895 121.534 37.9685C121.504 37.9475 121.489 37.9055 121.489 37.8425C121.489 37.7675 121.504 37.7165 121.534 37.6895C121.561 37.6625 121.606 37.649 121.669 37.649H122.087C122.162 37.649 122.216 37.6325 122.249 37.5995C122.285 37.5635 122.303 37.5005 122.303 37.4105V36.5915C122.303 36.5615 122.318 36.5465 122.348 36.5465H122.636C122.666 36.5465 122.681 36.5615 122.681 36.5915V37.343C122.681 37.445 122.717 37.5215 122.789 37.5725C122.861 37.6235 122.957 37.649 123.077 37.649H123.19C123.265 37.649 123.319 37.6325 123.352 37.5995C123.388 37.5635 123.406 37.5005 123.406 37.4105V36.5915C123.406 36.5615 123.421 36.5465 123.451 36.5465H123.739C123.769 36.5465 123.784 36.5615 123.784 36.5915V37.343C123.784 37.445 123.82 37.5215 123.892 37.5725C123.964 37.6235 124.06 37.649 124.18 37.649H124.292C124.367 37.649 124.421 37.6325 124.454 37.5995C124.49 37.5635 124.508 37.5005 124.508 37.4105V36.2045C124.508 36.1745 124.523 36.1595 124.553 36.1595H124.841C124.871 36.1595 124.886 36.1745 124.886 36.2045V37.433C124.886 37.628 124.846 37.772 124.765 37.865C124.684 37.955 124.549 38 124.36 38H124.144C124.048 38 123.964 37.9805 123.892 37.9415C123.82 37.9025 123.764 37.844 123.725 37.766C123.65 37.922 123.494 38 123.257 38H123.041Z" fill="#1EBCFF"/>
<path d="M73.601 36.9875C73.613 36.9665 73.634 36.965 73.664 36.983L73.9115 37.118C73.9355 37.133 73.94 37.1525 73.925 37.1765C73.871 37.2605 73.8185 37.364 73.7675 37.487C73.7195 37.61 73.6955 37.739 73.6955 37.874C73.6955 38.003 73.7165 38.1095 73.7585 38.1935C73.8035 38.2805 73.8605 38.348 73.9295 38.396C73.9985 38.447 74.0735 38.483 74.1545 38.504C74.2355 38.525 74.315 38.5355 74.393 38.5355C74.585 38.5355 74.7425 38.486 74.8655 38.387C74.9885 38.288 75.05 38.1275 75.05 37.9055V36.5915C75.05 36.5615 75.065 36.5465 75.095 36.5465H75.383C75.413 36.5465 75.428 36.5615 75.428 36.5915V37.91C75.428 38.219 75.3365 38.4605 75.1535 38.6345C74.9735 38.8085 74.7125 38.8955 74.3705 38.8955C74.2085 38.8955 74.0615 38.873 73.9295 38.828C73.8005 38.786 73.6895 38.723 73.5965 38.639C73.5065 38.555 73.436 38.4515 73.385 38.3285C73.334 38.2085 73.3085 38.069 73.3085 37.91C73.3085 37.733 73.337 37.5635 73.394 37.4015C73.454 37.2365 73.523 37.0985 73.601 36.9875ZM74.3705 36.434C74.3405 36.434 74.3255 36.419 74.3255 36.389V36.0605C74.3255 36.0305 74.3405 36.0155 74.3705 36.0155H74.6765C74.7065 36.0155 74.7215 36.0305 74.7215 36.0605V36.389C74.7215 36.419 74.7065 36.434 74.6765 36.434H74.3705ZM77.2102 37.649H77.7367C77.8117 37.649 77.8657 37.6325 77.8987 37.5995C77.9347 37.5635 77.9527 37.5005 77.9527 37.4105V34.985C77.9527 34.955 77.9677 34.94 77.9977 34.94H78.2857C78.3157 34.94 78.3307 34.955 78.3307 34.985V37.433C78.3307 37.628 78.2902 37.772 78.2092 37.865C78.1282 37.955 77.9932 38 77.8042 38H75.9457C75.9157 38 75.9007 37.985 75.9007 37.955V37.694C75.9007 37.664 75.9157 37.649 75.9457 37.649H76.8322V35.6195C76.8322 35.5895 76.8472 35.5745 76.8772 35.5745H77.1652C77.1952 35.5745 77.2102 35.5895 77.2102 35.6195V37.649ZM76.2652 35.1785C76.2862 35.0825 76.3267 35.009 76.3867 34.958C76.4497 34.907 76.5202 34.8815 76.5982 34.8815C76.6642 34.8815 76.7332 34.8935 76.8052 34.9175C76.8772 34.9415 76.9492 34.9685 77.0212 34.9985C77.0962 35.0285 77.1697 35.0555 77.2417 35.0795C77.3137 35.1035 77.3827 35.1155 77.4487 35.1155C77.4997 35.1155 77.5342 35.105 77.5522 35.084C77.5732 35.06 77.5837 35.0195 77.5837 34.9625C77.5837 34.9325 77.5987 34.9175 77.6287 34.9175H77.7277C77.7577 34.9175 77.7727 34.9325 77.7727 34.9625C77.7727 35.0855 77.7442 35.1785 77.6872 35.2415C77.6332 35.3045 77.5582 35.336 77.4622 35.336C77.3842 35.336 77.3047 35.324 77.2237 35.3C77.1457 35.276 77.0692 35.2505 76.9942 35.2235C76.9222 35.1935 76.8517 35.1665 76.7827 35.1425C76.7137 35.1185 76.6522 35.1065 76.5982 35.1065C76.5682 35.1065 76.5397 35.1155 76.5127 35.1335C76.4857 35.1485 76.4647 35.1815 76.4497 35.2325C76.4407 35.2625 76.4212 35.273 76.3912 35.264L76.2967 35.237C76.2697 35.228 76.2592 35.2085 76.2652 35.1785ZM79.3405 37.955C79.3405 37.985 79.3255 38 79.2955 38H79.0075C78.9775 38 78.9625 37.985 78.9625 37.955V34.985C78.9625 34.955 78.9775 34.94 79.0075 34.94H79.2955C79.3255 34.94 79.3405 34.955 79.3405 34.985V37.955ZM82.0129 36.0785C82.3339 36.0785 82.5709 36.1415 82.7239 36.2675C82.8769 36.3935 82.9534 36.5645 82.9534 36.7805C82.9534 36.8765 82.9384 36.9665 82.9084 37.0505C82.8784 37.1345 82.8394 37.2125 82.7914 37.2845C82.7464 37.3565 82.6939 37.4225 82.6339 37.4825C82.5739 37.5395 82.5154 37.5875 82.4584 37.6265C82.4914 37.6325 82.5244 37.6385 82.5574 37.6445C82.5904 37.6475 82.6219 37.649 82.6519 37.649H83.3089C83.3689 37.649 83.4139 37.6595 83.4439 37.6805C83.4739 37.7015 83.4889 37.7435 83.4889 37.8065C83.4889 37.8815 83.4739 37.9325 83.4439 37.9595C83.4169 37.9865 83.3719 38 83.3089 38H82.6384C82.5514 38 82.4584 37.9895 82.3594 37.9685C82.2604 37.9475 82.1719 37.9115 82.0939 37.8605C82.0069 37.8935 81.9154 37.9235 81.8194 37.9505C81.7234 37.9745 81.6364 38.0015 81.5584 38.0315C81.4804 38.0615 81.4159 38.099 81.3649 38.144C81.3139 38.189 81.2884 38.249 81.2884 38.324C81.2884 38.396 81.3154 38.45 81.3694 38.486C81.4264 38.525 81.5284 38.5445 81.6754 38.5445H82.1074C82.1374 38.5445 82.1524 38.5595 82.1524 38.5895V38.8505C82.1524 38.8805 82.1374 38.8955 82.1074 38.8955H81.6439C81.4009 38.8955 81.2164 38.852 81.0904 38.765C80.9644 38.678 80.9014 38.531 80.9014 38.324C80.9014 38.195 80.9284 38.0885 80.9824 38.0045C81.0394 37.9205 81.1099 37.853 81.1939 37.802C81.2779 37.751 81.3694 37.712 81.4684 37.685C81.5674 37.655 81.6619 37.631 81.7519 37.613C81.7309 37.493 81.6994 37.3895 81.6574 37.3025C81.6154 37.2155 81.5674 37.1405 81.5134 37.0775C81.4594 37.0115 81.3994 36.9545 81.3334 36.9065C81.2704 36.8555 81.2059 36.806 81.1399 36.758C81.1129 36.74 81.0949 36.725 81.0859 36.713C81.0799 36.698 81.0769 36.683 81.0769 36.668V36.398C81.0769 36.356 81.0919 36.326 81.1219 36.308C81.1579 36.287 81.2044 36.263 81.2614 36.236C81.3214 36.209 81.3889 36.1835 81.4639 36.1595C81.5419 36.1355 81.6274 36.116 81.7204 36.101C81.8134 36.086 81.9109 36.0785 82.0129 36.0785ZM82.0129 36.4295C81.8779 36.4295 81.7594 36.4445 81.6574 36.4745C81.5554 36.5015 81.4879 36.5255 81.4549 36.5465C81.6079 36.6335 81.7414 36.755 81.8554 36.911C81.9724 37.067 82.0564 37.253 82.1074 37.469C82.1554 37.439 82.2064 37.4015 82.2604 37.3565C82.3144 37.3085 82.3624 37.2575 82.4044 37.2035C82.4494 37.1465 82.4854 37.085 82.5124 37.019C82.5424 36.95 82.5574 36.8795 82.5574 36.8075C82.5574 36.7325 82.5424 36.671 82.5124 36.623C82.4854 36.575 82.4479 36.5375 82.3999 36.5105C82.3519 36.4805 82.2934 36.4595 82.2244 36.4475C82.1584 36.4355 82.0879 36.4295 82.0129 36.4295ZM83.346 38C83.286 38 83.241 37.9895 83.211 37.9685C83.181 37.9475 83.166 37.9055 83.166 37.8425C83.166 37.7675 83.181 37.7165 83.211 37.6895C83.238 37.6625 83.283 37.649 83.346 37.649H83.652C83.727 37.649 83.781 37.6325 83.814 37.5995C83.85 37.5635 83.868 37.5005 83.868 37.4105V36.2045C83.868 36.1745 83.883 36.1595 83.913 36.1595H84.201C84.231 36.1595 84.246 36.1745 84.246 36.2045V37.343C84.246 37.445 84.282 37.5215 84.354 37.5725C84.429 37.6235 84.528 37.649 84.651 37.649H84.705C84.765 37.649 84.81 37.6625 84.84 37.6895C84.87 37.7135 84.885 37.7555 84.885 37.8155C84.885 37.8935 84.87 37.9445 84.84 37.9685C84.813 37.9895 84.768 38 84.705 38H84.606C84.51 38 84.426 37.9805 84.354 37.9415C84.282 37.9025 84.2265 37.844 84.1875 37.766C84.1125 37.922 83.9565 38 83.7195 38H83.346ZM84.1245 38.837C84.0945 38.837 84.0795 38.822 84.0795 38.792V38.4635C84.0795 38.4335 84.0945 38.4185 84.1245 38.4185H84.4305C84.4605 38.4185 84.4755 38.4335 84.4755 38.4635V38.792C84.4755 38.822 84.4605 38.837 84.4305 38.837H84.1245ZM83.5755 38.837C83.5455 38.837 83.5305 38.822 83.5305 38.792V38.4635C83.5305 38.4335 83.5455 38.4185 83.5755 38.4185H83.8815C83.9115 38.4185 83.9265 38.4335 83.9265 38.4635V38.792C83.9265 38.822 83.9115 38.837 83.8815 38.837H83.5755ZM84.7031 38C84.6431 38 84.5981 37.9895 84.5681 37.9685C84.5381 37.9475 84.5231 37.9055 84.5231 37.8425C84.5231 37.7675 84.5381 37.7165 84.5681 37.6895C84.5951 37.6625 84.6401 37.649 84.7031 37.649H84.9866C85.0616 37.649 85.1156 37.6325 85.1486 37.5995C85.1846 37.5635 85.2026 37.5005 85.2026 37.4105V36.2045C85.2026 36.1745 85.2176 36.1595 85.2476 36.1595H85.5356C85.5656 36.1595 85.5806 36.1745 85.5806 36.2045V37.433C85.5806 37.628 85.5401 37.772 85.4591 37.865C85.3781 37.955 85.2431 38 85.0541 38H84.7031ZM85.1351 38.8235C85.1051 38.8235 85.0901 38.8085 85.0901 38.7785V38.45C85.0901 38.42 85.1051 38.405 85.1351 38.405H85.4411C85.4711 38.405 85.4861 38.42 85.4861 38.45V38.7785C85.4861 38.8085 85.4711 38.8235 85.4411 38.8235H85.1351Z" fill="#979C9D"/>
<path d="M44.8998 37.649C44.9778 37.649 45.0333 37.6325 45.0663 37.5995C45.1023 37.5635 45.1203 37.5005 45.1203 37.4105V36.2045C45.1203 36.1745 45.1353 36.1595 45.1653 36.1595H45.4533C45.4833 36.1595 45.4983 36.1745 45.4983 36.2045V37.433C45.4983 37.628 45.4578 37.772 45.3768 37.865C45.2958 37.955 45.1578 38 44.9628 38H42.7983C42.6093 38 42.4743 37.955 42.3933 37.865C42.3123 37.772 42.2718 37.628 42.2718 37.433V36.4925C42.2718 36.4625 42.2868 36.4475 42.3168 36.4475H42.6048C42.6348 36.4475 42.6498 36.4625 42.6498 36.4925V37.4105C42.6498 37.5005 42.6663 37.5635 42.6993 37.5995C42.7353 37.6325 42.7908 37.649 42.8658 37.649H44.8998ZM44.0133 35.9795C43.9833 35.9795 43.9683 35.9645 43.9683 35.9345V35.606C43.9683 35.576 43.9833 35.561 44.0133 35.561H44.3193C44.3493 35.561 44.3643 35.576 44.3643 35.606V35.9345C44.3643 35.9645 44.3493 35.9795 44.3193 35.9795H44.0133ZM43.4643 35.9795C43.4343 35.9795 43.4193 35.9645 43.4193 35.9345V35.606C43.4193 35.576 43.4343 35.561 43.4643 35.561H43.7703C43.8003 35.561 43.8153 35.576 43.8153 35.606V35.9345C43.8153 35.9645 43.8003 35.9795 43.7703 35.9795H43.4643ZM46.4491 37.955C46.4491 37.985 46.4341 38 46.4041 38H46.1161C46.0861 38 46.0711 37.985 46.0711 37.955V34.985C46.0711 34.955 46.0861 34.94 46.1161 34.94H46.4041C46.4341 34.94 46.4491 34.955 46.4491 34.985V37.955ZM46.8075 38.8955C46.7775 38.8955 46.7625 38.8805 46.7625 38.8505V38.5895C46.7625 38.5595 46.7775 38.5445 46.8075 38.5445H46.911C47.154 38.5445 47.2755 38.417 47.2755 38.162V36.2045C47.2755 36.1745 47.2905 36.1595 47.3205 36.1595H47.6085C47.6385 36.1595 47.6535 36.1745 47.6535 36.2045V38.153C47.6535 38.396 47.592 38.5805 47.469 38.7065C47.346 38.8325 47.166 38.8955 46.929 38.8955H46.8075ZM48.2596 34.985C48.2596 34.955 48.2746 34.94 48.3046 34.94H48.5926C48.6226 34.94 48.6376 34.955 48.6376 34.985V37.4105C48.6376 37.5005 48.6541 37.5635 48.6871 37.5995C48.7231 37.6325 48.7786 37.649 48.8536 37.649H49.0516C49.1716 37.649 49.2316 37.709 49.2316 37.829C49.2316 37.904 49.2166 37.952 49.1866 37.973C49.1596 37.991 49.1146 38 49.0516 38H48.7861C48.5971 38 48.4621 37.955 48.3811 37.865C48.3001 37.772 48.2596 37.628 48.2596 37.433V34.985ZM50.276 36.0785C50.597 36.0785 50.834 36.1415 50.987 36.2675C51.14 36.3935 51.2165 36.5645 51.2165 36.7805C51.2165 36.8765 51.2 36.9695 51.167 37.0595C51.137 37.1465 51.0965 37.2275 51.0455 37.3025C50.9975 37.3745 50.942 37.4405 50.879 37.5005C50.819 37.5575 50.759 37.604 50.699 37.64C50.72 37.646 50.741 37.649 50.762 37.649C50.786 37.649 50.81 37.649 50.834 37.649H51.4955C51.5555 37.649 51.6005 37.6595 51.6305 37.6805C51.6605 37.7015 51.6755 37.7435 51.6755 37.8065C51.6755 37.8815 51.6605 37.9325 51.6305 37.9595C51.6035 37.9865 51.5585 38 51.4955 38H50.861C50.753 38 50.6495 37.991 50.5505 37.973C50.4545 37.952 50.363 37.9145 50.276 37.8605C50.177 37.9145 50.072 37.952 49.961 37.973C49.85 37.991 49.751 38 49.664 38H49.052C48.932 38 48.872 37.94 48.872 37.82C48.872 37.745 48.887 37.6985 48.917 37.6805C48.944 37.6595 48.989 37.649 49.052 37.649H49.6325C49.6715 37.649 49.7225 37.6475 49.7855 37.6445C49.8515 37.6385 49.928 37.6235 50.015 37.5995C49.991 37.4795 49.958 37.3775 49.916 37.2935C49.877 37.2095 49.8305 37.136 49.7765 37.073C49.7225 37.007 49.6625 36.95 49.5965 36.902C49.5335 36.854 49.469 36.806 49.403 36.758C49.376 36.74 49.358 36.725 49.349 36.713C49.343 36.698 49.34 36.683 49.34 36.668V36.398C49.34 36.356 49.355 36.326 49.385 36.308C49.421 36.287 49.4675 36.263 49.5245 36.236C49.5845 36.209 49.652 36.1835 49.727 36.1595C49.805 36.1355 49.8905 36.116 49.9835 36.101C50.0765 36.086 50.174 36.0785 50.276 36.0785ZM50.276 36.4295C50.141 36.4295 50.0225 36.4445 49.9205 36.4745C49.8185 36.5015 49.751 36.5255 49.718 36.5465C49.871 36.6335 50.0045 36.755 50.1185 36.911C50.2355 37.067 50.3195 37.253 50.3705 37.469C50.4185 37.439 50.4695 37.4015 50.5235 37.3565C50.5775 37.3085 50.6255 37.2575 50.6675 37.2035C50.7125 37.1465 50.7485 37.085 50.7755 37.019C50.8055 36.95 50.8205 36.8795 50.8205 36.8075C50.8205 36.7325 50.8055 36.671 50.7755 36.623C50.7485 36.575 50.711 36.5375 50.663 36.5105C50.615 36.4805 50.5565 36.4595 50.4875 36.4475C50.4215 36.4355 50.351 36.4295 50.276 36.4295ZM52.8679 38C52.7719 38 52.6879 37.9805 52.6159 37.9415C52.5439 37.9025 52.4884 37.844 52.4494 37.766C52.3744 37.922 52.2184 38 51.9814 38H51.4954C51.4354 38 51.3904 37.9895 51.3604 37.9685C51.3304 37.9475 51.3154 37.9055 51.3154 37.8425C51.3154 37.7675 51.3304 37.7165 51.3604 37.6895C51.3874 37.6625 51.4324 37.649 51.4954 37.649H51.9139C51.9889 37.649 52.0429 37.6325 52.0759 37.5995C52.1119 37.5635 52.1299 37.5005 52.1299 37.4105V36.5915C52.1299 36.5615 52.1449 36.5465 52.1749 36.5465H52.4629C52.4929 36.5465 52.5079 36.5615 52.5079 36.5915V37.343C52.5079 37.445 52.5439 37.5215 52.6159 37.5725C52.6879 37.6235 52.7839 37.649 52.9039 37.649H53.0164C53.0914 37.649 53.1454 37.6325 53.1784 37.5995C53.2144 37.5635 53.2324 37.5005 53.2324 37.4105V36.5915C53.2324 36.5615 53.2474 36.5465 53.2774 36.5465H53.5654C53.5954 36.5465 53.6104 36.5615 53.6104 36.5915V37.343C53.6104 37.445 53.6464 37.5215 53.7184 37.5725C53.7904 37.6235 53.8864 37.649 54.0064 37.649H54.1189C54.1939 37.649 54.2479 37.6325 54.2809 37.5995C54.3169 37.5635 54.3349 37.5005 54.3349 37.4105V36.2045C54.3349 36.1745 54.3499 36.1595 54.3799 36.1595H54.6679C54.6979 36.1595 54.7129 36.1745 54.7129 36.2045V37.433C54.7129 37.628 54.6724 37.772 54.5914 37.865C54.5104 37.955 54.3754 38 54.1864 38H53.9704C53.8744 38 53.7904 37.9805 53.7184 37.9415C53.6464 37.9025 53.5909 37.844 53.5519 37.766C53.4769 37.922 53.3209 38 53.0839 38H52.8679ZM53.5339 35.714C53.5039 35.714 53.4889 35.699 53.4889 35.669V35.3405C53.4889 35.3105 53.5039 35.2955 53.5339 35.2955H53.8399C53.8699 35.2955 53.8849 35.3105 53.8849 35.3405V35.669C53.8849 35.699 53.8699 35.714 53.8399 35.714H53.5339ZM52.9849 35.714C52.9549 35.714 52.9399 35.699 52.9399 35.669V35.3405C52.9399 35.3105 52.9549 35.2955 52.9849 35.2955H53.2909C53.3209 35.2955 53.3359 35.3105 53.3359 35.3405V35.669C53.3359 35.699 53.3209 35.714 53.2909 35.714H52.9849ZM53.2639 35.1875C53.2339 35.1875 53.2189 35.1725 53.2189 35.1425V34.814C53.2189 34.784 53.2339 34.769 53.2639 34.769H53.5699C53.5999 34.769 53.6149 34.784 53.6149 34.814V35.1425C53.6149 35.1725 53.5999 35.1875 53.5699 35.1875H53.2639ZM56.4961 37.649H57.0226C57.0976 37.649 57.1516 37.6325 57.1846 37.5995C57.2206 37.5635 57.2386 37.5005 57.2386 37.4105V34.985C57.2386 34.955 57.2536 34.94 57.2836 34.94H57.5716C57.6016 34.94 57.6166 34.955 57.6166 34.985V37.433C57.6166 37.628 57.5761 37.772 57.4951 37.865C57.4141 37.955 57.2791 38 57.0901 38H55.2316C55.2016 38 55.1866 37.985 55.1866 37.955V37.694C55.1866 37.664 55.2016 37.649 55.2316 37.649H56.1181V35.6195C56.1181 35.5895 56.1331 35.5745 56.1631 35.5745H56.4511C56.4811 35.5745 56.4961 35.5895 56.4961 35.6195V37.649ZM58.6263 37.955C58.6263 37.985 58.6113 38 58.5813 38H58.2933C58.2633 38 58.2483 37.985 58.2483 37.955V34.985C58.2483 34.955 58.2633 34.94 58.2933 34.94H58.5813C58.6113 34.94 58.6263 34.955 58.6263 34.985V37.955Z" fill="#979C9D"/>
<path d="M6.09646 37.3295C6.19246 37.3655 6.28546 37.403 6.37546 37.442C6.46546 37.478 6.55246 37.5125 6.63646 37.5455C6.72346 37.5755 6.80896 37.601 6.89296 37.622C6.97696 37.64 7.06246 37.649 7.14946 37.649H7.51396C7.57396 37.649 7.61896 37.6595 7.64896 37.6805C7.67896 37.7015 7.69396 37.7435 7.69396 37.8065C7.69396 37.8815 7.67896 37.9325 7.64896 37.9595C7.62196 37.9865 7.57696 38 7.51396 38H7.19446C7.20946 38.024 7.22746 38.063 7.24846 38.117C7.26946 38.174 7.27996 38.2355 7.27996 38.3015C7.27996 38.3735 7.26496 38.444 7.23496 38.513C7.20796 38.585 7.16146 38.6495 7.09546 38.7065C7.02946 38.7635 6.94246 38.8085 6.83446 38.8415C6.72646 38.8775 6.59446 38.8955 6.43846 38.8955H5.38546C5.03446 38.8955 4.76746 38.807 4.58446 38.63C4.40146 38.456 4.30996 38.216 4.30996 37.91C4.30996 37.733 4.33846 37.5635 4.39546 37.4015C4.45546 37.2365 4.52446 37.0985 4.60246 36.9875C4.61446 36.9665 4.63546 36.965 4.66546 36.983L4.91296 37.118C4.93696 37.133 4.94146 37.1525 4.92646 37.1765C4.87246 37.2605 4.81996 37.364 4.76896 37.487C4.72096 37.61 4.69696 37.739 4.69696 37.874C4.69696 37.997 4.71646 38.1005 4.75546 38.1845C4.79746 38.2715 4.85296 38.3405 4.92196 38.3915C4.99096 38.4425 5.06896 38.4785 5.15596 38.4995C5.24596 38.5235 5.34046 38.5355 5.43946 38.5355H6.43396C6.61396 38.5355 6.73846 38.5085 6.80746 38.4545C6.87946 38.4005 6.91546 38.336 6.91546 38.261C6.91546 38.195 6.89446 38.138 6.85246 38.09C6.81346 38.042 6.75346 37.9985 6.67246 37.9595C6.59446 37.9175 6.49546 37.8755 6.37546 37.8335C6.25846 37.7915 6.12346 37.742 5.97046 37.685C5.94346 37.676 5.93446 37.658 5.94346 37.631L6.04246 37.361C6.05146 37.331 6.06946 37.3205 6.09646 37.3295ZM5.90746 39.674C5.87746 39.674 5.86246 39.659 5.86246 39.629V39.3005C5.86246 39.2705 5.87746 39.2555 5.90746 39.2555H6.21346C6.24346 39.2555 6.25846 39.2705 6.25846 39.3005V39.629C6.25846 39.659 6.24346 39.674 6.21346 39.674H5.90746ZM5.35846 39.674C5.32846 39.674 5.31346 39.659 5.31346 39.629V39.3005C5.31346 39.2705 5.32846 39.2555 5.35846 39.2555H5.66446C5.69446 39.2555 5.70946 39.2705 5.70946 39.3005V39.629C5.70946 39.659 5.69446 39.674 5.66446 39.674H5.35846ZM7.51343 38C7.45343 38 7.40843 37.9895 7.37843 37.9685C7.34843 37.9475 7.33343 37.9055 7.33343 37.8425C7.33343 37.7675 7.34843 37.7165 7.37843 37.6895C7.40543 37.6625 7.45043 37.649 7.51343 37.649H7.79693C7.87193 37.649 7.92593 37.6325 7.95893 37.5995C7.99493 37.5635 8.01293 37.5005 8.01293 37.4105V36.2045C8.01293 36.1745 8.02793 36.1595 8.05793 36.1595H8.34593C8.37593 36.1595 8.39093 36.1745 8.39093 36.2045V36.3575C8.53793 36.2795 8.70143 36.2135 8.88143 36.1595C9.06143 36.1055 9.24593 36.0785 9.43493 36.0785C9.64493 36.0785 9.81893 36.107 9.95693 36.164C10.0949 36.221 10.2044 36.299 10.2854 36.398C10.3694 36.494 10.4279 36.6065 10.4609 36.7355C10.4939 36.8645 10.5104 37.001 10.5104 37.145C10.5104 37.184 10.5089 37.2215 10.5059 37.2575C10.5059 37.2905 10.5059 37.319 10.5059 37.343C10.5059 37.445 10.5419 37.5215 10.6139 37.5725C10.6889 37.6235 10.7879 37.649 10.9109 37.649H10.9604C11.0204 37.649 11.0654 37.6625 11.0954 37.6895C11.1254 37.7135 11.1404 37.7555 11.1404 37.8155C11.1404 37.8935 11.1254 37.9445 11.0954 37.9685C11.0684 37.9895 11.0234 38 10.9604 38H10.8659C10.7609 38 10.6664 37.976 10.5824 37.928C10.5014 37.88 10.4444 37.811 10.4114 37.721C10.3604 37.823 10.2869 37.895 10.1909 37.937C10.0979 37.979 9.97793 38 9.83093 38H8.31893C8.24693 38 8.19593 37.9805 8.16593 37.9415C8.09093 37.9805 7.99043 38 7.86443 38H7.51343ZM9.40793 36.4295C9.31793 36.4295 9.22643 36.4385 9.13343 36.4565C9.04043 36.4715 8.94893 36.4925 8.85893 36.5195C8.77193 36.5465 8.68793 36.5765 8.60693 36.6095C8.52893 36.6425 8.45693 36.6755 8.39093 36.7085V37.433C8.39093 37.508 8.38343 37.58 8.36843 37.649H9.70043C9.78443 37.649 9.85343 37.6415 9.90743 37.6265C9.96143 37.6115 10.0034 37.586 10.0334 37.55C10.0634 37.511 10.0829 37.4585 10.0919 37.3925C10.1039 37.3235 10.1099 37.2365 10.1099 37.1315C10.1099 37.0205 10.0979 36.9215 10.0739 36.8345C10.0529 36.7475 10.0154 36.674 9.96143 36.614C9.90743 36.554 9.83543 36.509 9.74543 36.479C9.65543 36.446 9.54293 36.4295 9.40793 36.4295ZM12.0117 36.4295C11.9097 36.4295 11.8152 36.4505 11.7282 36.4925C11.6442 36.5345 11.5692 36.5915 11.5032 36.6635C11.4852 36.6845 11.4642 36.686 11.4402 36.668L11.2422 36.506C11.2152 36.485 11.2107 36.464 11.2287 36.443C11.3127 36.338 11.4162 36.251 11.5392 36.182C11.6652 36.113 11.8182 36.0785 11.9982 36.0785C12.2052 36.0785 12.3747 36.1115 12.5067 36.1775C12.6387 36.2405 12.7422 36.3245 12.8172 36.4295C12.8952 36.5345 12.9492 36.656 12.9792 36.794C13.0092 36.932 13.0242 37.0745 13.0242 37.2215C13.0242 37.2485 13.0227 37.274 13.0197 37.298C13.0197 37.322 13.0197 37.346 13.0197 37.37C13.0257 37.463 13.0647 37.5335 13.1367 37.5815C13.2117 37.6265 13.3077 37.649 13.4247 37.649H13.4742C13.5342 37.649 13.5792 37.6625 13.6092 37.6895C13.6392 37.7135 13.6542 37.7555 13.6542 37.8155C13.6542 37.8935 13.6392 37.9445 13.6092 37.9685C13.5822 37.9895 13.5372 38 13.4742 38H13.3797C13.2777 38 13.1862 37.979 13.1052 37.937C13.0242 37.892 12.9672 37.826 12.9342 37.739C12.8832 37.835 12.8112 37.9025 12.7182 37.9415C12.6282 37.9805 12.5142 38 12.3762 38H10.9587C10.8387 38 10.7787 37.94 10.7787 37.82C10.7787 37.745 10.7937 37.6985 10.8237 37.6805C10.8507 37.6595 10.8957 37.649 10.9587 37.649H12.2367C12.3207 37.649 12.3882 37.643 12.4392 37.631C12.4902 37.616 12.5292 37.592 12.5562 37.559C12.5832 37.526 12.6012 37.4825 12.6102 37.4285C12.6192 37.3715 12.6237 37.3025 12.6237 37.2215C12.6237 37.1045 12.6132 36.998 12.5922 36.902C12.5712 36.803 12.5367 36.719 12.4887 36.65C12.4437 36.578 12.3822 36.524 12.3042 36.488C12.2262 36.449 12.1287 36.4295 12.0117 36.4295ZM11.9037 35.7185C11.8737 35.7185 11.8587 35.7035 11.8587 35.6735V35.345C11.8587 35.315 11.8737 35.3 11.9037 35.3H12.2097C12.2397 35.3 12.2547 35.315 12.2547 35.345V35.6735C12.2547 35.7035 12.2397 35.7185 12.2097 35.7185H11.9037ZM14.8764 38C14.7804 38 14.6964 37.9805 14.6244 37.9415C14.5524 37.9025 14.4969 37.844 14.4579 37.766C14.3829 37.922 14.2269 38 13.9899 38H13.5039C13.4439 38 13.3989 37.9895 13.3689 37.9685C13.3389 37.9475 13.3239 37.9055 13.3239 37.8425C13.3239 37.7675 13.3389 37.7165 13.3689 37.6895C13.3959 37.6625 13.4409 37.649 13.5039 37.649H13.9224C13.9974 37.649 14.0514 37.6325 14.0844 37.5995C14.1204 37.5635 14.1384 37.5005 14.1384 37.4105V36.5915C14.1384 36.5615 14.1534 36.5465 14.1834 36.5465H14.4714C14.5014 36.5465 14.5164 36.5615 14.5164 36.5915V37.343C14.5164 37.445 14.5524 37.5215 14.6244 37.5725C14.6964 37.6235 14.7924 37.649 14.9124 37.649H15.0249C15.0999 37.649 15.1539 37.6325 15.1869 37.5995C15.2229 37.5635 15.2409 37.5005 15.2409 37.4105V36.5915C15.2409 36.5615 15.2559 36.5465 15.2859 36.5465H15.5739C15.6039 36.5465 15.6189 36.5615 15.6189 36.5915V37.361C15.6189 37.457 15.6564 37.529 15.7314 37.577C15.8064 37.625 15.9039 37.649 16.0239 37.649H16.1274C16.2024 37.649 16.2564 37.6325 16.2894 37.5995C16.3254 37.5635 16.3434 37.5005 16.3434 37.4105V36.2045C16.3434 36.1745 16.3584 36.1595 16.3884 36.1595H16.6764C16.7064 36.1595 16.7214 36.1745 16.7214 36.2045V37.343C16.7214 37.445 16.7574 37.5215 16.8294 37.5725C16.9044 37.6235 17.0034 37.649 17.1264 37.649H17.1759C17.2359 37.649 17.2809 37.6625 17.3109 37.6895C17.3409 37.7135 17.3559 37.7555 17.3559 37.8155C17.3559 37.8935 17.3409 37.9445 17.3109 37.9685C17.2839 37.9895 17.2389 38 17.1759 38H17.0814C16.9854 38 16.9014 37.9805 16.8294 37.9415C16.7574 37.9025 16.7019 37.844 16.6629 37.766C16.5879 37.922 16.4319 38 16.1949 38H15.9789C15.8829 38 15.7989 37.9805 15.7269 37.9415C15.6549 37.9025 15.5994 37.844 15.5604 37.766C15.4854 37.922 15.3294 38 15.0924 38H14.8764ZM15.5424 35.714C15.5124 35.714 15.4974 35.699 15.4974 35.669V35.3405C15.4974 35.3105 15.5124 35.2955 15.5424 35.2955H15.8484C15.8784 35.2955 15.8934 35.3105 15.8934 35.3405V35.669C15.8934 35.699 15.8784 35.714 15.8484 35.714H15.5424ZM14.9934 35.714C14.9634 35.714 14.9484 35.699 14.9484 35.669V35.3405C14.9484 35.3105 14.9634 35.2955 14.9934 35.2955H15.2994C15.3294 35.2955 15.3444 35.3105 15.3444 35.3405V35.669C15.3444 35.699 15.3294 35.714 15.2994 35.714H14.9934ZM15.2724 35.1875C15.2424 35.1875 15.2274 35.1725 15.2274 35.1425V34.814C15.2274 34.784 15.2424 34.769 15.2724 34.769H15.5784C15.6084 34.769 15.6234 34.784 15.6234 34.814V35.1425C15.6234 35.1725 15.6084 35.1875 15.5784 35.1875H15.2724ZM17.1462 38C17.0862 38 17.0412 37.9895 17.0112 37.9685C16.9812 37.9475 16.9662 37.9055 16.9662 37.8425C16.9662 37.7675 16.9812 37.7165 17.0112 37.6895C17.0382 37.6625 17.0832 37.649 17.1462 37.649H17.4297C17.5047 37.649 17.5587 37.6325 17.5917 37.5995C17.6277 37.5635 17.6457 37.5005 17.6457 37.4105V34.985C17.6457 34.955 17.6607 34.94 17.6907 34.94H17.9787C18.0087 34.94 18.0237 34.955 18.0237 34.985V37.433C18.0237 37.628 17.9832 37.772 17.9022 37.865C17.8212 37.955 17.6862 38 17.4972 38H17.1462ZM19.0302 37.955C19.0302 37.985 19.0152 38 18.9852 38H18.6972C18.6672 38 18.6522 37.985 18.6522 37.955V34.985C18.6522 34.955 18.6672 34.94 18.6972 34.94H18.9852C19.0152 34.94 19.0302 34.955 19.0302 34.985V37.955ZM23.5566 36.0785C23.7096 36.0785 23.8416 36.0995 23.9526 36.1415C24.0636 36.1805 24.1551 36.236 24.2271 36.308C24.3021 36.38 24.3576 36.467 24.3936 36.569C24.4296 36.668 24.4476 36.7775 24.4476 36.8975C24.4476 37.0505 24.4116 37.193 24.3396 37.325C24.2706 37.457 24.1731 37.5665 24.0471 37.6535C24.0621 37.6505 24.0846 37.649 24.1146 37.649H24.7401C24.8001 37.649 24.8451 37.6595 24.8751 37.6805C24.9051 37.7015 24.9201 37.7435 24.9201 37.8065C24.9201 37.8815 24.9051 37.9325 24.8751 37.9595C24.8481 37.9865 24.8031 38 24.7401 38H24.1416C24.0336 38 23.9316 37.9955 23.8356 37.9865C23.7396 37.9775 23.6481 37.946 23.5611 37.892C23.4621 37.946 23.3556 37.9775 23.2416 37.9865C23.1306 37.9955 23.0316 38 22.9446 38H21.1626C20.9736 38 20.8386 37.955 20.7576 37.865C20.6766 37.772 20.6361 37.628 20.6361 37.433V36.4925C20.6361 36.4625 20.6511 36.4475 20.6811 36.4475H20.9691C20.9991 36.4475 21.0141 36.4625 21.0141 36.4925V37.4105C21.0141 37.5005 21.0306 37.5635 21.0636 37.5995C21.0996 37.6325 21.1551 37.649 21.2301 37.649H23.0616C22.9386 37.562 22.8411 37.454 22.7691 37.325C22.7001 37.193 22.6656 37.0505 22.6656 36.8975C22.6656 36.7775 22.6836 36.668 22.7196 36.569C22.7556 36.467 22.8096 36.38 22.8816 36.308C22.9566 36.236 23.0496 36.1805 23.1606 36.1415C23.2716 36.0995 23.4036 36.0785 23.5566 36.0785ZM23.5566 36.4295C23.4126 36.4295 23.2941 36.4715 23.2011 36.5555C23.1081 36.6395 23.0616 36.761 23.0616 36.92C23.0616 37.082 23.1096 37.2185 23.2056 37.3295C23.3016 37.4375 23.4186 37.5185 23.5566 37.5725C23.6946 37.5185 23.8116 37.4375 23.9076 37.3295C24.0036 37.2185 24.0516 37.082 24.0516 36.92C24.0516 36.761 24.0051 36.6395 23.9121 36.5555C23.8191 36.4715 23.7006 36.4295 23.5566 36.4295ZM23.4036 35.714C23.3736 35.714 23.3586 35.699 23.3586 35.669V35.3405C23.3586 35.3105 23.3736 35.2955 23.4036 35.2955H23.7096C23.7396 35.2955 23.7546 35.3105 23.7546 35.3405V35.669C23.7546 35.699 23.7396 35.714 23.7096 35.714H23.4036ZM24.74 38C24.68 38 24.635 37.9895 24.605 37.9685C24.575 37.9475 24.56 37.9055 24.56 37.8425C24.56 37.7675 24.575 37.7165 24.605 37.6895C24.632 37.6625 24.677 37.649 24.74 37.649H25.0235C25.0985 37.649 25.1525 37.6325 25.1855 37.5995C25.2215 37.5635 25.2395 37.5005 25.2395 37.4105V34.985C25.2395 34.955 25.2545 34.94 25.2845 34.94H25.5725C25.6025 34.94 25.6175 34.955 25.6175 34.985V37.343C25.6175 37.445 25.6535 37.5215 25.7255 37.5725C25.8005 37.6235 25.8995 37.649 26.0225 37.649H26.0765C26.1365 37.649 26.1815 37.6625 26.2115 37.6895C26.2415 37.7135 26.2565 37.7555 26.2565 37.8155C26.2565 37.8935 26.2415 37.9445 26.2115 37.9685C26.1845 37.9895 26.1395 38 26.0765 38H25.9775C25.8815 38 25.7975 37.9805 25.7255 37.9415C25.6535 37.9025 25.598 37.844 25.559 37.766C25.484 37.922 25.328 38 25.091 38H24.74ZM27.4305 38.0315C27.2895 38.0315 27.165 38.012 27.057 37.973C26.949 37.931 26.8575 37.8665 26.7825 37.7795C26.7195 37.8755 26.6385 37.937 26.5395 37.964C26.4405 37.988 26.349 38 26.265 38H26.0715C25.9515 38 25.8915 37.94 25.8915 37.82C25.8915 37.745 25.9065 37.6985 25.9365 37.6805C25.9635 37.6595 26.0085 37.649 26.0715 37.649H26.2965C26.3295 37.649 26.3625 37.643 26.3955 37.631C26.4285 37.616 26.4585 37.5935 26.4855 37.5635C26.5125 37.5305 26.5335 37.4885 26.5485 37.4375C26.5665 37.3835 26.5755 37.3175 26.5755 37.2395C26.5725 37.2095 26.571 37.181 26.571 37.154C26.571 37.124 26.571 37.0925 26.571 37.0595C26.571 36.7145 26.6475 36.4655 26.8005 36.3125C26.9535 36.1565 27.1635 36.0785 27.4305 36.0785C27.6975 36.0785 27.9075 36.1565 28.0605 36.3125C28.2135 36.4655 28.29 36.7145 28.29 37.0595C28.29 37.0925 28.2885 37.1255 28.2855 37.1585C28.2855 37.1915 28.284 37.223 28.281 37.253C28.284 37.406 28.314 37.511 28.371 37.568C28.431 37.622 28.494 37.649 28.56 37.649H28.6905C28.7505 37.649 28.7955 37.6625 28.8255 37.6895C28.8555 37.7135 28.8705 37.7555 28.8705 37.8155C28.8705 37.8935 28.8555 37.9445 28.8255 37.9685C28.7985 37.9895 28.7535 38 28.6905 38H28.5915C28.5495 38 28.5045 37.9985 28.4565 37.9955C28.4085 37.9895 28.3605 37.979 28.3125 37.964C28.2675 37.949 28.224 37.928 28.182 37.901C28.14 37.871 28.104 37.832 28.074 37.784C27.999 37.871 27.9075 37.934 27.7995 37.973C27.6915 38.012 27.5685 38.0315 27.4305 38.0315ZM27.4305 36.4295C27.2625 36.4295 27.1395 36.485 27.0615 36.596C26.9865 36.707 26.949 36.8615 26.949 37.0595C26.949 37.2755 26.9865 37.433 27.0615 37.532C27.1395 37.631 27.2625 37.6805 27.4305 37.6805C27.5985 37.6805 27.72 37.631 27.795 37.532C27.873 37.433 27.912 37.2755 27.912 37.0595C27.912 36.8615 27.873 36.707 27.795 36.596C27.72 36.485 27.5985 36.4295 27.4305 36.4295ZM28.6863 38C28.6263 38 28.5813 37.9895 28.5513 37.9685C28.5213 37.9475 28.5063 37.9055 28.5063 37.8425C28.5063 37.7675 28.5213 37.7165 28.5513 37.6895C28.5783 37.6625 28.6233 37.649 28.6863 37.649H28.9698C29.0448 37.649 29.0988 37.6325 29.1318 37.5995C29.1678 37.5635 29.1858 37.5005 29.1858 37.4105V34.985C29.1858 34.955 29.2008 34.94 29.2308 34.94H29.5188C29.5488 34.94 29.5638 34.955 29.5638 34.985V37.433C29.5638 37.628 29.5233 37.772 29.4423 37.865C29.3613 37.955 29.2263 38 29.0373 38H28.6863ZM30.5702 37.955C30.5702 37.985 30.5552 38 30.5252 38H30.2372C30.2072 38 30.1922 37.985 30.1922 37.955V34.985C30.1922 34.955 30.2072 34.94 30.2372 34.94H30.5252C30.5552 34.94 30.5702 34.955 30.5702 34.985V37.955Z" fill="#979C9D"/>
<g clip-path="url(#clip0_2307_8841)">
<path d="M111.951 28.048L111.951 27.998L111.901 27.998H111.082L111.032 27.998L111.032 28.0478L111.023 29.9886L111.023 29.9887C111.023 30.0503 111.035 30.1113 111.058 30.1683C111.082 30.2252 111.116 30.277 111.16 30.3206C111.203 30.3641 111.255 30.3986 111.312 30.4221C111.369 30.4455 111.43 30.4575 111.492 30.4572V30.4572L111.492 30.4572C111.613 30.4552 111.729 30.4062 111.814 30.3206C111.9 30.235 111.949 30.1196 111.951 29.9986L111.951 29.9986V29.9977L111.951 28.048Z" fill="#177AE2" stroke="#177AE2" stroke-width="0.1"/>
<path d="M112.889 25.8379L112.875 25.812L112.352 24.8604H112.14V25.7879V25.8379H112.09H111.707H111.657V25.7879V23.3441V23.2941H111.707H112.513C112.698 23.2941 112.857 23.328 112.989 23.3985C113.122 23.468 113.222 23.5623 113.288 23.6819C113.355 23.8001 113.388 23.9317 113.388 24.0755C113.388 24.2449 113.34 24.4001 113.245 24.5396C113.245 24.5397 113.245 24.5397 113.245 24.5397L113.204 24.5115C113.125 24.6285 113.006 24.7118 112.847 24.7612L112.889 25.8379ZM112.889 25.8379H112.919H113.375H113.461L113.418 25.7631L112.873 24.8056L112.889 25.8379ZM112.14 24.4404V24.4904H112.513C112.656 24.4904 112.763 24.4529 112.835 24.3779C112.909 24.3029 112.945 24.2021 112.945 24.0755C112.945 23.9489 112.91 23.8505 112.838 23.7802C112.767 23.7075 112.658 23.6711 112.513 23.6711H112.14V23.7211M112.14 24.4404H112.513C112.647 24.4404 112.74 24.4052 112.799 24.3434L112.799 24.3428L112.799 24.3428C112.862 24.279 112.895 24.1918 112.895 24.0755C112.895 23.9586 112.863 23.8744 112.803 23.8158L112.802 23.8152L112.802 23.8152C112.744 23.7556 112.65 23.7211 112.513 23.7211H112.14M112.14 24.4404H112.09V23.7211H112.14M112.14 24.4404V23.7211M110.006 25.7734L110.006 25.7734L110.007 25.7737C110.14 25.8333 110.288 25.8625 110.45 25.8625C110.623 25.8625 110.774 25.8283 110.904 25.758L110.904 25.7578C111.034 25.6859 111.134 25.5907 111.202 25.4719C111.271 25.3543 111.306 25.2285 111.306 25.0952C111.306 24.9336 111.27 24.799 111.192 24.6963C111.12 24.5963 111.031 24.5214 110.924 24.4731C110.825 24.4271 110.697 24.3818 110.542 24.3369L110.541 24.3368C110.426 24.3042 110.336 24.2744 110.272 24.2474C110.211 24.2218 110.161 24.1883 110.122 24.1474C110.089 24.1088 110.071 24.0591 110.071 23.9946C110.071 23.8957 110.102 23.8267 110.157 23.7797C110.216 23.7302 110.293 23.7036 110.393 23.7036C110.505 23.7036 110.59 23.7327 110.653 23.7865C110.718 23.842 110.751 23.9062 110.756 23.9808L110.76 24.0271H110.806H111.229H111.283L111.279 23.9733C111.262 23.755 111.176 23.58 111.019 23.4532C110.865 23.3248 110.669 23.2625 110.434 23.2625C110.269 23.2625 110.122 23.2917 109.993 23.3516C109.864 23.4116 109.763 23.4986 109.69 23.6127C109.617 23.7271 109.582 23.8598 109.582 24.0087C109.582 24.1681 109.617 24.3015 109.692 24.404C109.764 24.5015 109.85 24.5751 109.953 24.6235L109.953 24.6235L109.954 24.6241C110.053 24.6676 110.18 24.7105 110.333 24.7531L110.333 24.7532C110.453 24.7857 110.545 24.8155 110.609 24.8424L110.609 24.8424L110.61 24.8427C110.672 24.8681 110.723 24.9036 110.762 24.9486L110.762 24.9487L110.763 24.9495C110.8 24.9903 110.82 25.0444 110.82 25.1163C110.82 25.2085 110.788 25.2815 110.726 25.3394C110.664 25.3943 110.574 25.4249 110.45 25.4249C110.332 25.4249 110.246 25.3936 110.187 25.337C110.127 25.2782 110.092 25.2031 110.084 25.1086L110.08 25.0628H110.034H109.625H109.575V25.1128C109.575 25.2624 109.613 25.3954 109.691 25.5101C109.768 25.6236 109.874 25.7113 110.006 25.7734Z" fill="#31CDCD" stroke="#31CDCD" stroke-width="0.1"/>
</g>
<path d="M111.5 20.45L111.5 20.45C109.867 20.4531 108.39 21.4193 107.734 22.9133C107.079 24.4074 107.368 26.1474 108.472 27.3496L108.472 27.3497C109.252 28.1945 110.35 28.675 111.5 28.675C112.65 28.675 113.748 28.1945 114.528 27.3497L114.528 27.3496C115.632 26.1474 115.921 24.4074 115.266 22.9133C114.61 21.4193 113.133 20.4531 111.5 20.45ZM113.722 26.8715C113.125 27.4467 112.329 27.7688 111.5 27.77C110.671 27.7688 109.875 27.4467 109.278 26.8715L109.004 26.5185L108.729 26.1652C108.445 25.6804 108.295 25.1287 108.294 24.5667C108.294 22.7976 109.729 21.3633 111.5 21.3633C113.271 21.3633 114.706 22.7975 114.706 24.5666C114.705 25.1286 114.555 25.6803 114.271 26.1652L113.722 26.8715Z" fill="#177AE2" stroke="#177AE2" stroke-width="0.1"/>
<path fill-rule="evenodd" clip-rule="evenodd" d="M142.499 26.0003H138.997C138.721 26.0003 138.497 26.2243 138.497 26.5006V30.0028C138.497 30.2791 138.721 30.5031 138.997 30.5031H142.499C142.776 30.5031 143 30.2791 143 30.0028V26.5006C143 26.2243 142.776 26.0003 142.499 26.0003ZM141.999 29.5025H139.497V27.0009H141.999V29.5025ZM148.003 20.4969H144.501C144.224 20.4969 144 20.7209 144 20.9972V24.4994C144 24.7757 144.224 24.9997 144.501 24.9997H148.003C148.279 24.9997 148.503 24.7757 148.503 24.4994V20.9972C148.503 20.7209 148.279 20.4969 148.003 20.4969ZM147.502 23.9991H145.001V21.4975H147.502V23.9991ZM142.499 20.4969H138.997C138.721 20.4969 138.497 20.7209 138.497 20.9972V24.4994C138.497 24.7757 138.721 24.9997 138.997 24.9997H142.499C142.776 24.9997 143 24.7757 143 24.4994V20.9972C143 20.7209 142.776 20.4969 142.499 20.4969ZM141.999 23.9991H139.497V21.4975H141.999V23.9991Z" fill="#B5BBBC"/>
<path fill-rule="evenodd" clip-rule="evenodd" d="M148.003 26.0003H144.501C144.224 26.0003 144 26.2243 144 26.5006V30.0028C144 30.2791 144.224 30.5031 144.501 30.5031H148.003C148.279 30.5031 148.503 30.2791 148.503 30.0028V26.5006C148.503 26.2243 148.279 26.0003 148.003 26.0003ZM145.001 29.5025H147.502V27.0009H145.001V29.5025Z" fill="#B5BBBC"/>
<path fill-rule="evenodd" clip-rule="evenodd" d="M78.3882 14.056H75.0528C74.7458 14.056 74.4969 14.3049 74.4969 14.6119V17.9473C74.4969 18.2543 74.7458 18.5032 75.0528 18.5032H78.3882C78.6952 18.5032 78.9441 18.2543 78.9441 17.9473V14.6119C78.9441 14.3049 78.6952 14.056 78.3882 14.056ZM77.8323 17.3914H75.6087V15.1678H77.8323V17.3914ZM83.9472 8.49695H80.6118C80.3048 8.49695 80.0559 8.74584 80.0559 9.05285V12.3882C80.0559 12.6953 80.3048 12.9442 80.6118 12.9442H83.9472C84.2542 12.9442 84.5031 12.6953 84.5031 12.3882V9.05285C84.5031 8.74584 84.2542 8.49695 83.9472 8.49695ZM83.3913 11.8324H81.1677V9.60875H83.3913V11.8324ZM78.3882 8.49695H75.0528C74.7458 8.49695 74.4969 8.74584 74.4969 9.05285V12.3882C74.4969 12.6953 74.7458 12.9442 75.0528 12.9442H78.3882C78.6952 12.9442 78.9441 12.6953 78.9441 12.3882V9.05285C78.9441 8.74584 78.6952 8.49695 78.3882 8.49695ZM77.8323 11.8324H75.6087V9.60875H77.8323V11.8324Z" fill="white"/>
<path d="M82.8354 15.7237H83.9473C84.2543 15.7237 84.5031 15.9726 84.5031 16.2796C84.5031 16.5866 84.2543 16.8355 83.9473 16.8355H82.8354V17.9473C82.8354 18.2543 82.5865 18.5032 82.2795 18.5032C81.9725 18.5032 81.7236 18.2543 81.7236 17.9473V16.8355H80.6118C80.3048 16.8355 80.0559 16.5866 80.0559 16.2796C80.0559 15.9726 80.3048 15.7237 80.6118 15.7237H81.7236V14.6119C81.7236 14.3049 81.9725 14.056 82.2795 14.056C82.5865 14.056 82.8354 14.3049 82.8354 14.6119V15.7237Z" fill="#177AE2"/>
<path fill-rule="evenodd" clip-rule="evenodd" d="M53.6254 26.2741V24.6178C53.6247 23.8799 53.3628 23.166 52.8862 22.6026C52.4095 22.0392 51.7489 21.6627 51.0213 21.5397V20.972C51.0213 20.8339 50.9664 20.7014 50.8687 20.6037C50.7711 20.506 50.6386 20.4512 50.5004 20.4512C50.3623 20.4512 50.2298 20.506 50.1322 20.6037C50.0345 20.7014 49.9796 20.8339 49.9796 20.972V21.5397C49.252 21.6627 48.5913 22.0392 48.1147 22.6026C47.6381 23.166 47.3762 23.8799 47.3754 24.6178V26.2741C47.0715 26.3815 46.8083 26.5804 46.6218 26.8433C46.4353 27.1063 46.3347 27.4205 46.3338 27.7428V28.7845C46.3338 28.9226 46.3887 29.0551 46.4863 29.1528C46.584 29.2505 46.7165 29.3053 46.8546 29.3053H48.49H49.6046H51.3963H52.5109H54.1463C54.2844 29.3053 54.4169 29.2505 54.5146 29.1528C54.6122 29.0551 54.6671 28.9226 54.6671 28.7845V27.7428C54.6662 27.4205 54.5656 27.1063 54.3791 26.8433C54.1926 26.5804 53.9294 26.3815 53.6254 26.2741ZM49.0273 23.1447C48.6366 23.5354 48.4171 24.0653 48.4171 24.6178V26.1803H52.5838V24.6178C52.5838 24.0653 52.3643 23.5354 51.9736 23.1447C51.5829 22.754 51.053 22.5345 50.5004 22.5345C49.9479 22.5345 49.418 22.754 49.0273 23.1447ZM47.3754 28.2637H53.6254V27.7428C53.6254 27.6047 53.5706 27.4722 53.4729 27.3746C53.3752 27.2769 53.2427 27.222 53.1046 27.222H47.8963C47.7581 27.222 47.6257 27.2769 47.528 27.3746C47.4303 27.4722 47.3754 27.6047 47.3754 27.7428V28.2637Z" fill="#A6AEAF"/>
<path d="M48.4903 29.3116C48.6102 29.753 48.872 30.1426 49.2354 30.4204C49.5987 30.6981 50.0433 30.8486 50.5007 30.8486C50.958 30.8486 51.4027 30.6981 51.766 30.4204C52.1293 30.1426 52.3912 29.753 52.5111 29.3116H51.3965C51.3056 29.4691 51.1751 29.6 51.0179 29.6914C50.8608 29.7827 50.6825 29.8314 50.5007 29.8325C50.3189 29.8314 50.1406 29.7827 49.9834 29.6914C49.8262 29.6 49.6957 29.4691 49.6048 29.3116H48.4903Z" fill="#A6AEAF"/>
<path d="M54.8375 22.6571C54.8375 23.4993 54.1547 24.1821 53.3125 24.1821C52.4703 24.1821 51.7875 23.4993 51.7875 22.6571C51.7875 21.8148 52.4703 21.1321 53.3125 21.1321C54.1547 21.1321 54.8375 21.8148 54.8375 22.6571Z" fill="#F35252" stroke="#A6AEAF" stroke-width="0.7"/>
<path fill-rule="evenodd" clip-rule="evenodd" d="M16.4968 20.5C14.5154 20.5038 12.7231 21.6773 11.9273 23.4919C11.1315 25.3065 11.4824 27.4199 12.8218 28.88C13.7684 29.9061 15.1008 30.4897 16.4968 30.4897C17.8928 30.4897 19.2253 29.9061 20.1719 28.88C21.5113 27.4199 21.8622 25.3065 21.0664 23.4919C20.2705 21.6773 18.4783 20.5038 16.4968 20.5ZM16.4968 29.5C15.461 29.4984 14.4663 29.0951 13.7218 28.375C14.1841 27.2497 15.2802 26.5149 16.4968 26.5149C17.7135 26.5149 18.8096 27.2497 19.2719 28.375C18.5274 29.0951 17.5326 29.4984 16.4968 29.5ZM15.4968 24.5C15.4968 23.9477 15.9446 23.5 16.4968 23.5C17.0491 23.5 17.4968 23.9477 17.4968 24.5C17.4968 25.0523 17.0491 25.5 16.4968 25.5C15.9446 25.5 15.4968 25.0523 15.4968 24.5ZM19.9518 27.5C19.5051 26.7359 18.8175 26.1415 17.9968 25.81C18.706 25.0059 18.6549 23.7858 17.8812 23.0437C17.1075 22.3016 15.8862 22.3016 15.1125 23.0437C14.3387 23.7858 14.2877 25.0059 14.9968 25.81C14.1761 26.1415 13.4886 26.7359 13.0418 27.5C12.6858 26.8936 12.4977 26.2032 12.4968 25.5C12.4968 23.2909 14.2877 21.5 16.4968 21.5C18.706 21.5 20.4968 23.2909 20.4968 25.5C20.496 26.2032 20.3079 26.8936 19.9518 27.5Z" fill="#A6AEAF"/>
<defs>
<clipPath id="clip0_2307_8841">
<rect width="10" height="10" fill="white" transform="translate(106.5 20.5)"/>
</clipPath>
</defs>
</svg>
