<svg width="94" height="107" viewBox="0 0 94 107" fill="none" xmlns="http://www.w3.org/2000/svg">
<path d="M46.3357 41.6375C59.7462 36.5726 73.1568 36.5726 86.5674 41.6375V25.195C73.4489 21.2364 59.4541 21.2364 46.3357 25.195V41.6375Z" fill="#91DFDF"/>
<path d="M51.932 38.2366C61.6109 34.581 71.2898 34.581 80.9688 38.2366V26.3694C71.5007 23.5123 61.4001 23.5123 51.932 26.3694V38.2366Z" stroke="#31CDCD" stroke-width="0.472207" stroke-miterlimit="10"/>
<path d="M66.9751 32.8914C63.6905 32.8914 61.0278 31.4817 61.0278 29.7428C61.0278 28.0039 63.6905 26.5942 66.9751 26.5942C70.2597 26.5942 72.9224 28.0039 72.9224 29.7428C72.9224 31.4817 70.2597 32.8914 66.9751 32.8914Z" fill="#31CDCD"/>
<path d="M48.7999 18.5987C63.0588 20.0751 75.0498 26.0801 84.7727 36.6139L92.1355 21.912C82.1783 12.4982 69.665 6.23155 56.1626 3.89681L48.7999 18.5987Z" fill="#91DFDF"/>
<path d="M55.328 18.0659C65.6193 19.1314 74.2736 23.4655 81.291 31.0681L86.605 20.4572C79.4185 13.6629 70.3871 9.14 60.642 7.45493L55.328 18.0659Z" stroke="#31CDCD" stroke-width="0.472207" stroke-miterlimit="10"/>
<path d="M67.2662 14.5441C68.0448 12.9892 71.0569 12.9211 73.9938 14.3919C76.9306 15.8627 78.6802 18.3155 77.9016 19.8703C77.1229 21.4251 74.1109 21.4932 71.174 20.0224C68.2371 18.5516 66.4875 16.0989 67.2662 14.5441Z" fill="#31CDCD"/>
<path d="M61.9657 60.2943L17.7287 82.4176C17.1605 82.7099 16.5144 82.8151 15.8828 82.7182C15.2512 82.6212 14.6664 82.327 14.2121 81.8777L4.67318 72.1265C4.35501 71.8094 4.11238 71.4246 3.96331 71.0008C3.81424 70.577 3.76263 70.125 3.81218 69.6785C3.86173 69.232 4.01122 68.8024 4.24958 68.4216C4.48794 68.0408 4.80909 67.7186 5.18906 67.4789L40.0951 44.8131C40.5527 44.5225 41.0792 44.3584 41.6209 44.3373C42.1626 44.3163 42.7002 44.4391 43.179 44.6933L62.0605 54.9096C62.5445 55.1779 62.9464 55.5729 63.2231 56.0522C63.4997 56.5315 63.6408 57.0771 63.631 57.6305C63.6213 58.1838 63.4611 58.7241 63.1677 59.1933C62.8743 59.6626 62.4587 60.0432 61.9656 60.2943L61.9657 60.2943Z" fill="#3F3D56"/>
<path d="M58.6756 57.5587L18.8098 77.4962C18.6083 77.6045 18.3775 77.6452 18.1511 77.6126C17.9247 77.5799 17.7148 77.4755 17.5522 77.3146L8.97298 68.5452C8.87443 68.4494 8.79579 68.3351 8.74161 68.2088C8.68743 68.0825 8.65882 67.9467 8.65733 67.8093C8.65584 67.6719 8.68156 67.5355 8.73299 67.408C8.78442 67.2806 8.86051 67.1646 8.95697 67.0667C9.01055 67.0137 9.06969 66.9667 9.13327 66.9263L40.6176 46.4819C40.781 46.3801 40.9684 46.3234 41.1608 46.3174C41.3532 46.3115 41.5437 46.3566 41.713 46.4481L58.7204 55.6496C58.89 55.747 59.03 55.8883 59.126 56.0586C59.2219 56.229 59.2702 56.4221 59.2656 56.6175C59.261 56.813 59.2038 57.0035 59.1 57.1692C58.9961 57.3349 58.8495 57.4694 58.6756 57.5587L58.6756 57.5587Z" fill="white"/>
<path d="M20.2527 84.6101C20.9604 84.0105 21.783 83.5615 22.6702 83.2905C23.5573 83.0196 24.4904 82.9324 25.4124 83.0343L34.66 84.0995C36.5318 84.318 38.4159 83.809 39.923 82.6777C41.43 81.5463 42.4447 79.8791 42.7573 78.0207C43.1285 75.8231 43.2443 73.4327 42.6672 71.413L25.289 71.1788L25.679 68.9089C25.679 68.9089 18.1062 71.1355 18.2356 77.1398C18.2356 77.1398 13.0117 82.1591 -0.486958 80.4978L-0.3187 94.6125C6.67516 93.031 13.8332 89.9919 20.2527 84.6101Z" fill="#D68653"/>
<path d="M26.3378 45.6793L19.8001 50.2376C19.7546 50.2701 19.7024 50.2885 19.6488 50.2908C19.5952 50.2932 19.542 50.2795 19.4944 50.2511C19.4468 50.2227 19.4066 50.1806 19.3777 50.129C19.3488 50.0774 19.3322 50.018 19.3296 49.9568L18.9248 41.5478C18.9215 41.4765 18.9347 41.4054 18.9629 41.3416C18.9911 41.2778 19.0335 41.2235 19.0857 41.1842C19.138 41.145 19.1984 41.122 19.2608 41.1176C19.3233 41.1132 19.3856 41.1276 19.4417 41.1593C21.643 43.2398 23.9399 44.4919 26.3147 45.0611C26.3649 45.0885 26.4076 45.1311 26.4383 45.1841C26.4689 45.2371 26.4864 45.2987 26.4887 45.3622C26.4911 45.4257 26.4783 45.4888 26.4517 45.5446C26.4251 45.6005 26.3858 45.647 26.3378 45.6793Z" fill="#177AE2"/>
<path d="M39.4172 28.7318C30.1771 29.6464 24.8513 34.2909 20.9735 43.0026C20.8503 43.2786 20.7992 43.5904 20.8261 43.9013C20.8529 44.2122 20.9568 44.5093 21.1253 44.7577L21.3221 45.0538C21.4637 45.2617 21.6463 45.4286 21.8545 45.5405C22.0628 45.6524 22.2907 45.706 22.5192 45.6968C22.7476 45.6876 22.9699 45.6159 23.1674 45.4877C23.3649 45.3596 23.5319 45.1786 23.6544 44.9601C27.4811 38.126 30.6754 33.5054 39.7971 31.9798C40.0288 31.9405 40.2475 31.8364 40.434 31.6767C40.6205 31.517 40.769 31.3067 40.8663 31.0643C40.9637 30.8218 41.007 30.5548 40.9923 30.2866C40.9776 30.0185 40.9055 29.7575 40.7823 29.5268C40.6408 29.2624 40.4378 29.0477 40.1964 28.9071C39.955 28.7665 39.685 28.7058 39.4172 28.7318Z" fill="#177AE2"/>
</svg>
