<svg width="200" height="116" viewBox="0 0 200 116" fill="none" xmlns="http://www.w3.org/2000/svg">
<rect x="0.953107" y="0.49513" width="55.7985" height="114.419" rx="13.3685" stroke="#177AE2" stroke-width="0.99026"/>
<rect x="3.92985" y="2.78492" width="50.0738" height="109.381" rx="10.0676" stroke="#177AE2" stroke-width="0.99026"/>
<path d="M39.2713 6.6034H18.8914C16.7399 6.6034 14.9662 4.98518 14.7212 2.89943H43.4415C43.1965 4.98518 41.4229 6.6034 39.2713 6.6034Z" stroke="#177AE2" stroke-width="0.99026"/>
<path d="M24.3738 4.80878C24.3738 4.54845 24.5849 4.33741 24.8452 4.33741H29.8829C30.1432 4.33741 30.3543 4.54845 30.3543 4.80878C30.3543 5.06911 30.1432 5.28015 29.8829 5.28015H24.8452C24.5849 5.28015 24.3738 5.06911 24.3738 4.80878Z" stroke="#177AE2" stroke-width="0.660173"/>
<path d="M33.6743 4.80877C33.6743 5.13233 33.412 5.39463 33.0884 5.39463C32.7649 5.39463 32.5026 5.13233 32.5026 4.80877C32.5026 4.48521 32.7649 4.22291 33.0884 4.22291C33.412 4.22291 33.6743 4.48521 33.6743 4.80877Z" stroke="#177AE2" stroke-width="0.660173"/>
<rect y="18.3191" width="0.457974" height="4.35075" fill="#177AE2"/>
<rect x="57.2466" y="29.0813" width="0.457974" height="14.4262" fill="#177AE2"/>
<rect y="25.4175" width="0.457974" height="10.0754" fill="#177AE2"/>
<rect y="36.6379" width="0.457974" height="10.0754" fill="#177AE2"/>
<rect x="-0.49513" y="0.49513" width="55.7985" height="114.419" rx="13.3685" transform="matrix(-1 0 0 1 127.835 0)" stroke="#177AE2" stroke-width="0.99026"/>
<rect width="0.457974" height="4.35075" transform="matrix(-1 0 0 1 129.284 18.3191)" fill="#177AE2"/>
<rect width="0.457974" height="14.4262" transform="matrix(-1 0 0 1 72.0369 29.0813)" fill="#177AE2"/>
<rect width="0.457974" height="10.0754" transform="matrix(-1 0 0 1 129.284 25.4175)" fill="#177AE2"/>
<rect width="0.457974" height="10.0754" transform="matrix(-1 0 0 1 129.284 36.6379)" fill="#177AE2"/>
<rect x="75.5087" y="4.15895" width="23.2824" height="23.2824" rx="9.07738" stroke="#177AE2" stroke-width="0.99026"/>
<circle cx="82.3411" cy="10.0753" r="4.3136" stroke="#177AE2" stroke-width="0.99026"/>
<circle cx="96.424" cy="21.8683" r="0.700355" stroke="#177AE2" stroke-width="0.660173"/>
<circle cx="82.3411" cy="21.7538" r="4.3136" stroke="#177AE2" stroke-width="0.99026"/>
<circle cx="92.6455" cy="15.8002" r="4.3136" stroke="#177AE2" stroke-width="0.99026"/>
<rect x="147.87" y="0.49513" width="5.10805" height="112.619" rx="1.1553" stroke="#177AE2" stroke-width="0.99026"/>
<rect x="147.825" y="11.7449" width="5.19486" height="0.903453" stroke="#177AE2" stroke-width="0.903453"/>
<rect x="147.825" y="100.961" width="5.19486" height="0.903453" stroke="#177AE2" stroke-width="0.903453"/>
<path d="M154.601 5.08178L153.472 4.29126V14.2292L154.601 13.5517V5.08178Z" fill="#177AE2"/>
<path d="M154.601 16.6008L153.472 15.8103V25.7483L154.601 25.0707V16.6008Z" fill="#177AE2"/>
<rect x="-0.330087" y="0.330087" width="1.59846" height="13.1175" rx="0.79923" transform="matrix(-1 0 0 1 151.005 28.9104)" stroke="#177AE2" stroke-width="0.660173"/>
<rect x="-0.330087" y="0.330087" width="1.59846" height="15.8278" rx="0.79923" transform="matrix(-1 0 0 1 151.005 63.6936)" stroke="#177AE2" stroke-width="0.660173"/>
<rect x="-0.49513" y="0.49513" width="5.10805" height="112.619" rx="1.1553" transform="matrix(-1 0 0 1 176.649 0)" stroke="#177AE2" stroke-width="0.99026"/>
<rect x="-0.451727" y="0.451727" width="5.19486" height="0.903453" transform="matrix(-1 0 0 1 176.736 11.2932)" stroke="#177AE2" stroke-width="0.903453"/>
<rect x="-0.451727" y="0.451727" width="5.19486" height="0.903453" transform="matrix(-1 0 0 1 176.736 100.509)" stroke="#177AE2" stroke-width="0.903453"/>
<path d="M170.412 5.08203L171.541 4.2915V14.2295L170.412 13.5519V5.08203Z" fill="#177AE2"/>
<path d="M170.412 16.6008L171.541 15.8103V25.7483L170.412 25.0707V16.6008Z" fill="#177AE2"/>
<rect x="173.678" y="26.0786" width="1.59846" height="8.60022" rx="0.79923" stroke="#177AE2" stroke-width="0.660173"/>
<rect x="173.678" y="18.1733" width="1.59846" height="4.53468" rx="0.79923" stroke="#177AE2" stroke-width="0.660173"/>
<rect x="173.678" y="18.1733" width="0.92087" height="4.53468" rx="0.460435" stroke="#177AE2" stroke-width="0.660173"/>
<rect x="173.678" y="37.1458" width="1.59846" height="8.60022" rx="0.79923" stroke="#177AE2" stroke-width="0.660173"/>
<rect x="173.678" y="80.5115" width="1.59846" height="11.9882" rx="0.79923" stroke="#177AE2" stroke-width="0.660173"/>
<circle cx="174.477" cy="91.7006" r="0.573367" stroke="#177AE2" stroke-width="0.660173"/>
<rect x="-0.49513" y="0.49513" width="5.10805" height="54.5721" rx="1.1553" transform="matrix(-1 0 0 1 199.01 0)" stroke="#177AE2" stroke-width="0.99026"/>
<rect x="-0.451727" y="0.451727" width="5.19486" height="0.903453" transform="matrix(-1 0 0 1 199.096 10.8416)" stroke="#177AE2" stroke-width="0.903453"/>
<rect x="196.039" y="24.7234" width="1.82432" height="5.88986" rx="0.912162" stroke="#177AE2" stroke-width="0.660173"/>
<path d="M197.493 22.8007C197.493 23.1173 197.237 23.374 196.92 23.374C196.603 23.374 196.347 23.1173 196.347 22.8007C196.347 22.484 196.603 22.2273 196.92 22.2273C197.237 22.2273 197.493 22.484 197.493 22.8007Z" stroke="#177AE2" stroke-width="0.660173"/>
<path d="M197.493 19.1984C197.493 19.515 197.237 19.7717 196.92 19.7717C196.603 19.7717 196.347 19.515 196.347 19.1984C196.347 18.8817 196.603 18.625 196.92 18.625C197.237 18.625 197.493 18.8817 197.493 19.1984Z" stroke="#177AE2" stroke-width="0.660173"/>
<path d="M197.493 41.1071C197.493 41.4237 197.237 41.6804 196.92 41.6804C196.603 41.6804 196.347 41.4237 196.347 41.1071C196.347 40.7904 196.603 40.5337 196.92 40.5337C197.237 40.5337 197.493 40.7904 197.493 41.1071Z" stroke="#177AE2" stroke-width="0.660173"/>
<path d="M197.493 43.3659C197.493 43.6825 197.237 43.9392 196.92 43.9392C196.603 43.9392 196.347 43.6825 196.347 43.3659C196.347 43.0492 196.603 42.7925 196.92 42.7925C197.237 42.7925 197.493 43.0492 197.493 43.3659Z" stroke="#177AE2" stroke-width="0.660173"/>
<path d="M197.493 16.9396C197.493 17.2562 197.237 17.513 196.92 17.513C196.603 17.513 196.347 17.2562 196.347 16.9396C196.347 16.6229 196.603 16.3662 196.92 16.3662C197.237 16.3662 197.493 16.6229 197.493 16.9396Z" stroke="#177AE2" stroke-width="0.660173"/>
<path d="M197.493 38.8485C197.493 39.1652 197.237 39.4219 196.92 39.4219C196.603 39.4219 196.347 39.1652 196.347 38.8485C196.347 38.5319 196.603 38.2752 196.92 38.2752C197.237 38.2752 197.493 38.5319 197.493 38.8485Z" stroke="#177AE2" stroke-width="0.660173"/>
<path d="M197.493 14.681C197.493 14.9977 197.237 15.2544 196.92 15.2544C196.603 15.2544 196.347 14.9977 196.347 14.681C196.347 14.3644 196.603 14.1077 196.92 14.1077C197.237 14.1077 197.493 14.3644 197.493 14.681Z" stroke="#177AE2" stroke-width="0.660173"/>
<path d="M197.493 36.5897C197.493 36.9064 197.237 37.1631 196.92 37.1631C196.603 37.1631 196.347 36.9064 196.347 36.5897C196.347 36.2731 196.603 36.0164 196.92 36.0164C197.237 36.0164 197.493 36.2731 197.493 36.5897Z" stroke="#177AE2" stroke-width="0.660173"/>
<path d="M197.493 32.7501C197.493 33.0668 197.237 33.3235 196.92 33.3235C196.603 33.3235 196.347 33.0668 196.347 32.7501C196.347 32.4335 196.603 32.1768 196.92 32.1768C197.237 32.1768 197.493 32.4335 197.493 32.7501Z" stroke="#177AE2" stroke-width="0.660173"/>
<rect x="0.49513" y="-0.49513" width="5.10805" height="54.5721" rx="1.1553" transform="matrix(1 8.74228e-08 8.74228e-08 -1 193.902 112.734)" stroke="#177AE2" stroke-width="0.99026"/>
<rect x="0.451727" y="-0.451727" width="5.19486" height="0.903453" transform="matrix(1 8.74228e-08 8.74228e-08 -1 193.902 101.979)" stroke="#177AE2" stroke-width="0.903453"/>
</svg>
