<svg width="375" height="74" viewBox="0 0 375 74" fill="none" xmlns="http://www.w3.org/2000/svg">
<path d="M223 34C223 52.7777 207.707 68 188.843 68C159.708 66.5 154.183 61.7777 154.183 43C154.183 24.2223 169.978 0 188.843 0C207.707 0 223 15.2223 223 34Z" fill="#EDF4FE"/>
<path d="M158.943 57.67C159.079 57.0614 159.737 56.7267 160.313 56.9724L173.915 62.775C174.811 63.1573 174.691 64.4593 173.74 64.6676L158.062 68.1024C157.346 68.2594 156.707 67.6207 156.868 66.9075L158.943 57.67Z" fill="#EDF4FE"/>
<path d="M186.106 40.4141L185.462 40.3225C184.886 40.2398 184.366 39.9329 184.017 39.4691C183.667 39.0053 183.517 38.4226 183.599 37.8487L183.676 37.311C183.868 35.9791 184.282 34.9 184.906 34.1037C185.657 33.181 186.5 32.3361 187.422 31.5822C188.027 31.1278 188.59 30.6201 189.104 30.0651C189.478 29.6304 189.716 29.0961 189.788 28.5283C189.98 27.1922 189.198 26.4182 187.399 26.162C186.4 26.0311 185.387 26.038 184.389 26.1826C184.005 26.2349 183.614 26.1977 183.247 26.074C182.879 25.9503 182.546 25.7434 182.272 25.4696C181.999 25.1958 181.793 24.8626 181.671 24.4961C181.549 24.1297 181.514 23.7401 181.569 23.3579L181.725 22.2694C181.791 21.8005 181.991 21.3605 182.303 21.0028C182.614 20.645 183.023 20.3849 183.48 20.2539C185.274 19.7765 187.148 19.6791 188.982 19.968C190.908 20.2422 192.6 20.8117 194.011 21.6605C195.425 22.5111 196.485 23.5777 197.163 24.8306C197.839 26.0751 198.088 27.5055 197.871 28.9038C197.655 30.4076 197.054 31.6587 196.086 32.6222C195.128 33.5761 193.806 34.5815 192.158 35.6107C191.291 36.1416 190.458 36.7253 189.664 37.3586C189.15 37.7725 188.752 38.3107 188.507 38.9218C188.349 39.4131 188.021 39.8327 187.581 40.1059C187.141 40.3791 186.619 40.4884 186.106 40.4141Z" fill="#177AE2"/>
<path d="M184.282 50.5623L184.197 50.5502C183.129 50.3974 182.166 49.8286 181.519 48.9689C180.871 48.1092 180.594 47.029 180.747 45.9657C180.9 44.9023 181.47 43.9429 182.334 43.2983C183.197 42.6537 184.282 42.3767 185.35 42.5281L185.435 42.5402C185.965 42.6153 186.474 42.7934 186.934 43.0645C187.394 43.3356 187.797 43.6943 188.117 44.1201C188.438 44.546 188.672 45.0305 188.805 45.5462C188.937 46.0619 188.967 46.5985 188.891 47.1255C188.815 47.6524 188.636 48.1594 188.363 48.6173C188.09 49.0753 187.73 49.4752 187.302 49.7944C186.874 50.1136 186.387 50.3457 185.869 50.4774C185.351 50.6092 184.811 50.638 184.282 50.5623Z" fill="#177AE2"/>
</svg>
