<svg width="375" height="129" viewBox="0 0 375 129" fill="none" xmlns="http://www.w3.org/2000/svg">
<g clip-path="url(#clip0_4745_26153)">
<path opacity="0.42" d="M186.109 129.218C254.652 129.218 310.217 125.975 310.217 121.973C310.217 117.971 254.652 114.728 186.109 114.728C117.565 114.728 62 117.971 62 121.973C62 125.975 117.565 129.218 186.109 129.218Z" fill="#177AE2" fill-opacity="0.22"/>
<path d="M131.632 59.3263H165.559V116.738C165.559 118.222 174.362 118.862 174.041 119.911C173.721 120.961 171.693 122.335 171.239 122.335H133.341C132.888 122.335 132.453 121.745 132.132 120.695C131.812 119.646 131.632 118.222 131.632 116.738V59.3263Z" fill="#B2CDE9"/>
<path d="M132.218 59.2106H211.644L201.874 46.7064C200.8 45.3345 198.143 44.2248 195.932 44.2248H124.502C122.3 44.2248 121.373 45.3345 122.448 46.7064L132.218 59.2106Z" fill="#B2CDE9"/>
<path d="M244.458 59.2107H165.041L174.811 51.058C175.886 50.1842 178.542 49.4415 180.753 49.4415H252.175C254.386 49.4415 255.303 50.1667 254.228 51.058L244.458 59.2107Z" fill="#C8DEF4"/>
<path d="M165.56 59.3263H244.458V116.681C244.458 118.181 243.863 119.619 242.802 120.679C241.742 121.739 240.304 122.335 238.804 122.335H170.668C169.169 122.335 166.771 122.416 165.56 122.335C165.56 120.598 165.56 117.857 165.56 116.357L165.56 59.3263Z" fill="#C8DEF4"/>
<path opacity="0.5" d="M142.075 59.2107V98.9604L144.819 96.7934L146.75 98.9604L148.428 96.5487L150.15 98.9604L152.544 97.1429L155.183 98.9604V59.2107H142.075Z" fill="white"/>
<path d="M244.5 35L260.73 12" stroke="#407BFF" stroke-width="2.54164" stroke-miterlimit="10"/>
<path d="M240.5 40.5L243.118 37.0396" stroke="#407BFF" stroke-width="2.54164" stroke-miterlimit="10"/>
</g>
<defs>
<clipPath id="clip0_4745_26153">
<rect width="375" height="129" fill="white"/>
</clipPath>
</defs>
</svg>
