<?xml version="1.0" encoding="UTF-8"?>
<svg xmlns="http://www.w3.org/2000/svg" xmlns:xlink="http://www.w3.org/1999/xlink" width="60px" height="80px" viewBox="0 0 60 80" version="1.1">
<g id="surface1">
<path style=" stroke:none;fill-rule:nonzero;fill:rgb(24.705882%,23.921569%,33.72549%);fill-opacity:1;" d="M 59.625 20.484375 L 47.722656 26.453125 C 47.570312 26.53125 47.386719 26.574219 47.195312 26.574219 C 47.007812 26.574219 46.824219 26.53125 46.671875 26.453125 L 43.453125 24.742188 C 43.347656 24.6875 43.261719 24.617188 43.199219 24.53125 C 43.136719 24.449219 43.101562 24.359375 43.09375 24.265625 C 43.089844 24.171875 43.113281 24.078125 43.164062 23.992188 C 43.21875 23.90625 43.296875 23.828125 43.398438 23.765625 L 52.558594 17.984375 C 52.679688 17.910156 52.824219 17.859375 52.980469 17.835938 C 53.136719 17.816406 53.300781 17.824219 53.453125 17.859375 L 59.414062 19.371094 C 59.566406 19.410156 59.699219 19.480469 59.800781 19.570312 C 59.90625 19.660156 59.96875 19.769531 59.992188 19.882812 C 60.015625 19.996094 59.992188 20.113281 59.925781 20.21875 C 59.863281 20.328125 59.757812 20.417969 59.625 20.484375 Z M 59.625 20.484375 "/>
<path style=" stroke:none;fill-rule:nonzero;fill:rgb(100%,100%,100%);fill-opacity:1;" d="M 58.542969 20.023438 L 47.816406 25.402344 C 47.761719 25.429688 47.695312 25.445312 47.628906 25.449219 C 47.5625 25.449219 47.496094 25.433594 47.441406 25.40625 L 44.546875 23.867188 C 44.515625 23.851562 44.484375 23.828125 44.464844 23.804688 C 44.445312 23.78125 44.429688 23.753906 44.421875 23.726562 C 44.414062 23.695312 44.417969 23.667969 44.425781 23.640625 C 44.4375 23.613281 44.453125 23.585938 44.476562 23.5625 C 44.488281 23.550781 44.503906 23.539062 44.523438 23.527344 L 52.785156 18.3125 C 52.828125 18.285156 52.878906 18.269531 52.933594 18.261719 C 52.992188 18.253906 53.046875 18.257812 53.101562 18.269531 L 58.472656 19.628906 C 58.523438 19.644531 58.570312 19.667969 58.609375 19.703125 C 58.644531 19.734375 58.664062 19.773438 58.671875 19.8125 C 58.679688 19.851562 58.671875 19.894531 58.648438 19.929688 C 58.625 19.96875 58.589844 20 58.542969 20.023438 Z M 58.542969 20.023438 "/>
<path style=" stroke:none;fill-rule:nonzero;fill:rgb(83.921569%,52.54902%,32.54902%);fill-opacity:1;" d="M 48.554688 26.824219 C 48.734375 26.679688 48.953125 26.558594 49.199219 26.476562 C 49.445312 26.390625 49.714844 26.34375 49.988281 26.335938 L 52.730469 26.261719 C 53.285156 26.25 53.8125 26.085938 54.203125 25.804688 C 54.589844 25.523438 54.8125 25.144531 54.820312 24.753906 C 54.828125 24.285156 54.757812 23.789062 54.5 23.390625 L 49.421875 23.894531 L 49.433594 23.414062 C 49.433594 23.414062 47.328125 24.113281 47.632812 25.347656 C 47.632812 25.347656 46.335938 26.546875 42.324219 26.632812 L 43.007812 29.539062 C 44.972656 28.992188 46.925781 28.140625 48.554688 26.824219 Z M 48.554688 26.824219 "/>
<path style=" stroke:none;fill-rule:nonzero;fill:rgb(24.313725%,46.27451%,73.333333%);fill-opacity:1;" d="M 1.660156 79.375 C 0.671875 79.261719 0.226562 78.839844 0.0390625 78.386719 C 0.0390625 78.390625 0.0351562 78.394531 0.0351562 78.398438 C -0.113281 78.875 0.226562 79.371094 0.898438 79.605469 C 1.714844 79.890625 2.605469 79.941406 3.296875 79.917969 C 4.039062 79.890625 4.722656 79.640625 5.097656 79.230469 L 5.101562 79.226562 C 4.355469 79.53125 3.3125 79.566406 1.660156 79.375 Z M 1.660156 79.375 "/>
<path style=" stroke:none;fill-rule:nonzero;fill:rgb(9.803922%,5.098039%,26.666667%);fill-opacity:1;" d="M 6.324219 72.328125 L 4.667969 72.328125 C 2.140625 72.285156 0.554688 76.683594 0.0390625 78.382812 C 0.226562 78.839844 0.671875 79.261719 1.660156 79.375 C 3.3125 79.566406 4.355469 79.53125 5.101562 79.226562 C 6.464844 77.742188 7.144531 75.574219 7.464844 74.304688 C 7.835938 72.867188 6.324219 72.328125 6.324219 72.328125 Z M 6.324219 72.328125 "/>
<path style=" stroke:none;fill-rule:nonzero;fill:rgb(83.921569%,52.54902%,32.54902%);fill-opacity:1;" d="M 3.277344 73.140625 C 3.09375 73.402344 3.273438 73.722656 3.664062 73.824219 L 4.488281 74.039062 L 5.746094 74.214844 C 6.027344 74.257812 6.316406 74.171875 6.46875 74 L 12.410156 67.484375 L 8.296875 66.03125 Z M 3.277344 73.140625 "/>
<path style=" stroke:none;fill-rule:nonzero;fill:rgb(24.313725%,46.27451%,73.333333%);fill-opacity:1;" d="M 48.144531 79.015625 C 45.863281 79.152344 41.902344 79.382812 38.78125 79.480469 C 36.90625 79.535156 35.828125 79.40625 35.207031 79.230469 C 35.207031 79.28125 35.207031 79.328125 35.210938 79.371094 C 35.21875 79.484375 35.289062 79.589844 35.402344 79.671875 C 35.515625 79.75 35.664062 79.796875 35.824219 79.804688 C 41.71875 80.035156 46.410156 79.882812 48.078125 79.8125 C 48.15625 79.808594 48.234375 79.792969 48.300781 79.761719 C 48.367188 79.730469 48.421875 79.691406 48.460938 79.640625 C 48.496094 79.59375 48.515625 79.539062 48.515625 79.480469 C 48.515625 79.425781 48.492188 79.371094 48.453125 79.320312 C 48.359375 79.214844 48.257812 79.113281 48.144531 79.015625 Z M 48.144531 79.015625 "/>
<path style=" stroke:none;fill-rule:nonzero;fill:rgb(9.803922%,5.098039%,26.666667%);fill-opacity:1;" d="M 38.78125 79.476562 C 41.902344 79.382812 45.863281 79.152344 48.144531 79.015625 C 45.902344 77.0625 39.691406 75.992188 39.691406 75.992188 L 36.585938 75.992188 C 35.203125 77.40625 35.191406 78.507812 35.207031 79.230469 C 35.828125 79.40625 36.90625 79.535156 38.78125 79.476562 Z M 38.78125 79.476562 "/>
<path style=" stroke:none;fill-rule:nonzero;fill:rgb(83.921569%,52.54902%,32.54902%);fill-opacity:1;" d="M 36.445312 76.382812 L 39.5625 76.382812 L 41.042969 67.886719 L 36.445312 67.886719 Z M 36.445312 76.382812 "/>
<path style=" stroke:none;fill-rule:nonzero;fill:rgb(83.921569%,52.54902%,32.54902%);fill-opacity:1;" d="M 30.261719 10.085938 L 30.511719 12.558594 C 30.601562 13.425781 29.726562 13.933594 28.246094 13.996094 C 26.984375 14.050781 25.566406 13.773438 25.542969 13.007812 L 25.476562 9.097656 Z M 30.261719 10.085938 "/>
<path style=" stroke:none;fill-rule:nonzero;fill:rgb(83.921569%,52.54902%,32.54902%);fill-opacity:1;" d="M 29.457031 11.488281 C 31.980469 11.367188 33.914062 9.8125 33.84375 8.300781 L 33.664062 5.144531 C 33.570312 3.25 31.445312 1.746094 28.855469 1.742188 C 26.207031 1.738281 23.601562 3.308594 23.609375 5.246094 L 23.792969 7.707031 C 23.949219 9.921875 26.429688 11.484375 29.457031 11.488281 Z M 29.457031 11.488281 "/>
<path style=" stroke:none;fill-rule:nonzero;fill:rgb(9.803922%,5.098039%,26.666667%);fill-opacity:1;" d="M 25.785156 3.429688 C 25.785156 3.429688 27.1875 4.367188 25.144531 5.914062 L 22.859375 7.195312 C 22.859375 7.195312 18.449219 3.761719 24.023438 3.148438 Z M 25.785156 3.429688 "/>
<path style=" stroke:none;fill-rule:nonzero;fill:rgb(83.921569%,52.54902%,32.54902%);fill-opacity:1;" d="M 21.832031 7.625 C 21.832031 8.269531 22.550781 8.792969 23.429688 8.792969 C 24.3125 8.796875 25.023438 8.273438 25.019531 7.628906 C 25.019531 6.980469 24.300781 6.460938 23.421875 6.460938 C 22.539062 6.457031 21.828125 6.980469 21.832031 7.625 Z M 21.832031 7.625 "/>
<path style="fill:none;stroke-width:0.0570947;stroke-linecap:round;stroke-linejoin:round;stroke:rgb(19.607843%,13.72549%,12.54902%);stroke-opacity:1;stroke-miterlimit:4;" d="M 23.972656 11.167578 C 23.972656 11.167578 23.96875 9.975781 22.863281 10.157861 " transform="matrix(1,0,0,0.707965,0,0)"/>
<path style=" stroke:none;fill-rule:nonzero;fill:rgb(9.803922%,5.098039%,26.666667%);fill-opacity:1;" d="M 25.59375 3.617188 C 25.59375 3.617188 29.941406 3.332031 32.507812 2.898438 C 32.507812 2.898438 34.929688 1.933594 33.621094 0.945312 C 32.589844 0.167969 30.707031 1.101562 30.707031 1.101562 C 30.707031 1.101562 30.542969 0.199219 29.597656 0.0507812 C 28.460938 -0.125 25.273438 -0.0195312 23.265625 3.289062 Z M 25.59375 3.617188 "/>
<path style=" stroke:none;fill-rule:nonzero;fill:rgb(100%,100%,100%);fill-opacity:1;" d="M 30 12.761719 C 29.546875 12.742188 26.957031 12.203125 21.382812 13.277344 L 17.074219 15.074219 L 17.996094 26.585938 C 17.996094 26.585938 15.300781 32.117188 14.03125 34.632812 C 13.316406 36.488281 3.160156 67.148438 1.980469 70.71875 C 1.914062 70.910156 2.070312 71.089844 2.339844 71.136719 C 6.277344 71.804688 33.644531 76.273438 44.578125 73.835938 C 44.804688 73.785156 44.9375 73.628906 44.910156 73.460938 L 38.070312 27.886719 L 37.664062 25.011719 L 35.910156 23.75 L 37.792969 17.710938 C 38.203125 16.394531 37.425781 15.035156 35.835938 14.292969 C 35.160156 13.976562 34.421875 13.730469 33.648438 13.5625 Z M 30 12.761719 "/>
<path style=" stroke:none;fill-rule:nonzero;fill:rgb(100%,100%,100%);fill-opacity:1;" d="M 34.414062 21.851562 C 34.414062 21.851562 35.902344 28.257812 38.882812 29.613281 C 42.804688 30.558594 49.035156 28.75 49.035156 28.75 L 47.410156 25.300781 L 41.960938 26.164062 L 37.664062 15.527344 L 36.851562 15.238281 Z M 34.414062 21.851562 "/>
<path style=" stroke:none;fill-rule:nonzero;fill:rgb(83.921569%,52.54902%,32.54902%);fill-opacity:1;" d="M 21.492188 21.023438 C 21.632812 20.855469 21.816406 20.710938 22.039062 20.59375 C 22.257812 20.480469 22.511719 20.398438 22.777344 20.355469 L 25.453125 19.929688 C 25.996094 19.84375 26.472656 19.613281 26.78125 19.289062 C 27.089844 18.960938 27.210938 18.5625 27.117188 18.175781 C 27.007812 17.714844 26.808594 17.238281 26.453125 16.878906 L 21.589844 18.027344 L 21.476562 17.554688 C 21.476562 17.554688 19.585938 18.511719 20.207031 19.6875 C 20.207031 19.6875 19.238281 21.035156 15.320312 21.636719 L 16.738281 24.410156 C 18.53125 23.617188 20.226562 22.523438 21.492188 21.023438 Z M 21.492188 21.023438 "/>
<path style=" stroke:none;fill-rule:nonzero;fill:rgb(100%,100%,100%);fill-opacity:1;" d="M 18.875 14.867188 L 24.929688 12.917969 C 24.929688 12.917969 15.808594 13.277344 13.796875 16.378906 C 13.667969 17.011719 12.136719 19.480469 11.5 21.890625 C 10.796875 24.527344 10.992188 27.09375 10.992188 27.09375 L 13.019531 29.070312 L 15.554688 27.632812 Z M 18.875 14.867188 "/>
<path style=" stroke:none;fill-rule:nonzero;fill:rgb(100%,100%,100%);fill-opacity:1;" d="M 11.5 25.121094 C 11.5 25.121094 8.964844 29.785156 13.78125 29.785156 C 19.101562 29.246094 22.332031 21.566406 22.332031 21.566406 L 20.367188 20.8125 L 17.835938 19.738281 Z M 11.5 25.121094 "/>
</g>
</svg>
