<svg width="118" height="177" viewBox="0 0 118 177" fill="none" xmlns="http://www.w3.org/2000/svg">
<path d="M115.363 8.99991C115.977 37.1264 117.968 134.146 117.017 168.525C116.917 172.167 114.346 175.091 111.139 175.21C95.2789 175.799 37.1371 177.293 11.1954 176.058C5.79217 175.8 1.49527 170.826 1.38273 164.688C0.843914 135.165 -0.34558 52.1293 2.48151 14.0903C2.82253 9.53299 5.96951 5.90344 9.97654 5.44851C27.2487 3.48574 85.6409 -1.31194 108.055 0.340265C112.096 0.639582 115.263 4.40024 115.363 8.99991Z" fill="#177AE2"/>
<path d="M108.318 17.5191C109.172 40.2215 111.865 115.747 111.009 143.674C110.885 147.757 108.052 151.057 104.462 151.296C89.681 152.278 39.2524 154.444 17.5721 152.473C13.6688 152.118 10.605 148.532 10.3943 144.09C9.29617 120.929 6.14169 50.6035 6.96083 22.9889C7.0911 18.5839 10.0983 14.9862 13.9607 14.5915C29.9513 12.9612 83.3455 10.6275 101.961 10.221C105.425 10.1481 108.17 13.5916 108.318 17.5191Z" fill="#F9F9FA"/>
<path d="M69.2063 6.66438C69.2063 7.52525 68.6143 8.2391 67.8559 8.28413C64.1094 8.50663 53.5567 9.13771 48.8403 9.44829C47.9107 9.50921 47.1809 8.56027 47.3576 7.52127L47.3876 7.3438C47.5076 6.63524 48.0253 6.1015 48.6582 6.03595C51.8461 5.70484 61.4658 4.78372 67.8388 5.04264C68.6041 5.07376 69.2063 5.79424 69.2063 6.66438Z" fill="#F3F5F8"/>
<mask id="mask0_2265_8625" style="mask-type:alpha" maskUnits="userSpaceOnUse" x="34" y="34" width="50" height="48">
<ellipse cx="58.9617" cy="57.9831" rx="24.2784" ry="23.5338" fill="#EDF1F6"/>
</mask>
<g mask="url(#mask0_2265_8625)">
<ellipse cx="58.9617" cy="58.0728" rx="24.2784" ry="23.5338" fill="#E5EAF0"/>
</g>
<rect x="18.9468" y="125.108" width="82.3494" height="14.5832" rx="7.2916" fill="#31CDCD"/>
<rect x="21.3223" y="89.0341" width="77.5985" height="13.0481" rx="3.37546" fill="#E5EAF0"/>
<rect x="21.3223" y="106.687" width="77.5985" height="13.0481" rx="3.37546" fill="#E5EAF0"/>
<ellipse cx="29.9601" cy="113.18" rx="1.58364" ry="1.53507" fill="white"/>
<ellipse cx="53.8124" cy="113.18" rx="1.58364" ry="1.53507" fill="white"/>
<ellipse cx="37.911" cy="113.18" rx="1.58364" ry="1.53507" fill="white"/>
<ellipse cx="61.7628" cy="113.18" rx="1.58364" ry="1.53507" fill="white"/>
<ellipse cx="45.8615" cy="113.18" rx="1.58364" ry="1.53507" fill="white"/>
<ellipse cx="69.7138" cy="113.18" rx="1.58364" ry="1.53507" fill="white"/>
<ellipse cx="58.9339" cy="50.2736" rx="6.73048" ry="6.52406" fill="white"/>
<ellipse cx="58.9339" cy="66.7756" rx="14.6487" ry="6.90783" fill="white"/>
</svg>
