<svg width="24" height="24" viewBox="0 0 24 24" fill="none" xmlns="http://www.w3.org/2000/svg">
<path fill-rule="evenodd" clip-rule="evenodd" d="M18.4044 12.5033C18.1516 12.2155 18.1516 11.7847 18.4044 11.4969L19.3802 10.3991C19.6009 10.153 19.6378 9.79285 19.4717 9.50712L17.947 6.86928C17.7826 6.58393 17.4536 6.43635 17.1312 6.50334L15.6979 6.79305C15.3205 6.87103 14.9443 6.65509 14.8212 6.28988L14.3562 4.89472C14.2513 4.58419 13.9597 4.37545 13.6319 4.3763H10.5824C10.2407 4.35847 9.92904 4.57042 9.82001 4.89472L9.39309 6.28988C9.27003 6.65509 8.89377 6.87103 8.51635 6.79305L7.04495 6.50334C6.74026 6.46029 6.43956 6.60462 6.28257 6.86928L4.75781 9.50712C4.5876 9.78964 4.61836 10.1496 4.83405 10.3991L5.80227 11.4969C6.05511 11.7847 6.05511 12.2155 5.80227 12.5033L4.83405 13.6011C4.61836 13.8506 4.5876 14.2106 4.75781 14.4931L6.28257 17.1309C6.44692 17.4163 6.77591 17.5639 7.09832 17.4969L8.5316 17.2072C8.90901 17.1292 9.28527 17.3451 9.40833 17.7103L9.87339 19.1055C9.9824 19.4298 10.2941 19.6417 10.6357 19.6239H13.6853C14.013 19.6248 14.3046 19.416 14.4095 19.1055L14.8746 17.7103C14.9976 17.3451 15.3739 17.1292 15.7513 17.2072L17.1846 17.4969C17.507 17.5639 17.836 17.4163 18.0003 17.1309L19.5251 14.4931C19.6912 14.2074 19.6542 13.8472 19.4336 13.6011L18.4044 12.5033ZM17.2685 13.5249L17.8784 14.211L16.9025 15.9035L16.0029 15.7205C14.8663 15.4882 13.7359 16.1435 13.3727 17.2453L13.083 18.0991H11.1313L10.8568 17.23C10.4936 16.1283 9.3632 15.4729 8.22664 15.7053L7.32703 15.8882L6.33594 14.2034L6.94584 13.5172C7.72239 12.649 7.72239 11.3359 6.94584 10.4677L6.33594 9.78158L7.31179 8.10434L8.2114 8.28731C9.34795 8.51964 10.4784 7.86429 10.8416 6.76255L11.1313 5.90106H13.083L13.3727 6.77018C13.7359 7.87191 14.8663 8.52726 16.0029 8.29494L16.9025 8.11197L17.8784 9.80445L17.2685 10.4906C16.501 11.3564 16.501 12.659 17.2685 13.5249Z" fill="#177AE2"/>
<path fill-rule="evenodd" clip-rule="evenodd" d="M12.1066 8.95058C10.4224 8.95058 9.05713 10.3159 9.05713 12.0001C9.05713 13.6843 10.4224 15.0496 12.1066 15.0496C13.7908 15.0496 15.1562 13.6843 15.1562 12.0001C15.1562 11.1913 14.8349 10.4157 14.263 9.84377C13.6911 9.27187 12.9154 8.95058 12.1066 8.95058ZM10.5819 12.0001C10.5819 12.8422 11.2645 13.5249 12.1066 13.5249C12.9487 13.5249 13.6314 12.8422 13.6314 12.0001C13.6314 11.158 12.9487 10.4753 12.1066 10.4753C11.2645 10.4753 10.5819 11.158 10.5819 12.0001Z" fill="#31CDCD"/>
</svg>
