<svg width="24" height="24" viewBox="0 0 24 24" fill="none" xmlns="http://www.w3.org/2000/svg">
<path fill-rule="evenodd" clip-rule="evenodd" d="M17.6036 7.9975H15.2021V7.197C15.2021 5.42858 13.7686 3.995 12.0001 3.995C10.2317 3.995 8.79819 5.42858 8.79819 7.197V7.9975H6.39669C5.95458 7.9975 5.59619 8.35589 5.59619 8.798V17.6035C5.59619 18.9298 6.67138 20.005 7.99769 20.005H16.0026C17.329 20.005 18.4041 18.9298 18.4041 17.6035V8.798C18.4041 8.35589 18.0458 7.9975 17.6036 7.9975ZM10.3991 7.197C10.3991 6.31279 11.1159 5.596 12.0001 5.596C12.8844 5.596 13.6011 6.31279 13.6011 7.197V7.9975H10.3991V7.197ZM16.8031 17.6035C16.8031 18.0456 16.4448 18.404 16.0026 18.404H7.99769C7.55558 18.404 7.19719 18.0456 7.19719 17.6035V9.5985H8.79819V10.399C8.79819 10.8411 9.15658 11.1995 9.59869 11.1995C10.0408 11.1995 10.3991 10.8411 10.3991 10.399V9.5985H13.6011V10.399C13.6011 10.8411 13.9595 11.1995 14.4016 11.1995C14.8438 11.1995 15.2021 10.8411 15.2021 10.399V9.5985H16.8031V17.6035Z" fill="#177AE2"/>
<path d="M15.2028 7.19712V7.99762V9.59862V10.3991C15.2028 10.8412 14.8445 11.1996 14.4023 11.1996C13.9602 11.1996 13.6018 10.8412 13.6018 10.3991V9.59862V7.99762V7.19712C13.6018 6.31291 12.8851 5.59612 12.0008 5.59612C11.1166 5.59612 10.3998 6.31291 10.3998 7.19712V7.99762V9.59862V10.3991C10.3998 10.8412 10.0415 11.1996 9.59933 11.1996C9.15722 11.1996 8.79883 10.8412 8.79883 10.3991V9.59862V7.99762V7.19712C8.79883 5.4287 10.2324 3.99512 12.0008 3.99512C13.7693 3.99512 15.2028 5.4287 15.2028 7.19712Z" fill="#177AE2"/>
</svg>
