<svg width="24" height="24" viewBox="0 0 24 24" fill="none" xmlns="http://www.w3.org/2000/svg">
<path d="M12.0005 3.99536C14.1236 3.99536 16.1597 4.83874 17.6609 6.33997C19.1621 7.8412 20.0055 9.8773 20.0055 12.0003C20.0055 12.4424 19.6471 12.8008 19.205 12.8008C18.7629 12.8008 18.4045 12.4424 18.4045 12.0003C18.3944 9.38902 16.7998 7.04536 14.3745 6.07735C12.1783 5.20077 9.69928 5.61125 7.90995 7.09761H7.37364V7.59761L7.73489 7.94329C7.85067 7.8223 7.97074 7.70705 8.09472 7.59761H9.29484C9.73695 7.59761 10.0953 7.956 10.0953 8.39811C10.0953 8.84021 9.73695 9.19861 9.29484 9.19861H5.69259C5.25049 9.19861 4.89209 8.84021 4.89209 8.39811V4.79586C4.89209 4.35375 5.25049 3.99536 5.69259 3.99536C6.1347 3.99536 6.49309 4.35375 6.49309 4.79586V5.5388C6.37541 5.63953 6.26022 5.7437 6.14766 5.85124L6.49309 6.21274H6.99309V5.77323C8.40587 4.63192 10.1712 4.00058 12.0005 3.99536ZM12.0005 3.99536V4.49536C12.0008 4.49536 12.001 4.49536 12.0012 4.49536M12.0005 3.99536L12.002 4.49536C12.0017 4.49536 12.0015 4.49536 12.0012 4.49536M12.0012 4.49536C13.9915 4.49555 15.9001 5.28623 17.3074 6.69352C18.7148 8.10099 19.5055 10.0099 19.5055 12.0003C19.5055 12.1663 19.371 12.3008 19.205 12.3008C19.0391 12.3008 18.9045 12.1663 18.9045 12.0003L18.9045 11.9984C18.8936 9.18321 17.1745 6.65656 14.5599 5.61297C11.9452 4.56937 8.95874 5.21789 7.01239 7.25193L6.20316 8.09761H7.37364H9.29484C9.4608 8.09761 9.59533 8.23214 9.59533 8.39811C9.59533 8.56408 9.4608 8.69861 9.29484 8.69861H5.69259C5.52663 8.69861 5.39209 8.56407 5.39209 8.39811V4.79586C5.39209 4.6299 5.52663 4.49536 5.69259 4.49536C5.85856 4.49536 5.99309 4.62989 5.99309 4.79586V6.21274V7.38208L6.83852 6.57424C8.22939 5.24521 10.0775 4.50103 12.0012 4.49536Z" fill="#FDFDFD" stroke="#FDFDFD"/>
<path fill-rule="evenodd" clip-rule="evenodd" d="M18.337 14.6105H14.7107C14.2686 14.6105 13.9102 14.9689 13.9102 15.411C13.9102 15.8531 14.2686 16.2115 14.7107 16.2115H16.6319C14.8255 18.0992 12.0534 18.7003 9.62734 17.7302C7.20129 16.7602 5.60784 14.4135 5.601 11.8007C5.601 11.3586 5.24261 11.0002 4.8005 11.0002C4.3584 11.0002 4 11.3586 4 11.8007C4.00865 14.9957 5.91631 17.8795 8.85323 19.1375C11.7901 20.3954 15.1938 19.7865 17.5124 17.5883V19.0052C17.5124 19.4473 17.8708 19.8057 18.3129 19.8057C18.755 19.8057 19.1134 19.4473 19.1134 19.0052V15.403C19.1093 14.9732 18.7666 14.6233 18.337 14.6105Z" fill="#FDFDFD"/>
</svg>
