<svg width="24" height="24" viewBox="0 0 24 24" fill="none" xmlns="http://www.w3.org/2000/svg">
<path fill-rule="evenodd" clip-rule="evenodd" d="M19.3007 10.9675L12.5685 4.22729C12.4175 4.07745 12.213 3.99391 12.0002 3.99513H4.79564C4.35354 3.99513 3.99513 4.35354 3.99513 4.79564V12.0001C3.99391 12.2129 4.07745 12.4174 4.22729 12.5685L10.9675 19.3007C11.9051 20.2371 13.4241 20.2371 14.3617 19.3007L19.3007 14.4016C20.2372 13.464 20.2372 11.9451 19.3007 11.0075V10.9675ZM18.172 13.2249L13.2249 18.164C12.9127 18.4744 12.4085 18.4744 12.0962 18.164L5.59614 11.6719V5.59614H11.672L18.172 12.0962C18.3219 12.2473 18.4054 12.4518 18.4042 12.6646C18.4033 12.8746 18.3199 13.0758 18.172 13.2249Z" fill="#177AE2"/>
<path d="M7.19678 8.39789C7.19678 7.73474 7.73438 7.19714 8.39753 7.19714C9.06069 7.19714 9.59828 7.73474 9.59828 8.39789C9.59828 9.06105 9.06069 9.59864 8.39753 9.59864C7.73438 9.59864 7.19678 9.06105 7.19678 8.39789Z" fill="#177AE2"/>
</svg>
