<svg width="24" height="24" viewBox="0 0 24 24" fill="none" xmlns="http://www.w3.org/2000/svg">
<path fill-rule="evenodd" clip-rule="evenodd" d="M13.6011 16.8033C13.159 16.8033 12.8006 16.4449 12.8006 16.0028V11.1998C12.8006 10.7577 13.159 10.3993 13.6011 10.3993C14.0432 10.3993 14.4016 10.7577 14.4016 11.1998V16.0028C14.4016 16.4449 14.0432 16.8033 13.6011 16.8033ZM5.59609 7.19736H8.79809V6.39686C8.79809 5.07055 9.87329 3.99536 11.1996 3.99536H12.8006C14.1269 3.99536 15.2021 5.07055 15.2021 6.39686V7.19736H18.4041C18.8462 7.19736 19.2046 7.55575 19.2046 7.99786C19.2046 8.43996 18.8462 8.79836 18.4041 8.79836H17.6036V17.6038C17.6036 18.9301 16.5284 20.0053 15.2021 20.0053H8.79809C7.47179 20.0053 6.39659 18.9301 6.39659 17.6038V8.79836H5.59609C5.15399 8.79836 4.79559 8.43996 4.79559 7.99786C4.79559 7.55575 5.15399 7.19736 5.59609 7.19736ZM13.6011 6.39686C13.6011 5.95475 13.2427 5.59636 12.8006 5.59636H11.1996C10.7575 5.59636 10.3991 5.95475 10.3991 6.39686V7.19736H13.6011V6.39686ZM7.99759 17.6038C7.99759 18.0459 8.35599 18.4043 8.79809 18.4043H15.2021C15.6442 18.4043 16.0026 18.0459 16.0026 17.6038V8.79836H7.99759V17.6038ZM10.3991 16.8033C9.95699 16.8033 9.59859 16.4449 9.59859 16.0028V11.1998C9.59859 10.7577 9.95699 10.3993 10.3991 10.3993C10.8412 10.3993 11.1996 10.7577 11.1996 11.1998V16.0028C11.1996 16.4449 10.8412 16.8033 10.3991 16.8033Z" fill="#FDFDFD"/>
</svg>
