<svg xmlns="http://www.w3.org/2000/svg" width="13" height="22" viewBox="0 0 13 22"><g><g><path fill="#363636" d="M1 10.783c0-.35.134-.702.401-.969l8.413-8.413a1.37 1.37 0 1 1 1.938 1.938l-7.444 7.444 7.443 7.443a1.37 1.37 0 0 1-1.937 1.938L1.4 11.75A1.366 1.366 0 0 1 1 10.783z"/><path fill="none" stroke="#fff" stroke-miterlimit="20" stroke-width=".5" d="M1 10.783c0-.35.134-.702.401-.969l8.413-8.413a1.37 1.37 0 1 1 1.938 1.938l-7.444 7.444v0l7.443 7.443a1.37 1.37 0 0 1-1.937 1.938L1.4 11.75A1.366 1.366 0 0 1 1 10.783z"/></g></g></svg>