<svg id="Logo" xmlns="http://www.w3.org/2000/svg" width="70.8" height="19.175" viewBox="0 0 70.8 19.175">
  <g id="Soum" transform="translate(-247.871 -476.157)" style="isolation: isolate">
    <g id="Group_895" data-name="Group 895" style="isolation: isolate">
      <path id="Path_6421" data-name="Path 6421" d="M259.871,492.819a4.846,4.846,0,0,1-2,1.826,6.924,6.924,0,0,1-3.225.687,8.35,8.35,0,0,1-3.35-.638,5.645,5.645,0,0,1-2.362-1.837,5.291,5.291,0,0,1-1.013-2.8h3.75a2.863,2.863,0,0,0,.863,1.787,2.708,2.708,0,0,0,1.962.713,2.289,2.289,0,0,0,1.688-.588,2.051,2.051,0,0,0,.587-1.513,1.978,1.978,0,0,0-.475-1.362,3.46,3.46,0,0,0-1.2-.863q-.724-.324-2-.75a19.733,19.733,0,0,1-2.7-1.087,4.985,4.985,0,0,1-1.787-1.563,4.474,4.474,0,0,1-.738-2.675,4.351,4.351,0,0,1,1.638-3.588,6.728,6.728,0,0,1,4.337-1.312,6.872,6.872,0,0,1,4.463,1.35,5.1,5.1,0,0,1,1.887,3.6h-3.8a2.65,2.65,0,0,0-.8-1.562,2.481,2.481,0,0,0-1.775-.613,2.34,2.34,0,0,0-1.575.513,2.085,2.085,0,0,0-.137,2.774,3.527,3.527,0,0,0,1.175.838,19,19,0,0,0,1.937.725,25.871,25.871,0,0,1,2.763,1.125,4.869,4.869,0,0,1,1.812,1.575,4.629,4.629,0,0,1,.75,2.75A4.781,4.781,0,0,1,259.871,492.819Z" fill="#292928"/>
      <path id="Path_6422" data-name="Path 6422" d="M273.184,481.982a6.235,6.235,0,0,1,2.537,2.462,7.492,7.492,0,0,1,.925,3.788,7.417,7.417,0,0,1-.925,3.775,6.334,6.334,0,0,1-2.537,2.463,8.108,8.108,0,0,1-7.276,0,6.321,6.321,0,0,1-2.537-2.463,7.407,7.407,0,0,1-.925-3.775,7.482,7.482,0,0,1,.925-3.788,6.223,6.223,0,0,1,2.537-2.462,8.21,8.21,0,0,1,7.276,0Zm-6.138,3.238a4.939,4.939,0,0,0,0,6.025,3.532,3.532,0,0,0,5,0,4.939,4.939,0,0,0,0-6.025,3.532,3.532,0,0,0-5,0Z" fill="#292928"/>
      <path id="Path_6423" data-name="Path 6423" d="M292.4,481.308v13.849h-3.525v-2.8a4.415,4.415,0,0,1-1.812,2.188,5.4,5.4,0,0,1-2.913.787,4.9,4.9,0,0,1-3.825-1.575,6.323,6.323,0,0,1-1.425-4.4v-8.049h3.5v7.649a3.616,3.616,0,0,0,.85,2.563,2.991,2.991,0,0,0,2.3.913,3.141,3.141,0,0,0,2.425-.976,3.98,3.98,0,0,0,.9-2.8v-7.349Z" fill="#292928"/>
      <path id="Path_6424" data-name="Path 6424" d="M317.208,482.67a6.244,6.244,0,0,1,1.463,4.437v8.05h-3.5v-7.65a3.457,3.457,0,0,0-.813-2.462,2.924,2.924,0,0,0-2.237-.862,3.083,3.083,0,0,0-2.35.924,3.786,3.786,0,0,0-.875,2.7v7.349h-3.5v-7.65a3.452,3.452,0,0,0-.813-2.462,2.924,2.924,0,0,0-2.237-.862,3.082,3.082,0,0,0-2.35.924,3.785,3.785,0,0,0-.875,2.7v7.349H295.6V481.308h3.525v2.625a4.284,4.284,0,0,1,1.737-2.088,5.134,5.134,0,0,1,2.763-.738,5.248,5.248,0,0,1,2.912.8,4.891,4.891,0,0,1,1.863,2.3,5.519,5.519,0,0,1,8.812-1.537Z" fill="#292928"/>
    </g>
  </g>
  <rect id="Rectangle_2889" data-name="Rectangle 2889" width="3.6" height="3.6" transform="translate(30.95)" fill="#292928"/>
  <rect id="Rectangle_2888" data-name="Rectangle 2888" width="3.6" height="3.6" transform="translate(40.95)" fill="#292928"/>
</svg>
