<svg id="Logo" xmlns="http://www.w3.org/2000/svg" width="13.6" height="19.175" viewBox="0 0 13.6 19.175">
  <g id="Soum" transform="translate(-278.821 -476.157)" style="isolation: isolate">
    <g id="Group_895" data-name="Group 895" style="isolation: isolate">
      <path id="Path_6423" data-name="Path 6423" d="M292.4,481.308v13.849h-3.525v-2.8a4.415,4.415,0,0,1-1.812,2.188,5.4,5.4,0,0,1-2.913.787,4.9,4.9,0,0,1-3.825-1.575,6.323,6.323,0,0,1-1.425-4.4v-8.049h3.5v7.649a3.616,3.616,0,0,0,.85,2.563,2.991,2.991,0,0,0,2.3.913,3.141,3.141,0,0,0,2.425-.976,3.98,3.98,0,0,0,.9-2.8v-7.349Z" fill="#fff"/>
    </g>
  </g>
  <rect id="Rectangle_2889" data-name="Rectangle 2889" width="3.6" height="3.6" fill="#fff"/>
  <rect id="Rectangle_2888" data-name="Rectangle 2888" width="3.6" height="3.6" transform="translate(10)" fill="#fff"/>
</svg>
